<svg xmlns="http://www.w3.org/2000/svg" xmlns:xlink="http://www.w3.org/1999/xlink" xml:space="preserve" width="23.4521mm" height="23.453mm" fill-rule="evenodd" clip-rule="evenodd" viewBox="0 0 928002 928038">
 <g id="Camada_x0020_1">
  <metadata id="CorelCorpID_0Corel-Layer"></metadata>
  <g id="_2018448669632">
   <path fill="#A9ABAE" d="M580078 776908c-2026,-25210 -2778,-109657 970,-132758 5630,-34699 33844,-61575 71408,-64195 16152,-1127 118959,-1206 132223,733 34984,5120 62074,34303 65054,71245 2057,25567 2948,110219 -835,133633 -5635,34829 -33904,60047 -71745,63660 -25242,2410 -109296,2628 -132837,-1041 -35767,-5575 -61147,-32898 -64238,-71277zm71737 -274336c-55671,3352 -106760,32598 -131025,81586 -15147,30580 -18443,49391 -18404,87766 107,96361 -14969,182787 81459,236578 27153,15144 53028,18689 88238,18646 34631,-44 72769,1531 106962,-329 66177,-3593 107583,-40448 129979,-81562 15548,-28546 18527,-51619 18488,-88257 -32,-34877 1317,-72302 -333,-106859 -3114,-65030 -40895,-106982 -81771,-129675 -25491,-14154 -55058,-18282 -88182,-18246 -33861,40 -72259,-1642 -105411,352z"></path>
   <path fill="#A9ABAE" d="M139706 79425c18808,-4056 110401,-2794 133913,-1381 37268,2236 65849,28344 72481,61844 4210,21253 3043,108735 1432,133668 -2429,37627 -28249,66328 -61527,72516 -22927,4266 -107884,3380 -133822,1544 -37770,-2671 -66055,-27106 -72987,-60555 -4385,-21146 -3190,-109779 -1654,-134692 2390,-38771 27754,-65524 62164,-72944zm-2991 -76445c-33196,-2849 -80260,29934 -93481,44195 -16184,17455 -30113,40710 -37370,65897 -2406,8349 -2584,19171 -5864,26444l0 147039c6118,13450 3724,52110 45407,93833 49913,49961 103369,44923 166542,44923 63392,0 117559,5445 166773,-44690 51975,-52941 46392,-97081 46392,-164833 0,-68267 6323,-114132 -43251,-167964 -13022,-14138 -62433,-50139 -95415,-45066 -9481,1171 -9782,-1860 -18400,-2758l-115299 708c-7685,1702 -7934,4104 -16034,2272z"></path>
   <path fill="#A9ABAE" d="M147826 580248c24886,-2354 109902,-3003 133454,321 34553,4871 62133,32875 65730,68171 2663,26136 3138,109313 -210,134594 -4756,35898 -31941,61049 -68511,65536 -23418,2869 -111279,2853 -134436,-419 -34905,-4939 -62200,-32155 -65872,-67863 -2588,-25139 -2924,-111414 498,-135552 4840,-34121 33303,-61377 69347,-64788zm-147826 60792l0 146999c6596,14704 2548,35071 25942,69699 14966,22143 26449,33717 50171,47650 50076,29412 108074,21744 172067,21756 69521,15 108066,-17015 139433,-54413 40571,-48371 37501,-83497 37501,-157363 0,-73165 2030,-108608 -35685,-157465 -11970,-15508 -34366,-31834 -55857,-41952 -26852,-12639 -51959,-13739 -83580,-13727 -78922,28 -171936,-12136 -223330,67784 -25388,39479 -19500,55307 -26662,71032z"></path>
   <path fill="#A9ABAE" d="M656686 193162c-41070,4530 -117796,-6166 -136347,6699 -22844,15840 -24506,46095 -1211,63779 18764,14245 94043,2556 137558,7352 2105,29072 320,65200 297,95032 -16,17050 -1785,29321 7178,42237 16002,23077 47381,21296 62358,1282 8923,-11927 7784,-24506 7760,-41711 -44,-30370 -1848,-67246 293,-96844 26266,-2849 67269,-459 95114,-447 21796,12 58738,625 58996,-38462 102,-15749 -9003,-25693 -16723,-31447 -11641,-8677 -26389,-7031 -42273,-7019 -27817,23 -68871,2398 -95114,-444 -2105,-29095 -313,-65183 -297,-95035 12,-16877 1994,-29587 -7036,-42392 -15135,-21462 -46396,-22250 -62465,-1060 -9663,12738 -7811,24688 -7791,41640 27,30382 1848,67237 -297,96840z"></path>
  </g>
 </g>
</svg>