<?xml version="1.0" encoding="UTF-8"?>
<!DOCTYPE svg PUBLIC "-//W3C//DTD SVG 1.1//EN" "http://www.w3.org/Graphics/SVG/1.1/DTD/svg11.dtd">
<!-- Creator: CorelDRAW 2021 (64-Bit) -->
<svg xmlns="http://www.w3.org/2000/svg" xml:space="preserve" width="52px" height="38px" version="1.1" shape-rendering="geometricPrecision" text-rendering="geometricPrecision" image-rendering="optimizeQuality" fill-rule="evenodd" clip-rule="evenodd"
viewBox="0 0 2.88 2.1"
 xmlns:xlink="http://www.w3.org/1999/xlink"
 xmlns:xodm="http://www.corel.com/coreldraw/odm/2003">
 <g id="Camada_x0020_1">
  <metadata id="CorelCorpID_0Corel-Layer"/>
  <g id="_1552987188800">
   <g transform="matrix(1.10475 0 0 1 29.1743 187.593)">
    <text x="-26" y="-186.76"  fill="white" font-weight="normal" font-size="0.63px" font-family="Arial">A</text>
   </g>
   <g transform="matrix(1.10475 0 0 1 29.6397 187.593)">
    <text x="-26" y="-186.76"  fill="white" font-weight="normal" font-size="0.63px" font-family="Arial">ICP</text>
   </g>
   <g transform="matrix(1.10475 0 0 1 30.752 187.593)">
    <text x="-26" y="-186.76"  fill="white" font-weight="normal" font-size="0.63px" font-family="Arial">A</text>
   </g>
   <g transform="matrix(1.10475 0 0 1 29.1605 188.596)">
    <text x="-26" y="-186.76"  fill="white" font-weight="normal" font-size="0.63px" font-family="Arial">SOC 3</text>
   </g>
   <path fill="none" fill-rule="nonzero" stroke="white" stroke-width="0.13" stroke-miterlimit="22.93" d="M0.47 1.13l1.96 0m-2.1 -1.06l2.21 0c0.15,0 0.27,0.1 0.27,0.24l0 1.48c0,0.14 -0.12,0.24 -0.27,0.24l-2.21 0c-0.14,0 -0.26,-0.1 -0.26,-0.24l0 -1.48c0,-0.14 0.12,-0.24 0.26,-0.24z"/>
  </g>
 </g>
</svg>
