<?xml version="1.0" encoding="UTF-8"?>
<!DOCTYPE svg PUBLIC "-//W3C//DTD SVG 1.1//EN" "http://www.w3.org/Graphics/SVG/1.1/DTD/svg11.dtd">
<!-- Creator: CorelDRAW 2021 (64-Bit) -->
<svg xmlns="http://www.w3.org/2000/svg" xml:space="preserve" width="52px" height="38px" version="1.1" shape-rendering="geometricPrecision" text-rendering="geometricPrecision" image-rendering="optimizeQuality" fill-rule="evenodd" clip-rule="evenodd"
viewBox="0 0 7.57 5.53"
 xmlns:xlink="http://www.w3.org/1999/xlink"
 xmlns:xodm="http://www.corel.com/coreldraw/odm/2003">
 <g id="Camada_x0020_1">
  <metadata id="CorelCorpID_0Corel-Layer"/>
  <g id="_1552921547728">
   <g transform="matrix(1.10475 0 0 1 29.8229 494.015)">
    <text x="-26" y="-491.91"  fill="white" font-weight="normal" font-size="1.66px" font-family="Arial">A</text>
   </g>
   <g transform="matrix(1.10475 0 0 1 31.0486 494.015)">
    <text x="-26" y="-491.91"  fill="white" font-weight="normal" font-size="1.66px" font-family="Arial">ICP</text>
   </g>
   <g transform="matrix(1.10475 0 0 1 33.9785 494.015)">
    <text x="-26" y="-491.91"  fill="white" font-weight="normal" font-size="1.66px" font-family="Arial">A</text>
   </g>
   <g transform="matrix(1.10475 0 0 1 29.7864 496.657)">
    <text x="-26" y="-491.91"  fill="white" font-weight="normal" font-size="1.66px" font-family="Arial">SOC 2</text>
   </g>
   <path fill="none" fill-rule="nonzero" stroke="white" stroke-width="0.34" stroke-miterlimit="22.93" d="M1.15 2.89l5.16 0m-5.43 -2.72l5.82 0c0.39,0 0.7,0.29 0.7,0.64l0 3.91c0,0.35 -0.31,0.64 -0.7,0.64l-5.82 0c-0.39,0 -0.71,-0.29 -0.71,-0.64l0 -3.91c0,-0.35 0.32,-0.64 0.71,-0.64z"/>
  </g>
 </g>
</svg>
