<?xml version="1.0" encoding="UTF-8"?>
<!DOCTYPE svg PUBLIC "-//W3C//DTD SVG 1.1//EN" "http://www.w3.org/Graphics/SVG/1.1/DTD/svg11.dtd">
<!-- Creator: CorelDRAW 2021 (64-Bit) -->
<svg xmlns="http://www.w3.org/2000/svg" xml:space="preserve" width="107px" height="96px" version="1.1" shape-rendering="geometricPrecision" text-rendering="geometricPrecision" image-rendering="optimizeQuality" fill-rule="evenodd" clip-rule="evenodd"
viewBox="0 0 14.04 12.49"
 xmlns:xlink="http://www.w3.org/1999/xlink"
 xmlns:xodm="http://www.corel.com/coreldraw/odm/2003">
 <g id="Camada_x0020_1">
  <metadata id="CorelCorpID_0Corel-Layer"/>
  <g id="_1552948724448">
   <path fill="#FEFEFE" stroke="#D2D3D5" stroke-width="0.12" stroke-miterlimit="22.9256" d="M3.25 0.06l9.51 0c0.78,0 1.33,0.64 1.2,1.43l-1.51 9.51c-0.13,0.79 -0.87,1.43 -1.66,1.43l-9.51 0c-0.79,0 -1.33,-0.64 -1.2,-1.43l1.51 -9.51c0.12,-0.79 0.87,-1.43 1.66,-1.43z"/>
   <path fill="#96989A" fill-rule="nonzero" d="M7.45 4.19c0.11,0 0.19,0.08 0.2,0.19l0 0.01 0 0 0 0 0 1.55 0 0 0 0.01c0,0.1 -0.09,0.19 -0.19,0.19l-0.01 0 0 0 0 0 0 0 -1.8 0 -0.11 0 -0.08 0.08 -0.38 0.38 0 -2.21 0 0 -0.01 0c0,-0.06 0.02,-0.1 0.06,-0.14 0.03,-0.04 0.08,-0.06 0.13,-0.06l0.01 0 0 0 0 0 0 0 2.18 0 0 0 0 0 0 0zm0 -0.26c0,0 0,0 0,0l-2.18 0c0,0 0,0 0,0 -0.01,0 -0.01,0 -0.01,0 -0.25,0 -0.46,0.21 -0.45,0.46l0 2.48c-0.01,0.06 0.03,0.12 0.09,0.14 0.02,0.01 0.04,0.02 0.05,0.02 0.01,0 0.01,0 0.01,0 0.01,0 0.01,0 0.01,0 0.04,0 0.08,-0.02 0.1,-0.05l0.58 -0.57 1.8 0c0,0 0,0 0,0 0.01,0 0.01,0 0.01,0 0.25,-0.01 0.46,-0.22 0.45,-0.47l0 -1.55c0,-0.01 0,-0.01 0,-0.02 0,-0.25 -0.21,-0.44 -0.46,-0.44z"/>
   <path fill="#96989A" fill-rule="nonzero" d="M7.11 3.27l0 0 0 0 0 0 2.18 0 0 0 0 0 0 0 0.01 0c0.05,0 0.1,0.02 0.13,0.06 0.04,0.04 0.06,0.09 0.05,0.14l0 0 0 0 0 2.21 -0.38 -0.38 -0.08 -0.08 -0.11 0 -1.8 0 0 0 0 0 0 0 -0.01 0c-0.05,0 -0.1,-0.02 -0.13,-0.06 -0.04,-0.03 -0.06,-0.08 -0.06,-0.13l0 0 0 -0.01 0 -1.55 0 0 0 0 0 -0.01c0.01,-0.1 0.09,-0.19 0.2,-0.19zm0 -0.26c-0.25,0 -0.46,0.2 -0.46,0.45 0,0 0,0.01 0,0.01l0 1.55c-0.01,0.26 0.19,0.46 0.45,0.47 0,0 0,0 0.01,0 0,0 0,0 0,0l1.8 0 0.58 0.57c0.02,0.03 0.06,0.05 0.1,0.05 0,0 0,0 0.01,0 0,0 0,0 0,0 0.02,0 0.04,-0.01 0.06,-0.02 0.06,-0.02 0.09,-0.07 0.09,-0.14l0 -2.48c0,-0.25 -0.2,-0.46 -0.45,-0.46 0,0 0,0 -0.01,0 0,0 0,0 0,0l-2.18 0c0,0 0,0 0,0z"/>
   <text x="2.17" y="10.45"  fill="black" font-weight="300" font-size="1.59px" font-family="Open Sans Light">Chat online</text>
  </g>
 </g>
</svg>
