<?xml version="1.0" encoding="UTF-8"?>
<!DOCTYPE svg PUBLIC "-//W3C//DTD SVG 1.0//EN" "http://www.w3.org/TR/2001/REC-SVG-20010904/DTD/svg10.dtd">
<!-- Creator: CorelDRAW X7 -->
<svg xmlns="http://www.w3.org/2000/svg" xml:space="preserve" width="35.9173mm" height="31.9338mm" version="1.0" shape-rendering="geometricPrecision" text-rendering="geometricPrecision" image-rendering="optimizeQuality" fill-rule="evenodd" clip-rule="evenodd"
viewBox="0 0 2885223 2565230"
 xmlns:xlink="http://www.w3.org/1999/xlink">
 <g id="Camada_x0020_1">
  <metadata id="CorelCorpID_0Corel-Layer"/>
  <g id="_2018540785440">
   <path fill="#FEFEFE" stroke="#D2D3D5" stroke-width="6121.12" d="M662494 3061l1966887 0c162885,0 274944,133234 249070,296086l-312570 1966895c-25875,162885 -180292,296119 -343177,296119l-1966894 0c-162845,0 -274904,-133234 -249030,-296119l312570 -1966895c25875,-162852 180292,-296086 343144,-296086z"/>
   <path fill="#000000" fill-rule="nonzero" d="M1532689 857591c21408,0 39145,17415 39538,38831l0 1486 -8 506 0 499 0 320756 0 506 8 490c394,21833 -17046,39932 -38903,40333l-699 0 -699 0 -514 -16 -498 0 -372087 0 -22749 0 -16074 16082 -79462 79470 0 -457621 0 -515 -8 -506c-201,-10563 3735,-20580 11069,-28187 7334,-7616 17199,-11905 27762,-12114l739 0 739 0 498 8 506 0 449067 0 498 0 514 -8 763 0zm0 -54913c-594,0 -1189,0 -1775,8l-449067 0c-578,-8 -1165,-8 -1743,-8 -586,0 -1165,0 -1751,8 -52174,964 -93689,44052 -92725,96227l0 513201c-940,12901 6973,24790 19247,28879 3197,2161 6973,3317 10805,3317 666,0 1349,-48 2016,-112 289,8 562,8 851,8 8226,0 16090,-3486 21609,-9631l118671 -118679 372087 0c562,16 1141,16 1711,16 570,0 1141,0 1711,-16 52198,-940 93736,-44029 92797,-96227l0 -320756c16,-1157 16,-2322 0,-3503 -956,-51579 -43065,-92732 -94444,-92732z"/>
   <path fill="#000000" fill-rule="nonzero" d="M1460425 667732l771 0 506 16 506 0 449059 0 506 0 506 -16 739 0 731 0c10571,209 20428,4506 27762,12114 7342,7615 11270,17632 11077,28195l-16 514 0 507 0 457621 -79462 -79470 -16074 -16082 -22757 0 -372071 0 -514 0 -522 8 -675 0 -723 0c-10579,-193 -20452,-4490 -27794,-12113 -7342,-7608 -11286,-17641 -11094,-28204l16 -506 0 -490 0 -320764 0 -507 -16 -490 0 -1486c402,-21416 18139,-38847 39539,-38847zm0 -54913c-51371,0 -93480,41169 -94436,92748 -24,1165 -24,2330 0,3495l0 320764c-956,52190 40591,95271 92789,96219 578,8 1149,8 1719,8 570,0 1141,0 1711,-8l372071 0 118679 118678c5526,6138 13374,9632 21600,9632 289,0 579,0 860,-8 683,72 1365,104 2032,104 3832,0 7599,-1148 10796,-3317 12267,-4081 20187,-15970 19239,-28863l0 -513209c972,-52183 -40542,-95263 -92724,-96227 -579,-16 -1165,-16 -1743,-16 -587,0 -1165,0 -1751,16l-449059 0c-595,-16 -1189,-16 -1783,-16z"/>
   <path fill="black" fill-rule="nonzero" d="M573345 1928401c-29385,0 -52536,9414 -69397,28244 -16910,18877 -25336,44655 -25336,77389 0,33546 7985,59541 23914,78041 15929,18556 38639,27802 68248,27802 19705,0 37763,-2515 54182,-7551l0 14451c-15487,5470 -34806,8210 -58014,8210 -32895,0 -58833,-10620 -77767,-31907 -18885,-21296 -28356,-51010 -28356,-89158 0,-23858 4490,-44880 13519,-63051 9029,-18170 22059,-32180 38968,-42085 16966,-9904 36671,-14828 59107,-14828 22878,0 43346,4209 61412,12587l-6627 14668c-17070,-8539 -35024,-12812 -53853,-12812z"/>
   <path id="1" fill="black" fill-rule="nonzero" d="M794894 2151701l0 -113016c0,-17511 -3720,-30268 -11110,-38261 -7334,-7936 -18773,-11929 -34317,-11929 -20845,0 -36116,5254 -45747,15817 -9688,10507 -14564,27586 -14564,51170l0 96219 -15873 0 0 -249568 15873 0 0 79414 -763 22332 1092 0c6515,-10508 14781,-18067 24742,-22774 9904,-4707 22275,-7061 37048,-7061 39514,0 59331,21239 59331,63653l0 114004 -15712 0z"/>
   <path id="2" fill="black" fill-rule="nonzero" d="M972880 2151701l-3992 -27585 -1318 0c-8756,11278 -17785,19215 -27039,23866 -9246,4651 -20195,7005 -32782,7005 -17126,0 -30429,-4378 -39948,-13134 -9527,-8812 -14291,-20910 -14291,-36454 0,-17022 7117,-30212 21296,-39626 14170,-9415 34638,-14396 61516,-14886l33160 -980 0 -11551c0,-16580 -3334,-29063 -10065,-37546 -6732,-8427 -17625,-12644 -32566,-12644 -16146,0 -32895,4490 -50238,13463l-5912 -13792c19150,-8973 38036,-13464 56753,-13464 19158,0 33441,4981 42904,14894 9471,9960 14234,25448 14234,46518l0 115916 -11712 0zm-64199 -11166c18612,0 33328,-5309 44060,-15977 10724,-10620 16147,-25400 16147,-44334l0 -17183 -30485 1253c-24525,1205 -41981,5037 -52383,11496 -10451,6458 -15649,16588 -15649,30268 0,10893 3334,19375 10018,25392 6675,6073 16146,9085 28292,9085z"/>
   <path id="3" fill="black" fill-rule="nonzero" d="M1086988 2141194c10074,0 18830,-876 26324,-2571l0 12588c-7711,2514 -16580,3776 -26653,3776 -15375,0 -26702,-4105 -34036,-12371 -7334,-8210 -11005,-21183 -11005,-38807l0 -112687 -25834 0 0 -9302 25834 -7222 7993 -39297 8210 0 0 42029 51170 0 0 13792 -51170 0 0 110662c0,13415 2353,23320 7061,29778 4707,6403 12089,9632 22106,9632z"/>
   <path id="4" fill="black" fill-rule="nonzero" d="M1380448 2064351c0,28460 -6892,50680 -20684,66665 -13793,15978 -32783,23971 -57083,23971 -15270,0 -28734,-3671 -40389,-11054 -11664,-7390 -20581,-17953 -26766,-31802 -6242,-13793 -9302,-29714 -9302,-47780 0,-28461 6892,-50624 20684,-66497 13793,-15873 32679,-23810 56753,-23810 23922,0 42752,8049 56376,24139 13624,16090 20411,38149 20411,66168zm-137588 0c0,23970 5310,42639 15817,56046 10507,13407 25392,20138 44663,20138 19263,0 34148,-6731 44655,-20138 10507,-13407 15817,-32076 15817,-56046 0,-24027 -5366,-42687 -15977,-55990 -10620,-13238 -25561,-19866 -44824,-19866 -19215,0 -34044,6628 -44495,19818 -10403,13182 -15656,31907 -15656,56038z"/>
   <path id="5" fill="black" fill-rule="nonzero" d="M1550329 2151701l0 -113016c0,-17511 -3719,-30268 -11109,-38261 -7334,-7936 -18773,-11929 -34317,-11929 -20845,0 -36116,5254 -45748,15817 -9687,10507 -14563,27586 -14563,51170l0 96219 -15874 0 0 -174371 13464 0 3068 23970 988 0c11327,-18171 31465,-27256 60473,-27256 39514,0 59331,21239 59331,63653l0 114004 -15713 0z"/>
   <polygon id="6" fill="black" fill-rule="nonzero" points="1638282,2151701 1622409,2151701 1622409,1902133 1638282,1902133 "/>
   <path id="7" fill="black" fill-rule="nonzero" d="M1712499 2151701l-15873 0 0 -174371 15873 0 0 174371zm-18114 -222754c0,-10234 3390,-15319 10129,-15319 3278,0 5856,1310 7768,3993 1864,2683 2787,6458 2787,11326 0,4820 -923,8595 -2787,11391 -1912,2787 -4490,4153 -7768,4153 -6739,0 -10129,-5197 -10129,-15544z"/>
   <path id="8" fill="black" fill-rule="nonzero" d="M1892453 2151701l0 -113016c0,-17511 -3719,-30268 -11109,-38261 -7334,-7936 -18773,-11929 -34317,-11929 -20846,0 -36116,5254 -45748,15817 -9688,10507 -14564,27586 -14564,51170l0 96219 -15873 0 0 -174371 13464 0 3068 23970 988 0c11327,-18171 31465,-27256 60472,-27256 39514,0 59332,21239 59332,63653l0 114004 -15713 0z"/>
   <path id="9" fill="black" fill-rule="nonzero" d="M2034974 2154987c-25344,0 -45097,-7825 -59275,-23425 -14170,-15600 -21231,-37489 -21231,-65621 0,-27802 6836,-50077 20524,-66770 13680,-16748 32124,-25127 55331,-25127 20524,0 36719,7117 48599,21400 11873,14234 17785,33610 17785,58126l0 12749 -125603 0c217,24083 5800,42470 16805,55170 10941,12700 26653,19046 47065,19046 9961,0 18661,-707 26212,-2080 7559,-1366 17078,-4378 28629,-8973l0 14451c-9856,4266 -18942,7166 -27256,8700 -8322,1582 -17512,2354 -27585,2354zm-4651 -167150c-16805,0 -30268,5534 -40446,16644 -10129,11110 -16090,27143 -17785,48053l107762 0c0,-20307 -4378,-36124 -13134,-47563 -8764,-11439 -20909,-17134 -36397,-17134z"/>
  </g>
 </g>
</svg>
