<?xml version="1.0" encoding="UTF-8"?>
<!DOCTYPE svg PUBLIC "-//W3C//DTD SVG 1.1//EN" "http://www.w3.org/Graphics/SVG/1.1/DTD/svg11.dtd">
<!-- Creator: CorelDRAW 2021 (64-Bit) -->
<svg xmlns="http://www.w3.org/2000/svg" xml:space="preserve" width="74px" height="22px" version="1.1" shape-rendering="geometricPrecision" text-rendering="geometricPrecision" image-rendering="optimizeQuality" fill-rule="evenodd" clip-rule="evenodd"
viewBox="0 0 5.28 1.59"
 xmlns:xlink="http://www.w3.org/1999/xlink"
 xmlns:xodm="http://www.corel.com/coreldraw/odm/2003">
 <g id="Camada_x0020_1">
  <metadata id="CorelCorpID_0Corel-Layer"/>
  <path fill="white" fill-rule="nonzero" d="M4.37 1.01l0.01 -0.04c0.02,-0.04 0.01,-0.08 -0.01,-0.12 -0.03,-0.03 -0.07,-0.05 -0.11,-0.05l-0.91 -0.01c0,0 -0.01,0 -0.01,-0.01 -0.01,0 -0.01,-0.01 0,-0.01 0,-0.01 0.01,-0.02 0.02,-0.02l0.91 -0.01c0.12,-0.01 0.22,-0.08 0.27,-0.18l0.05 -0.12c0,-0.01 0,-0.01 0,-0.01l0 -0.01c-0.07,-0.29 -0.39,-0.47 -0.71,-0.41 -0.2,0.04 -0.37,0.18 -0.43,0.36 -0.06,-0.04 -0.12,-0.06 -0.19,-0.05 -0.13,0.01 -0.23,0.1 -0.24,0.21 -0.01,0.03 0,0.06 0,0.09 -0.2,0 -0.36,0.16 -0.36,0.34 0,0.02 0,0.04 0,0.05 0,0.01 0.01,0.02 0.02,0.02l1.67 0c0.01,0 0.02,-0.01 0.02,-0.02l0 0z"/>
  <path fill="white" fill-rule="nonzero" d="M4.67 0.45l-0.02 0 -0.01 0c0,0 0,0 -0.01,0l-0.03 0.12c-0.02,0.04 -0.01,0.08 0.01,0.12 0.03,0.03 0.07,0.05 0.12,0.05l0.19 0.01c0.01,0 0.01,0 0.01,0.01 0.01,0 0.01,0.01 0,0.01 0,0.01 -0.01,0.02 -0.02,0.02l-0.2 0.01c-0.12,0.01 -0.22,0.08 -0.26,0.18l-0.02 0.03c0,0.01 0,0.01 0.01,0.02 0,0 0,0 0,0l0.69 0c0.01,0 0.01,-0.01 0.02,-0.02 0.01,-0.03 0.01,-0.08 0.01,-0.12 0.01,-0.24 -0.21,-0.44 -0.49,-0.44z"/>
  <path fill="white" fill-rule="nonzero" d="M5.23 1.29c-0.02,0 -0.04,-0.02 -0.04,-0.04 0,-0.02 0.02,-0.04 0.04,-0.04 0.03,0 0.05,0.02 0.05,0.04 0,0.02 -0.02,0.04 -0.05,0.04zm0 -0.07c-0.02,0 -0.03,0.01 -0.03,0.03 0,0.02 0.01,0.03 0.03,0.03 0.02,0 0.04,-0.01 0.04,-0.03l0 0c0,-0.02 -0.02,-0.03 -0.04,-0.03zm0.03 0.05l-0.01 0 -0.01 -0.01 -0.01 0 0 0.01 -0.01 0 0 -0.04 0.02 0c0.01,0 0.02,0 0.02,0.01 0,0 0,0 0,0 0,0.01 -0.01,0.01 -0.01,0.02l0.01 0.01zm-0.02 -0.02c0,0 0.01,0 0.01,-0.01 0,0 0,0 0,0 0,0 -0.01,0 -0.01,0l-0.01 0 0 0.01 0.01 0z"/>
  <polygon fill="white" fill-rule="nonzero" points="0.57,1.21 0.68,1.21 0.68,1.49 0.88,1.49 0.88,1.58 0.57,1.58 "/>
  <g>
   <path fill="white" fill-rule="nonzero" d="M1 1.39l0 0c0,-0.1 0.1,-0.19 0.22,-0.19 0,0 0,0 0,0 0.12,0 0.22,0.08 0.22,0.19 0,0 0,0 0,0 0,0.11 -0.1,0.2 -0.21,0.2 -0.01,0 -0.01,0 -0.01,0 -0.12,0 -0.22,-0.08 -0.22,-0.19 0,0 0,0 0,-0.01l0 0zm0.33 0l0 0c0,-0.05 -0.05,-0.1 -0.11,-0.1 0,0 0,0 0,0 -0.06,0 -0.1,0.05 -0.1,0.1 0,0 0,0 0,0 -0.01,0.06 0.04,0.1 0.1,0.1 0,0 0,0 0,0 0.06,0 0.11,-0.04 0.11,-0.09 0,0 0,-0.01 0,-0.01l0 0z"/>
  </g>
  <path fill="white" fill-rule="nonzero" d="M1.58 1.42l0 -0.21 0.12 0 0 0.2c0,0.06 0.03,0.08 0.07,0.08 0.05,0 0.08,-0.02 0.08,-0.07l0 -0.21 0.12 0 0 0.2c0,0.12 -0.08,0.18 -0.2,0.18 -0.12,0 -0.19,-0.06 -0.19,-0.17l0 0z"/>
  <path fill="white" fill-rule="nonzero" d="M2.14 1.21l0.16 0c0.15,0 0.23,0.07 0.23,0.18 0,0.11 -0.08,0.19 -0.23,0.19l-0.16 0 0 -0.37zm0.16 0.28c0.06,0 0.11,-0.03 0.11,-0.08 0.01,-0.01 0.01,-0.01 0.01,-0.02 0,-0.05 -0.05,-0.09 -0.1,-0.09 -0.01,0 -0.01,0 -0.02,0l-0.05 0 0 0.19 0.05 0z"/>
  <polygon fill="white" fill-rule="nonzero" points="2.7,1.21 3.03,1.21 3.03,1.3 2.81,1.3 2.81,1.36 3.01,1.36 3.01,1.45 2.81,1.45 2.81,1.58 2.7,1.58 "/>
  <polygon fill="white" fill-rule="nonzero" points="3.19,1.21 3.3,1.21 3.3,1.49 3.5,1.49 3.5,1.58 3.19,1.58 "/>
  <path fill="white" fill-rule="nonzero" d="M3.8 1.2l0.11 0 0.17 0.38 -0.12 0 -0.03 -0.07 -0.16 0 -0.03 0.07 -0.12 0 0.18 -0.38zm0.09 0.23l-0.04 -0.1 -0.05 0.1 0.09 0z"/>
  <path fill="white" fill-rule="nonzero" d="M4.23 1.21l0.2 0c0.04,-0.01 0.09,0.01 0.13,0.04 0.02,0.02 0.04,0.05 0.04,0.09 0,0.05 -0.04,0.09 -0.09,0.11l0.1 0.13 -0.13 0 -0.08 -0.11 -0.05 0 0 0.11 -0.12 0 0 -0.37zm0.19 0.18c0.04,0 0.06,-0.02 0.06,-0.05 0,-0.03 -0.02,-0.04 -0.06,-0.04l-0.07 0 0 0.09 0.07 0z"/>
  <polygon fill="white" fill-rule="nonzero" points="4.76,1.21 5.09,1.21 5.09,1.29 4.87,1.29 4.87,1.35 5.07,1.35 5.07,1.43 4.87,1.43 4.87,1.49 5.1,1.49 5.1,1.58 4.76,1.58 "/>
  <path fill="white" fill-rule="nonzero" d="M0.32 1.44c-0.02,0.03 -0.06,0.05 -0.1,0.05 -0.06,0 -0.1,-0.04 -0.1,-0.09 0,-0.01 0,-0.01 0,-0.01 -0.01,-0.05 0.04,-0.09 0.1,-0.1 0.04,0 0.08,0.03 0.1,0.07l0.12 0c-0.02,-0.1 -0.11,-0.16 -0.22,-0.16 -0.12,0 -0.22,0.08 -0.22,0.19 0,0 0,0 0,0 0,0.11 0.1,0.2 0.21,0.2 0.01,0 0.01,0 0.01,0 0.1,0 0.19,-0.06 0.22,-0.15l-0.12 0z"/>
 </g>
</svg>
