<svg xmlns="http://www.w3.org/2000/svg" xmlns:xlink="http://www.w3.org/1999/xlink" xml:space="preserve" width="23.4521mm" height="28.1078mm" fill-rule="evenodd" clip-rule="evenodd" viewBox="0 0 2098712 2515347">
 <g id="Camada_x0020_1">
  <metadata id="CorelCorpID_0Corel-Layer"></metadata>
  <g id="_2018457073248">
   <path fill="#A9ABAE" d="M492281 1253c-35483,-8385 -146494,27733 -176205,41228 -68835,31267 -142869,81891 -189404,140095 -16511,20654 -29496,37093 -45622,62508 -75913,119674 -79806,218766 -79806,354673l0 1091931c0,109570 -7553,323280 14587,419919 28395,123970 96227,210023 163049,272039 32941,30578 83708,62087 133787,85149 31133,14336 135406,49353 173457,42248 4904,-1038 53729,4098 67689,4089l986047 0c11159,0 24234,618 35169,-250 11276,-904 21361,-4385 33451,-3660 34203,8546 145322,-27751 174111,-40870 54866,-25003 96604,-52217 134556,-84353 76889,-65103 141536,-170978 165242,-272369 22784,-97472 15061,-309231 15061,-419428l0 -1091930c0,-178988 -12027,-277426 -125446,-419669 -13388,-16779 -38472,-42096 -55251,-55403 -57443,-45550 -60548,-49926 -134225,-84621 -29218,-13755 -140954,-49595 -176115,-41326l-1114132 0zm-281399 1982286c0,181404 138592,321419 320291,321419l1036357 0c181493,0 320282,-139944 320282,-321419l0 -622058c-559540,0 -1119081,0 -1678613,0l1683 622058zm0 -832161l1676107 0c823,-148651 823,-297301 823,-445943 0,-104658 13737,-214828 -25728,-307270 -21146,-49551 -55913,-92917 -98653,-125223 -20985,-15875 -41290,-28985 -69685,-40986 -65551,-27706 -123835,-24054 -199167,-24054l-890464 0c-105928,0 -181099,-2980 -267474,63913l-30212 25164c-6524,5772 -21075,21970 -27509,30301 -85883,111119 -68038,218623 -68038,378155 0,148642 0,297292 0,445943z"></path>
   <path fill="#A9ABAE" d="M940523 522814c-96558,7920 -134135,117750 -66427,181825 34122,32278 72468,27849 127459,27849 49166,0 109472,3114 157269,-394 95628,-7025 133831,-121768 65604,-181708 -36637,-32189 -70133,-28001 -127289,-28001 -48163,0 -110475,-3347 -156616,429z"></path>
   <path fill="#A9ABAE" d="M940523 1780801c-96558,7920 -134108,117777 -66427,181815 34122,32288 72468,27858 127459,27858 49166,0 109472,3115 157269,-393 95691,-7034 133786,-121813 65604,-181708 -36637,-32199 -70133,-28010 -127289,-28010 -48163,0 -110475,-3347 -156616,438z"></path>
  </g>
 </g>
</svg>