<?xml version="1.0" encoding="UTF-8"?>
<!DOCTYPE svg PUBLIC "-//W3C//DTD SVG 1.1//EN" "http://www.w3.org/Graphics/SVG/1.1/DTD/svg11.dtd">
<!-- Creator: CorelDRAW 2021 (64-Bit) -->
<svg xmlns="http://www.w3.org/2000/svg" xml:space="preserve" width="32px" height="38px" version="1.1" shape-rendering="geometricPrecision" text-rendering="geometricPrecision" image-rendering="optimizeQuality" fill-rule="evenodd" clip-rule="evenodd"
viewBox="0 0 35.17 42.15"
 xmlns:xlink="http://www.w3.org/1999/xlink"
 xmlns:xodm="http://www.corel.com/coreldraw/odm/2003">
 <g id="Camada_x0020_1">
  <metadata id="CorelCorpID_0Corel-Layer"/>
  <g id="_1588967239296">
   <path fill="#A9ABAE" d="M8.25 0.02c-0.6,-0.14 -2.46,0.47 -2.95,0.69 -1.16,0.53 -2.4,1.37 -3.18,2.35 -0.27,0.35 -0.49,0.62 -0.76,1.05 -1.27,2 -1.34,3.66 -1.34,5.94l0 18.3c0,1.83 -0.13,5.41 0.25,7.03 0.47,2.08 1.61,3.52 2.73,4.56 0.55,0.51 1.4,1.04 2.24,1.43 0.52,0.24 2.27,0.83 2.91,0.71 0.08,-0.02 0.9,0.07 1.13,0.07l16.52 0c0.19,0 0.41,0.01 0.59,-0.01 0.19,-0.01 0.36,-0.07 0.56,-0.06 0.57,0.14 2.44,-0.47 2.92,-0.69 0.92,-0.41 1.62,-0.87 2.25,-1.41 1.29,-1.09 2.38,-2.86 2.77,-4.56 0.38,-1.64 0.26,-5.18 0.26,-7.03l0 -18.3c0,-3 -0.21,-4.65 -2.11,-7.03 -0.22,-0.28 -0.64,-0.7 -0.92,-0.93 -0.97,-0.76 -1.02,-0.83 -2.25,-1.41 -0.49,-0.24 -2.36,-0.84 -2.95,-0.7l-18.67 0zm-4.72 33.22c0,3.04 2.32,5.38 5.37,5.38l17.37 0c3.04,0 5.36,-2.34 5.36,-5.38l0 -10.43c-9.37,0 -18.75,0 -28.13,0l0.03 10.43zm0 -13.95l28.09 0c0.01,-2.49 0.01,-4.98 0.01,-7.47 0,-1.75 0.23,-3.6 -0.43,-5.15 -0.35,-0.83 -0.94,-1.55 -1.65,-2.09 -0.35,-0.27 -0.69,-0.49 -1.17,-0.69 -1.1,-0.47 -2.07,-0.41 -3.34,-0.41l-14.92 0c-1.77,0 -3.03,-0.04 -4.48,1.08l-0.51 0.42c-0.11,0.09 -0.35,0.37 -0.46,0.5 -1.44,1.87 -1.14,3.67 -1.14,6.34 0,2.49 0,4.98 0,7.47z"/>
   <path fill="#A9ABAE" d="M15.76 8.76c-1.62,0.13 -2.25,1.97 -1.11,3.05 0.57,0.54 1.21,0.46 2.13,0.46 0.83,0 1.84,0.06 2.64,0 1.6,-0.12 2.24,-2.04 1.1,-3.05 -0.62,-0.54 -1.18,-0.47 -2.14,-0.47 -0.8,0 -1.85,-0.05 -2.62,0.01z"/>
   <path fill="#A9ABAE" d="M15.76 29.84c-1.62,0.13 -2.25,1.97 -1.11,3.05 0.57,0.54 1.21,0.46 2.13,0.46 0.83,0 1.84,0.06 2.64,0 1.6,-0.12 2.24,-2.04 1.1,-3.05 -0.62,-0.54 -1.18,-0.47 -2.14,-0.47 -0.8,0 -1.85,-0.05 -2.62,0.01z"/>
  </g>
 </g>
</svg>
