<?xml version="1.0" encoding="UTF-8"?>
<!DOCTYPE svg PUBLIC "-//W3C//DTD SVG 1.1//EN" "http://www.w3.org/Graphics/SVG/1.1/DTD/svg11.dtd">
<!-- Creator: CorelDRAW 2021 (64-Bit) -->
<svg xmlns="http://www.w3.org/2000/svg" xml:space="preserve" width="38px" height="38px" version="1.1" shape-rendering="geometricPrecision" text-rendering="geometricPrecision" image-rendering="optimizeQuality" fill-rule="evenodd" clip-rule="evenodd"
viewBox="0 0 1.92 1.92"
 xmlns:xlink="http://www.w3.org/1999/xlink"
 xmlns:xodm="http://www.corel.com/coreldraw/odm/2003">
 <g id="Camada_x0020_1">
  <metadata id="CorelCorpID_0Corel-Layer"/>
  <g id="_1589024497536">
   <path fill="#A9ABAE" d="M1.2 1.61c0,-0.05 -0.01,-0.23 0,-0.28 0.01,-0.07 0.07,-0.12 0.15,-0.13 0.03,0 0.25,0 0.27,0 0.08,0.01 0.13,0.07 0.14,0.15 0,0.05 0,0.23 0,0.28 -0.01,0.07 -0.07,0.12 -0.15,0.13 -0.05,0 -0.23,0 -0.28,0 -0.07,-0.01 -0.12,-0.07 -0.13,-0.15zm0.15 -0.57c-0.12,0.01 -0.22,0.07 -0.27,0.17 -0.03,0.06 -0.04,0.1 -0.04,0.18 0,0.2 -0.03,0.38 0.17,0.49 0.05,0.03 0.11,0.04 0.18,0.04 0.07,0 0.15,0 0.22,0 0.14,-0.01 0.22,-0.08 0.27,-0.17 0.03,-0.06 0.04,-0.11 0.04,-0.18 0,-0.07 0,-0.15 0,-0.22 -0.01,-0.14 -0.09,-0.22 -0.17,-0.27 -0.05,-0.03 -0.11,-0.04 -0.18,-0.04 -0.07,0 -0.15,0 -0.22,0z"/>
   <path fill="#A9ABAE" d="M0.29 0.16c0.04,0 0.23,0 0.28,0 0.07,0.01 0.13,0.06 0.15,0.13 0.01,0.04 0,0.22 0,0.28 -0.01,0.07 -0.06,0.13 -0.13,0.15 -0.05,0.01 -0.22,0 -0.28,0 -0.07,-0.01 -0.13,-0.06 -0.15,-0.13 -0.01,-0.04 0,-0.22 0,-0.27 0.01,-0.08 0.06,-0.14 0.13,-0.16zm-0.01 -0.15c-0.07,-0.01 -0.16,0.06 -0.19,0.09 -0.03,0.03 -0.06,0.08 -0.08,0.13 0,0.02 0,0.04 -0.01,0.06l0 0.3c0.01,0.03 0.01,0.11 0.09,0.2 0.11,0.1 0.22,0.09 0.35,0.09 0.13,0 0.24,0.01 0.34,-0.09 0.11,-0.11 0.1,-0.2 0.1,-0.34 0,-0.14 0.01,-0.24 -0.09,-0.35 -0.03,-0.03 -0.13,-0.1 -0.2,-0.09 -0.02,0 -0.02,-0.01 -0.04,-0.01l-0.23 0c-0.02,0 -0.02,0.01 -0.04,0.01z"/>
   <path fill="#A9ABAE" d="M0.31 1.2c0.05,0 0.22,0 0.27,0 0.07,0.01 0.13,0.07 0.14,0.14 0,0.06 0,0.23 0,0.28 -0.01,0.08 -0.07,0.13 -0.14,0.14 -0.05,0 -0.23,0 -0.28,0 -0.07,-0.01 -0.13,-0.07 -0.14,-0.14 0,-0.06 0,-0.23 0,-0.28 0.01,-0.07 0.07,-0.13 0.15,-0.14zm-0.31 0.13l0 0.3c0.01,0.03 0.01,0.07 0.05,0.15 0.03,0.04 0.06,0.07 0.11,0.1 0.1,0.06 0.22,0.04 0.35,0.04 0.15,0 0.23,-0.03 0.29,-0.11 0.09,-0.1 0.08,-0.18 0.08,-0.33 0,-0.15 0,-0.22 -0.07,-0.32 -0.03,-0.04 -0.08,-0.07 -0.12,-0.09 -0.06,-0.03 -0.11,-0.03 -0.17,-0.03 -0.17,0 -0.36,-0.02 -0.46,0.14 -0.06,0.08 -0.05,0.12 -0.06,0.15z"/>
   <path fill="#A9ABAE" d="M1.36 0.4c-0.09,0.01 -0.24,-0.01 -0.28,0.01 -0.05,0.04 -0.05,0.1 -0.01,0.14 0.04,0.03 0.2,0 0.29,0.01 0,0.06 0,0.14 0,0.2 0,0.03 0,0.06 0.01,0.09 0.04,0.04 0.1,0.04 0.13,0 0.02,-0.03 0.02,-0.05 0.02,-0.09 0,-0.06 0,-0.14 0,-0.2 0.05,0 0.14,0 0.2,0 0.04,0 0.12,0 0.12,-0.08 0,-0.03 -0.02,-0.05 -0.04,-0.06 -0.02,-0.02 -0.05,-0.02 -0.08,-0.02 -0.06,0 -0.15,0.01 -0.2,0 0,-0.06 0,-0.13 0,-0.2 0,-0.03 0,-0.06 -0.01,-0.08 -0.04,-0.05 -0.1,-0.05 -0.13,-0.01 -0.02,0.03 -0.02,0.05 -0.02,0.09 0,0.06 0,0.14 0,0.2z"/>
  </g>
 </g>
</svg>
