<?xml version="1.0" encoding="UTF-8"?>
<!DOCTYPE svg PUBLIC "-//W3C//DTD SVG 1.1//EN" "http://www.w3.org/Graphics/SVG/1.1/DTD/svg11.dtd">
<!-- Creator: CorelDRAW 2021 (64-Bit) -->
<svg xmlns="http://www.w3.org/2000/svg" xml:space="preserve" width="26px" height="26px" version="1.1" shape-rendering="geometricPrecision" text-rendering="geometricPrecision" image-rendering="optimizeQuality" fill-rule="evenodd" clip-rule="evenodd"
viewBox="0 0 1.95 1.95"
 xmlns:xlink="http://www.w3.org/1999/xlink"
 xmlns:xodm="http://www.corel.com/coreldraw/odm/2003">
 <g id="Camada_x0020_1">
  <metadata id="CorelCorpID_0Corel-Layer"/>
  <path fill="#E5E6E7" fill-rule="nonzero" d="M1.39 0l-0.84 0c-0.3,0 -0.55,0.25 -0.55,0.56l0 0.84c0,0.3 0.25,0.55 0.55,0.55l0.84 0c0.31,0 0.56,-0.25 0.56,-0.55l0 -0.84c0,-0.31 -0.25,-0.56 -0.56,-0.56zm0.39 1.4c0,0.21 -0.17,0.38 -0.39,0.38l-0.35 0 0 -0.59 0.23 0 0.01 -0.12 0.01 -0.19 -0.24 0 0 -0.12c0,-0.06 0.04,-0.08 0.07,-0.08l0.17 0 0 -0.26 -0.24 0c-0.26,0 -0.32,0.2 -0.32,0.32l0 0.14 -0.15 0 0 0.18 0 0.13 0.15 0 0 0.59 -0.18 0c-0.21,0 -0.38,-0.17 -0.38,-0.38l0 -0.84c0,-0.22 0.17,-0.39 0.38,-0.39l0.84 0c0.22,0 0.39,0.17 0.39,0.39l0 0.84z"/>
 </g>
</svg>
