<?xml version="1.0" encoding="UTF-8"?>
<!DOCTYPE svg PUBLIC "-//W3C//DTD SVG 1.1//EN" "http://www.w3.org/Graphics/SVG/1.1/DTD/svg11.dtd">
<!-- Creator: CorelDRAW 2021 (64-Bit) -->
<svg xmlns="http://www.w3.org/2000/svg" xml:space="preserve" width="89px" height="16px" version="1.1" shape-rendering="geometricPrecision" text-rendering="geometricPrecision" image-rendering="optimizeQuality" fill-rule="evenodd" clip-rule="evenodd"
viewBox="0 0 25.32 4.49"
 xmlns:xlink="http://www.w3.org/1999/xlink"
 xmlns:xodm="http://www.corel.com/coreldraw/odm/2003">
 <g id="Camada_x0020_1">
  <metadata id="CorelCorpID_0Corel-Layer"/>
  <g id="_1552927596304">
   <path fill="white" fill-rule="nonzero" d="M1.57 0.7c0.33,0.01 0.6,0.25 0.6,0.56 -0.01,0.3 -0.29,0.54 -0.62,0.54 -0.33,-0.01 -0.6,-0.26 -0.59,-0.56 0,-0.3 0.27,-0.54 0.6,-0.54l0.01 0z"/>
   <path fill="white" fill-rule="nonzero" d="M2.48 0c-1.37,0 -2.48,1.01 -2.48,2.24 0,1.24 1.11,2.25 2.48,2.25 1.37,0 2.48,-1.01 2.48,-2.25 0,-1.23 -1.11,-2.24 -2.48,-2.24l0 0zm0 3.54c-0.8,0 -1.45,-0.58 -1.45,-1.3 0,-0.19 0.04,-0.37 0.12,-0.54 -0.27,-0.21 -0.31,-0.58 -0.07,-0.83 0.23,-0.24 0.64,-0.28 0.91,-0.07 0.06,0.05 0.11,0.1 0.14,0.16 0.12,-0.03 0.24,-0.04 0.36,-0.04 0.8,0.02 1.43,0.63 1.4,1.36 -0.03,0.69 -0.64,1.24 -1.4,1.26l-0.01 0z"/>
   <path fill="white" fill-rule="nonzero" d="M24.6 2.87c0,0.18 0.16,0.32 0.36,0.32 0.2,0 0.36,-0.14 0.36,-0.32 0,-0.18 -0.16,-0.33 -0.36,-0.33 -0.2,0.01 -0.35,0.15 -0.36,0.33zm0.04 0c0,-0.16 0.14,-0.29 0.32,-0.29 0.17,0 0.32,0.13 0.32,0.29 0,0.16 -0.15,0.28 -0.32,0.28 -0.17,0 -0.31,-0.13 -0.32,-0.28z"/>
   <path fill="white" fill-rule="nonzero" d="M24.85 2.72l0.13 0c0.02,0 0.06,0 0.06,0.01 0,0.02 0.02,0.02 0.02,0.04 0,0.02 0,0.02 -0.02,0.04 0,0.01 -0.01,0.02 -0.02,0.02l-0.19 0 0 -0.11 0.02 0zm0 0.34l0 -0.18 0.09 0c0.01,0 0.02,0.01 0.02,0.02l0.02 0.02c0.01,0.02 0.02,0.04 0.04,0.05l0.07 0.08 0.06 0 -0.06 -0.09c-0.03,-0.02 -0.03,-0.04 -0.05,-0.06 -0.01,-0.01 -0.02,-0.02 -0.04,-0.02 0.03,0 0.06,-0.01 0.09,-0.04 0.02,-0.02 0.02,-0.04 0.02,-0.07 0,-0.03 -0.01,-0.05 -0.02,-0.06 -0.03,-0.02 -0.03,-0.04 -0.05,-0.04 -0.02,0 -0.04,-0.02 -0.08,-0.02l-0.2 0 0 0.39 0.09 0 0 0.02z"/>
   <path fill="white" fill-rule="nonzero" d="M8.08 3.1c-0.29,0.08 -0.61,0.13 -0.92,0.13 -0.4,0.03 -0.8,-0.09 -1.11,-0.32 -0.23,-0.21 -0.36,-0.49 -0.36,-0.78 0,-0.71 0.63,-1.16 1.52,-1.16 0.27,-0.01 0.53,0.03 0.78,0.12l-0.14 0.41c-0.21,-0.08 -0.44,-0.12 -0.67,-0.12 -0.5,0 -0.88,0.25 -0.88,0.71 0,0.47 0.36,0.73 0.88,0.73 0.12,0 0.23,-0.01 0.34,-0.04l0 -0.44 -0.42 0 0 -0.4 0.98 0 0 1.16z"/>
   <polygon fill="white" fill-rule="nonzero" points="8.57,0.85 9.03,0.85 9.03,3.21 8.57,3.21 "/>
   <path fill="white" fill-rule="nonzero" d="M10.4 2.94c-0.3,0 -0.51,-0.21 -0.51,-0.53 0,-0.28 0.17,-0.53 0.51,-0.53 0.33,0 0.48,0.26 0.48,0.53 0.02,0.34 -0.19,0.53 -0.48,0.53zm0 0.31c0.5,0 0.98,-0.29 0.98,-0.86 0,-0.47 -0.38,-0.82 -0.97,-0.82 -0.59,0 -1.01,0.35 -1.01,0.86 0.02,0.46 0.44,0.83 0.96,0.82 0.01,0 0.02,0 0.04,0z"/>
   <path fill="white" fill-rule="nonzero" d="M12.25 2.31c-0.01,-0.04 0,-0.08 0.02,-0.11 0.05,-0.2 0.24,-0.33 0.46,-0.33 0.34,0 0.5,0.23 0.5,0.52 0,0.32 -0.21,0.51 -0.5,0.51 -0.21,0 -0.4,-0.12 -0.46,-0.3l0 -0.29 -0.02 0zm-0.47 0.44c0.01,0.16 0,0.31 -0.02,0.46l0.39 0 0.02 -0.25c0.14,0.19 0.38,0.3 0.63,0.29 0.49,0 0.89,-0.35 0.89,-0.79 0,-0.02 0,-0.05 0,-0.07 0,-0.49 -0.36,-0.82 -0.82,-0.82 -0.25,0 -0.48,0.09 -0.63,0.27l0 -0.99 -0.46 0 0 1.9z"/>
   <path fill="white" fill-rule="nonzero" d="M15.12 2.62c0,0.03 -0.01,0.07 -0.02,0.1 -0.07,0.14 -0.22,0.23 -0.39,0.22 -0.13,0.02 -0.26,-0.06 -0.27,-0.18 -0.01,-0.01 -0.01,-0.03 -0.01,-0.04 0,-0.23 0.32,-0.31 0.68,-0.29l0 0.19 0.01 0zm0.44 -0.36c0,-0.35 -0.17,-0.68 -0.78,-0.68 -0.24,0 -0.48,0.05 -0.7,0.15l0.09 0.27c0.16,-0.09 0.34,-0.13 0.52,-0.14 0.36,0 0.39,0.19 0.39,0.29l0 0.02c-0.73,0 -1.13,0.21 -1.13,0.61 0.01,0.27 0.27,0.49 0.57,0.47 0.01,0 0.01,0 0.02,0 0.22,0.02 0.44,-0.07 0.58,-0.23l0.02 0 0.04 0.19 0.42 0c-0.01,-0.13 -0.02,-0.26 -0.02,-0.4l0 -0.55 -0.02 0z"/>
   <polygon fill="white" fill-rule="nonzero" points="16.07,0.85 16.53,0.85 16.53,3.21 16.07,3.21 "/>
   <path fill="white" fill-rule="nonzero" d="M17.1 2.67c0.22,0.09 0.45,0.14 0.69,0.15 0.28,0 0.4,-0.1 0.4,-0.25 0,-0.15 -0.13,-0.21 -0.45,-0.28 -0.44,-0.12 -0.73,-0.31 -0.73,-0.67 0,-0.36 0.38,-0.67 0.97,-0.67 0.24,0 0.47,0.04 0.7,0.12l-0.15 0.41c-0.18,-0.07 -0.37,-0.11 -0.57,-0.11 -0.25,0 -0.38,0.09 -0.38,0.21 0,0.15 0.15,0.21 0.49,0.3 0.46,0.14 0.69,0.35 0.69,0.67 0,0.35 -0.32,0.68 -1.05,0.68 -0.26,0.01 -0.52,-0.05 -0.76,-0.15l0.15 -0.41z"/>
   <path fill="white" fill-rule="nonzero" d="M19.2 1.61l0.46 0 0 1.6 -0.46 0 0 -1.6zm0.24 -0.25c-0.14,0.01 -0.27,-0.09 -0.27,-0.22 0,0 0,0 0,0 0,-0.14 0.12,-0.25 0.27,-0.25 0.15,0 0.27,0.11 0.27,0.25 0,0.13 -0.12,0.23 -0.26,0.23 0,0 -0.01,0 -0.01,-0.01z"/>
   <path fill="white" fill-rule="nonzero" d="M21.47 2.47c0,0.05 0,0.1 -0.02,0.15 -0.06,0.16 -0.23,0.27 -0.42,0.27 -0.28,-0.01 -0.49,-0.22 -0.48,-0.47 0,-0.01 0,-0.02 0,-0.03 0,-0.34 0.21,-0.51 0.48,-0.51 0.2,0 0.37,0.11 0.42,0.28 0,0.04 0.02,0.08 0.02,0.12l0 0.19zm0.46 -0.42c0,-0.15 0,-0.29 0.02,-0.44l-0.39 0 -0.02 0.23c-0.12,-0.18 -0.34,-0.28 -0.56,-0.27 -0.5,0.01 -0.89,0.37 -0.89,0.81 0,0.02 0,0.03 0,0.05 -0.02,0.41 0.32,0.76 0.78,0.78 0.01,0 0.03,0 0.04,0 0.22,0.01 0.44,-0.08 0.57,-0.25l0 0.14c0.02,0.25 -0.18,0.47 -0.46,0.49 -0.03,0.01 -0.07,0 -0.11,0 -0.2,0 -0.39,-0.05 -0.57,-0.13l-0.11 0.32c0.2,0.1 0.43,0.15 0.67,0.15 0.26,0.02 0.53,-0.05 0.74,-0.2 0.21,-0.15 0.27,-0.42 0.27,-0.74l0 -0.94 0.02 0z"/>
   <path fill="white" fill-rule="nonzero" d="M22.46 2.09c0,-0.16 0,-0.32 -0.02,-0.48l0.39 0 0.02 0.27 0.02 0c0.14,-0.19 0.37,-0.31 0.61,-0.31 0.32,0 0.7,0.18 0.7,0.73l0 0.91 -0.46 0 0 -0.87c0,-0.25 -0.11,-0.44 -0.38,-0.44 -0.17,0 -0.32,0.1 -0.39,0.25 -0.02,0.03 -0.03,0.07 -0.02,0.11l0 0.94 -0.47 0 0 -1.11z"/>
  </g>
 </g>
</svg>
