<?xml version="1.0" encoding="UTF-8"?>
<!DOCTYPE svg PUBLIC "-//W3C//DTD SVG 1.1//EN" "http://www.w3.org/Graphics/SVG/1.1/DTD/svg11.dtd">
<!-- Creator: CorelDRAW 2021 (64-Bit) -->
<svg xmlns="http://www.w3.org/2000/svg" xml:space="preserve" width="81px" height="17px" version="1.1" shape-rendering="geometricPrecision" text-rendering="geometricPrecision" image-rendering="optimizeQuality" fill-rule="evenodd" clip-rule="evenodd"
viewBox="0 0 11.55 2.37"
 xmlns:xlink="http://www.w3.org/1999/xlink"
 xmlns:xodm="http://www.corel.com/coreldraw/odm/2003">
 <g id="Camada_x0020_1">
  <metadata id="CorelCorpID_0Corel-Layer"/>
  <g id="_1552929010512">
   <path fill="white" fill-rule="nonzero" d="M2.09 0.46c-0.12,0 -0.22,0.09 -0.22,0.2l0 0c0,0.11 0.1,0.2 0.22,0.2 0.12,0 0.22,-0.09 0.22,-0.2 0,-0.11 -0.1,-0.2 -0.22,-0.2z"/>
   <path fill="white" fill-rule="nonzero" d="M2.09 1.51c-0.12,0 -0.22,0.09 -0.22,0.2l0 0c0,0.11 0.1,0.2 0.22,0.2 0.12,-0.01 0.22,-0.09 0.22,-0.2 0,-0.11 -0.1,-0.2 -0.22,-0.2z"/>
   <path fill="white" fill-rule="nonzero" d="M2.09 0.99c-0.12,0 -0.22,0.09 -0.22,0.19l0 0.01c0,0.11 0.1,0.19 0.22,0.19 0.12,0 0.22,-0.09 0.22,-0.2 0,-0.11 -0.1,-0.19 -0.22,-0.19z"/>
   <path fill="white" fill-rule="nonzero" d="M1.6 0.57c0.11,0 0.19,-0.08 0.19,-0.17 0,-0.1 -0.08,-0.17 -0.19,-0.17 -0.1,0 -0.19,0.07 -0.19,0.17 0,0.09 0.09,0.17 0.19,0.17z"/>
   <path fill="white" fill-rule="nonzero" d="M1.6 1.8c-0.11,0 -0.19,0.08 -0.19,0.17l0 0c0,0.1 0.09,0.18 0.19,0.17 0.11,0 0.19,-0.07 0.19,-0.17 0,-0.1 -0.08,-0.17 -0.19,-0.17z"/>
   <path fill="white" fill-rule="nonzero" d="M1.6 1.62c0.11,0 0.19,-0.07 0.19,-0.17 0,-0.1 -0.08,-0.17 -0.19,-0.17 -0.1,0 -0.19,0.07 -0.19,0.17 0,0.1 0.09,0.17 0.19,0.17z"/>
   <path fill="white" fill-rule="nonzero" d="M1.6 0.75c-0.11,0 -0.19,0.07 -0.19,0.17l0 0c0,0.1 0.09,0.17 0.19,0.17 0.11,0 0.19,-0.08 0.19,-0.17 0,-0.1 -0.08,-0.18 -0.19,-0.17z"/>
   <path fill="white" fill-rule="nonzero" d="M1.11 0c-0.09,0 -0.16,0.07 -0.16,0.15 0,0 0,0 0,0 0.01,0.08 0.08,0.14 0.17,0.14 0.09,0 0.16,-0.07 0.16,-0.15 -0.01,-0.08 -0.08,-0.14 -0.17,-0.14z"/>
   <path fill="white" fill-rule="nonzero" d="M1.11 2.08c-0.09,0 -0.16,0.06 -0.16,0.14l0 0.01c0.01,0.08 0.08,0.14 0.17,0.14 0.09,0 0.16,-0.07 0.16,-0.15 -0.01,-0.08 -0.08,-0.14 -0.17,-0.14z"/>
   <path fill="white" fill-rule="nonzero" d="M1.11 2.08c0,0 0,0 0,0 0,0 0,0 0,0l0 0z"/>
   <path fill="white" fill-rule="nonzero" d="M0.95 1.7l0 0.01c0.01,0.08 0.08,0.14 0.17,0.14 0.09,0 0.16,-0.07 0.16,-0.15 -0.01,-0.08 -0.08,-0.14 -0.17,-0.14 -0.09,0 -0.16,0.06 -0.16,0.14z"/>
   <path fill="white" fill-rule="nonzero" d="M1.11 1.56c0,0 0,0 0,0 0,0 0,0 0,0l0 0z"/>
   <path fill="white" fill-rule="nonzero" d="M1.11 1.04c-0.09,0 -0.16,0.06 -0.16,0.14l0 0.01c0.01,0.08 0.08,0.14 0.17,0.14 0.09,0 0.16,-0.07 0.16,-0.15 -0.01,-0.08 -0.08,-0.14 -0.17,-0.14z"/>
   <path fill="white" fill-rule="nonzero" d="M1.11 1.04c0,0 0,0 0,0 0,0 0,0 0,0l0 0z"/>
   <path fill="white" fill-rule="nonzero" d="M0.95 0.66l0 0.01c0.01,0.08 0.08,0.14 0.17,0.14 0.09,0 0.16,-0.07 0.16,-0.15 -0.01,-0.08 -0.08,-0.14 -0.17,-0.14 -0.09,0 -0.16,0.06 -0.16,0.14z"/>
   <path fill="white" fill-rule="nonzero" d="M1.11 0.52c0,0 0,0 0,0 0,0 0,0 0,0l0 0z"/>
   <path fill="white" fill-rule="nonzero" d="M0.61 0.28c-0.07,0 -0.14,0.05 -0.14,0.12 0,0.07 0.07,0.13 0.14,0.13 0.08,0 0.14,-0.06 0.14,-0.13 0,-0.07 -0.06,-0.12 -0.14,-0.12z"/>
   <path fill="white" fill-rule="nonzero" d="M0.61 1.84c-0.07,0 -0.14,0.05 -0.14,0.12l0 0c0,0.07 0.07,0.13 0.14,0.13 0.08,0 0.14,-0.06 0.14,-0.13 0,-0.07 -0.06,-0.12 -0.14,-0.12z"/>
   <path fill="white" fill-rule="nonzero" d="M0.61 1.32c-0.07,0 -0.14,0.06 -0.14,0.13 0,0.07 0.07,0.13 0.14,0.13 0.08,0 0.14,-0.06 0.14,-0.13 0,-0.07 -0.06,-0.13 -0.14,-0.13z"/>
   <path fill="white" fill-rule="nonzero" d="M0.61 0.79c-0.07,0 -0.14,0.06 -0.14,0.13 0,0.07 0.07,0.13 0.14,0.13 0.08,0 0.14,-0.06 0.14,-0.13 0,-0.07 -0.06,-0.13 -0.14,-0.13z"/>
   <path fill="white" fill-rule="nonzero" d="M0.12 0.56c-0.07,0 -0.12,0.04 -0.12,0.1 0,0.06 0.05,0.11 0.12,0.11 0.06,0 0.11,-0.05 0.11,-0.11 0,-0.06 -0.05,-0.1 -0.11,-0.1z"/>
   <path fill="white" fill-rule="nonzero" d="M0.12 1.6c-0.07,0 -0.12,0.05 -0.12,0.11 0,0.05 0.05,0.1 0.12,0.1 0.06,0 0.11,-0.05 0.11,-0.1 0,-0.06 -0.05,-0.11 -0.11,-0.11z"/>
   <path fill="white" fill-rule="nonzero" d="M0.12 1.08c-0.07,0 -0.12,0.05 -0.12,0.1 0,0.06 0.05,0.11 0.12,0.11 0.06,0 0.11,-0.05 0.11,-0.11 0,-0.05 -0.05,-0.1 -0.11,-0.1z"/>
   <polygon fill="white" fill-rule="nonzero" points="8.1,0.51 8.1,1.89 8.32,1.89 8.32,0.51 8.1,0.51 "/>
   <path fill="white" fill-rule="nonzero" d="M7.73 1.08c-0.04,-0.03 -0.08,-0.06 -0.13,-0.08 -0.13,-0.04 -0.28,-0.03 -0.4,0.04 -0.03,0.02 -0.06,0.04 -0.09,0.07 -0.21,0.18 -0.21,0.49 0,0.67 0.11,0.11 0.28,0.15 0.44,0.12 0.07,-0.02 0.13,-0.05 0.18,-0.1 0.02,0.1 -0.01,0.19 -0.07,0.27 -0.07,0.07 -0.18,0.1 -0.28,0.07 -0.09,-0.02 -0.16,-0.08 -0.19,-0.16 -0.07,0.03 -0.13,0.05 -0.2,0.08 0.05,0.11 0.15,0.19 0.26,0.24 0.11,0.04 0.22,0.04 0.32,0.02 0.11,-0.01 0.21,-0.07 0.28,-0.16 0.07,-0.09 0.1,-0.21 0.09,-0.32l0 -0.83 -0.21 0 0 0.07zm-0.01 0.5c-0.04,0.07 -0.1,0.12 -0.19,0.14 -0.1,0.02 -0.2,0 -0.27,-0.07 -0.1,-0.11 -0.11,-0.28 -0.01,-0.39 0.04,-0.05 0.09,-0.08 0.16,-0.09l-0.01 0c0.09,-0.03 0.19,0 0.25,0.06 0.1,0.09 0.12,0.23 0.07,0.35z"/>
   <path fill="white" fill-rule="nonzero" d="M5.15 0.98c-0.12,0.01 -0.24,0.06 -0.32,0.13 -0.01,0.01 -0.01,0.02 -0.02,0.02 -0.19,0.21 -0.16,0.51 0.06,0.68 0.11,0.08 0.25,0.11 0.39,0.1 0.15,-0.01 0.28,-0.08 0.37,-0.19 0.07,-0.1 0.11,-0.21 0.09,-0.33 -0.03,-0.26 -0.29,-0.44 -0.57,-0.41zm0.26 0.67c-0.04,0.04 -0.09,0.07 -0.15,0.08 -0.1,0.02 -0.2,-0.01 -0.27,-0.08 -0.1,-0.1 -0.11,-0.25 -0.03,-0.37 0.04,-0.06 0.11,-0.1 0.18,-0.11l0 0c0.09,-0.02 0.19,0 0.26,0.06 0.13,0.12 0.13,0.3 0.01,0.42z"/>
   <path fill="white" fill-rule="nonzero" d="M9.33 1.19c-0.03,-0.04 -0.06,-0.08 -0.1,-0.11 -0.19,-0.15 -0.48,-0.14 -0.65,0.03 -0.18,0.19 -0.18,0.46 -0.01,0.65 0.03,0.03 0.06,0.05 0.09,0.07 0.24,0.15 0.56,0.09 0.73,-0.12l-0.18 -0.11c-0.02,0.03 -0.05,0.05 -0.08,0.08 -0.08,0.05 -0.19,0.07 -0.28,0.03 -0.07,-0.02 -0.12,-0.07 -0.15,-0.12 0.23,-0.09 0.47,-0.18 0.7,-0.26 -0.02,-0.05 -0.05,-0.09 -0.07,-0.14zm-0.66 0.24c-0.01,-0.06 0.01,-0.12 0.05,-0.17l0 0c0.06,-0.07 0.15,-0.11 0.25,-0.1 0.07,0 0.13,0.04 0.16,0.1l-0.46 0.17z"/>
   <path fill="white" fill-rule="nonzero" d="M6.26 0.98l0 0.01c-0.26,0.03 -0.45,0.23 -0.44,0.47 0,0.14 0.07,0.27 0.19,0.36 0.11,0.08 0.25,0.11 0.38,0.1 0.15,-0.02 0.28,-0.09 0.37,-0.19 0.15,-0.19 0.13,-0.44 -0.05,-0.61 -0.11,-0.11 -0.28,-0.16 -0.45,-0.14zm0.29 0.67c-0.04,0.04 -0.1,0.07 -0.16,0.08 -0.09,0.02 -0.19,-0.01 -0.26,-0.07 -0.12,-0.12 -0.12,-0.29 0,-0.41 0.04,-0.04 0.09,-0.07 0.14,-0.08l0 0c0.1,-0.02 0.2,0.01 0.26,0.07 0.13,0.11 0.13,0.29 0.02,0.41z"/>
   <path fill="white" fill-rule="nonzero" d="M3.86 1.12l0 0.2 0.53 0c-0.01,0.09 -0.05,0.17 -0.11,0.23 -0.07,0.08 -0.17,0.13 -0.27,0.15 -0.16,0.04 -0.32,0.01 -0.46,-0.06 -0.03,-0.02 -0.05,-0.04 -0.08,-0.06 -0.24,-0.2 -0.25,-0.54 -0.03,-0.76 0.22,-0.21 0.58,-0.22 0.82,-0.02 0.04,-0.05 0.1,-0.09 0.15,-0.14 -0.14,-0.13 -0.33,-0.2 -0.53,-0.2 -0.22,-0.01 -0.44,0.07 -0.6,0.21 -0.11,0.1 -0.19,0.24 -0.22,0.38 -0.03,0.15 -0.01,0.31 0.06,0.45 0.1,0.17 0.26,0.31 0.46,0.37 0.16,0.05 0.32,0.06 0.48,0.03 0.19,-0.04 0.35,-0.14 0.45,-0.29 0.09,-0.15 0.13,-0.32 0.09,-0.49l-0.74 0z"/>
   <polygon fill="white" fill-rule="nonzero" points="11.36,1.89 11.55,1.89 11.55,0.57 11.36,0.57 "/>
   <path fill="white" fill-rule="nonzero" d="M10.42 0.57l-0.54 1.32 0.21 0 0.14 -0.36 0.61 0 0.14 0.36 0.21 0 -0.54 -1.32 -0.23 0zm-0.12 0.8l0.24 -0.57 0.23 0.57 -0.47 0z"/>
  </g>
 </g>
</svg>
