<?xml version="1.0" encoding="UTF-8"?>
<!DOCTYPE svg PUBLIC "-//W3C//DTD SVG 1.1//EN" "http://www.w3.org/Graphics/SVG/1.1/DTD/svg11.dtd">
<!-- Creator: CorelDRAW 2021 (64-Bit) -->
<svg xmlns="http://www.w3.org/2000/svg" xml:space="preserve" width="40px" height="40px" version="1.1" shape-rendering="geometricPrecision" text-rendering="geometricPrecision" image-rendering="optimizeQuality" fill-rule="evenodd" clip-rule="evenodd"
viewBox="0 0 2.37 2.37"
 xmlns:xlink="http://www.w3.org/1999/xlink"
 xmlns:xodm="http://www.corel.com/coreldraw/odm/2003">
 <g id="Camada_x0020_1">
  <metadata id="CorelCorpID_0Corel-Layer"/>
  <g id="_2750774132144">
   <path fill="#A9ABAE" d="M0.09 2.37c0.01,0 0,0 0.03,0 0.35,0 0.71,0 1.06,0 0.36,0 0.72,0 1.07,0 0.01,0 0.01,0 0.02,0 0.01,0 0,0 0.02,0 0.02,0 0.05,-0.02 0.06,-0.03 0.05,-0.06 0.02,-0.15 -0.06,-0.16 -0.03,-0.01 -0.07,0 -0.09,0 -0.59,0 -1.17,0 -1.75,0 -0.06,0 -0.33,-0.01 -0.36,0 -0.05,0 -0.09,0.04 -0.09,0.09 0,0.06 0.05,0.1 0.09,0.1z"/>
   <path fill="#A9ABAE" d="M1.14 0c-0.02,0 -0.09,0.02 -0.12,0.03 -0.06,0.02 -0.25,0.12 -0.3,0.15l-0.2 0.1c-0.07,0.04 -0.14,0.07 -0.2,0.11 -0.07,0.03 -0.15,0.07 -0.19,0.11 -0.09,0.08 -0.16,0.18 -0.11,0.32 0.01,0.03 0.03,0.06 0.06,0.09 0,0.01 0.01,0.01 0.02,0.02 0.06,0.05 0.11,0.06 0.2,0.06l0 0.79c-0.03,0 -0.06,0 -0.1,0 -0.03,0 -0.04,0.01 -0.06,0.02 -0.04,0.03 -0.05,0.09 -0.02,0.14 0.03,0.04 0.07,0.04 0.14,0.04l1.85 0c0.07,0 0.11,0 0.15,-0.04 0.03,-0.05 0.01,-0.11 -0.02,-0.14 -0.04,-0.03 -0.1,-0.02 -0.16,-0.02l0 -0.79c0.1,0 0.16,-0.03 0.22,-0.08 0.04,-0.05 0.09,-0.13 0.07,-0.23 -0.02,-0.07 -0.07,-0.13 -0.12,-0.18 -0.05,-0.04 -0.12,-0.08 -0.19,-0.11 -0.14,-0.07 -0.27,-0.14 -0.4,-0.21 -0.07,-0.04 -0.14,-0.07 -0.2,-0.1 -0.03,-0.02 -0.07,-0.04 -0.11,-0.05 -0.02,-0.01 -0.1,-0.03 -0.12,-0.03 -0.01,0.01 -0.03,0 -0.05,0 -0.01,0 -0.02,0.01 -0.04,0zm-0.64 1.78l0 0 0.29 0 0 0 0 -0.79 -0.29 0 0 0.79zm1.08 0l0.29 0 0 0 0.01 0 0 -0.79 -0.01 0 -0.29 0 0 0.79zm-0.59 0l0.39 0 0 0 0 -0.79 -0.39 0 0 0.79zm0.18 -1.58c-0.09,0.01 -0.16,0.05 -0.24,0.09 -0.06,0.04 -0.14,0.07 -0.21,0.11l-0.21 0.11c-0.03,0.02 -0.07,0.04 -0.1,0.05 -0.07,0.04 -0.15,0.07 -0.19,0.13 -0.02,0.02 -0.03,0.04 -0.02,0.06 0.01,0.02 0.03,0.03 0.05,0.04 0.02,0 0.27,0 0.32,0l1.44 0c0.05,0 0.12,0.01 0.14,-0.02 0.05,-0.04 0.02,-0.07 -0.01,-0.1 -0.03,-0.03 -0.06,-0.05 -0.1,-0.07 -0.14,-0.07 -0.28,-0.14 -0.42,-0.22 -0.07,-0.03 -0.14,-0.07 -0.21,-0.11 -0.07,-0.03 -0.14,-0.08 -0.24,-0.07z"/>
  </g>
 </g>
</svg>
