<svg xmlns="http://www.w3.org/2000/svg" xmlns:xlink="http://www.w3.org/1999/xlink" xml:space="preserve" width="23.4519mm" height="23.452mm" fill-rule="evenodd" clip-rule="evenodd" viewBox="0 0 707296 707299">
 <g id="Camada_x0020_1">
  <metadata id="CorelCorpID_0Corel-Layer"></metadata>
  <g id="_2018548039920">
   <path fill="#000" d="M25850 706249c4430,-700 500,1086 9041,1028 105263,-726 212841,-21 318155,-21 105284,0 212920,-720 318146,6 1450,9 3519,100 4907,-57 3519,-395 1692,-1040 5042,-917 7242,1246 15327,-5591 18379,-8933 15855,-17354 5559,-45927 -17772,-48662 -8131,-953 -19100,-350 -27530,-350 -172973,0 -345947,0 -518920,0 -18141,0 -98606,-926 -109539,347 -13979,1631 -25301,13680 -25391,28835 -103,16485 14859,30006 25482,28724z"></path>
   <path fill="#000" d="M341088 1034c-7995,-1308 -29409,4844 -36991,7374 -17332,5791 -73960,36134 -90520,45215l-59592 30944c-19993,10176 -39663,20505 -59399,31064 -19776,10580 -42730,20605 -56875,33640 -26633,24544 -47443,53865 -32955,93832 3948,10897 10324,19724 17876,27373 2397,2434 3085,3583 5715,5594 20309,15508 33205,18714 60292,18714l0 235645c-9163,0 -18440,-142 -27590,0 -9983,154 -14278,2241 -20572,6973 -10417,7832 -15071,25590 -5347,39484 9753,13940 22547,12411 42904,12411l551441 0c20684,0 32829,1559 42881,-12438 10040,-13982 4825,-31248 -5275,-39497 -11961,-9762 -30585,-6933 -48210,-6933l0 -235645c31788,0 50101,-7482 66194,-24130 13686,-14163 26715,-38125 20738,-66894 -4735,-22791 -20307,-40350 -36056,-54441 -15155,-13559 -36348,-22677 -56884,-33643 -39620,-21153 -79557,-40817 -118994,-62001 -19857,-10662 -39469,-20750 -59371,-31080 -9790,-5081 -19616,-10172 -31016,-14271 -6859,-2467 -30501,-8752 -37618,-7329 -3740,944 -7881,-1067 -12833,-992 -4807,72 -7706,2144 -11943,1031zm-193536 529162l2588 281 84841 -48 941 0 0 -235645 -88370 15 0 235397zm324033 233l85070 0 712 48 2591 -226 -3 -235171 -2585 -353 -85906 57 121 235645zm-176744 0l116886 0 938 0 0 -235645 -117591 0 -233 235645zm52692 -471190c-26543,2226 -45146,14076 -68935,26896 -20813,11217 -42205,21420 -62768,32702l-62774 32684c-10827,5389 -20710,11355 -31517,16524 -20544,9829 -43471,20421 -56959,38514 -3691,4952 -7892,9708 -3667,17836 2509,4823 6958,9048 13364,10634 6734,1671 81692,706 94957,706l429841 0c13511,0 34288,2760 42877,-5365 12281,-11612 4512,-20946 -5027,-31264 -6907,-7470 -17218,-13574 -28516,-19528 -40957,-21579 -85113,-43647 -125554,-65373 -20837,-11196 -41988,-21848 -62810,-32660 -21328,-11075 -42154,-24851 -72512,-22306z"></path>
  </g>
 </g>
</svg>