<?xml version="1.0" encoding="UTF-8"?>
<!DOCTYPE svg PUBLIC "-//W3C//DTD SVG 1.1//EN" "http://www.w3.org/Graphics/SVG/1.1/DTD/svg11.dtd">
<!-- Creator: CorelDRAW 2021 (64-Bit) -->
<svg xmlns="http://www.w3.org/2000/svg" xml:space="preserve" width="120px" height="120px" version="1.1" shape-rendering="geometricPrecision" text-rendering="geometricPrecision" image-rendering="optimizeQuality" fill-rule="evenodd" clip-rule="evenodd"
viewBox="0 0 9.03 9.03"
 xmlns:xlink="http://www.w3.org/1999/xlink"
 xmlns:xodm="http://www.corel.com/coreldraw/odm/2003">
 <g id="Camada_x0020_1">
  <metadata id="CorelCorpID_0Corel-Layer"/>
  <path fill="#4F6CA9" d="M4.59 1.97c0.11,0.01 0.21,0.01 0.31,0.03 2.13,0.31 2.87,2.93 1.43,4.38 -0.13,0.13 -0.31,0.29 -0.51,0.4 -0.89,0.51 -0.79,-0.27 -0.77,1.96 0,0.38 0.23,0.3 0.52,0.24 0.24,-0.06 0.46,-0.14 0.68,-0.23 0.77,-0.32 1.31,-0.76 1.82,-1.38 1.01,-1.23 1.24,-3.18 0.62,-4.63 -0.7,-1.63 -2.29,-2.72 -4.1,-2.74 -0.13,0 -0.27,0 -0.41,0.02 -2.06,0.17 -3.51,1.58 -4.01,3.29 -0.37,1.31 -0.11,2.63 0.56,3.71 0.16,0.26 0.23,0.32 0.39,0.51 0.49,0.65 1.46,1.21 2.24,1.41 0.78,0.2 0.63,0.09 0.63,-1.01 0,-1.16 0.09,-0.67 -0.68,-1.11 -0.43,-0.24 -0.7,-0.49 -0.95,-0.89 -1.15,-1.81 0.27,-4.02 2.23,-3.96z"/>
 </g>
</svg>
