<?xml version="1.0" encoding="UTF-8"?>
<!DOCTYPE svg PUBLIC "-//W3C//DTD SVG 1.1//EN" "http://www.w3.org/Graphics/SVG/1.1/DTD/svg11.dtd">
<!-- Creator: CorelDRAW 2021 (64-Bit) -->
<svg xmlns="http://www.w3.org/2000/svg" xml:space="preserve" width="26px" height="26px" version="1.1" shape-rendering="geometricPrecision" text-rendering="geometricPrecision" image-rendering="optimizeQuality" fill-rule="evenodd" clip-rule="evenodd"
viewBox="0 0 0.95 0.95"
 xmlns:xlink="http://www.w3.org/1999/xlink"
 xmlns:xodm="http://www.corel.com/coreldraw/odm/2003">
 <g id="Camada_x0020_1">
  <metadata id="CorelCorpID_0Corel-Layer"/>
  <g id="_1552925923872">
   <path fill="#E5E6E7" fill-rule="nonzero" d="M0.68 0l-0.41 0c-0.15,0 -0.27,0.12 -0.27,0.27l0 0.41c0,0.15 0.12,0.27 0.27,0.27l0.41 0c0.15,0 0.27,-0.12 0.27,-0.27l0 -0.41c0,-0.15 -0.12,-0.27 -0.27,-0.27zm0.19 0.68c0,0.1 -0.09,0.19 -0.19,0.19l-0.41 0c-0.1,0 -0.19,-0.09 -0.19,-0.19l0 -0.41c0,-0.1 0.09,-0.19 0.19,-0.19l0.41 0c0.1,0 0.19,0.09 0.19,0.19l0 0.41z"/>
   <path fill="#E5E6E7" fill-rule="nonzero" d="M0.47 0.23c-0.13,0 -0.24,0.11 -0.24,0.24 0,0.14 0.11,0.25 0.24,0.25 0.14,0 0.25,-0.11 0.25,-0.25 0,-0.13 -0.11,-0.24 -0.25,-0.24zm0 0.41c-0.09,0 -0.16,-0.08 -0.16,-0.17 0,-0.09 0.07,-0.16 0.16,-0.16 0.09,0 0.16,0.07 0.16,0.16 0,0.09 -0.07,0.17 -0.16,0.17z"/>
   <path fill="#E5E6E7" fill-rule="nonzero" d="M0.73 0.16c-0.04,0 -0.06,0.03 -0.06,0.06 0,0.03 0.02,0.06 0.06,0.06 0.03,0 0.05,-0.03 0.05,-0.06 0,-0.03 -0.02,-0.06 -0.05,-0.06z"/>
  </g>
 </g>
</svg>
