<?xml version="1.0" encoding="UTF-8"?>
<!DOCTYPE svg PUBLIC "-//W3C//DTD SVG 1.1//EN" "http://www.w3.org/Graphics/SVG/1.1/DTD/svg11.dtd">
<!-- Creator: CorelDRAW 2021 (64-Bit) -->
<svg xmlns="http://www.w3.org/2000/svg" xml:space="preserve" width="50px" height="48px" version="1.1" shape-rendering="geometricPrecision" text-rendering="geometricPrecision" image-rendering="optimizeQuality" fill-rule="evenodd" clip-rule="evenodd"
viewBox="0 0 20.5 19.6"
 xmlns:xlink="http://www.w3.org/1999/xlink"
 xmlns:xodm="http://www.corel.com/coreldraw/odm/2003">
 <g id="Camada_x0020_1">
  <metadata id="CorelCorpID_0Corel-Layer"/>
  <g id="_1588501605248">
   <g>
    <path fill="white" fill-rule="nonzero" d="M16.21 10.36l0 0c-0.04,0.2 -0.19,0.37 -0.41,0.44 -0.36,0.13 -0.77,0.1 -1.12,-0.07 -0.22,-0.18 -0.34,-0.45 -0.33,-0.72 -0.07,-0.53 -0.03,-1.06 0.09,-1.58 0.16,-0.26 0.47,-0.42 0.81,-0.4 0.32,-0.03 0.64,0.08 0.86,0.3 0.1,0.2 0.15,0.41 0.15,0.62 0.02,0.47 0,0.94 -0.05,1.41l0 0zm2.03 -2.21c-0.17,-0.38 -0.47,-0.71 -0.86,-0.93 -1.23,-0.65 -2.73,-0.69 -3.99,-0.11 -0.62,0.3 -1.05,0.84 -1.18,1.46 -0.23,0.98 -0.17,2.14 0.66,2.87 0.96,0.77 2.38,0.93 3.63,0.62 0.13,-0.02 0.26,-0.06 0.38,-0.11l0.03 -0.02c0.41,-0.15 0.77,-0.4 1.04,-0.71 0.65,-0.83 0.69,-2.1 0.3,-3.05l-0.01 -0.02z"/>
   </g>
   <path fill="white" fill-rule="nonzero" d="M5.97 10.83c-0.29,-0.01 -0.61,0 -0.88,-0.02l0 -2.7 0.02 -0.02 0.85 0c0,-0.44 0.02,-0.91 0,-1.31l-3.26 0 -0.53 0 0 1.3c0.3,0 0.57,0 0.85,0.03l0 2.61 0 0.11 -0.86 0.01c-0.03,0.42 -0.03,0.84 0,1.27l3.81 0 0 -1.28z"/>
   <g>
    <path fill="white" fill-rule="nonzero" d="M12.35 14.89l0 0 -0.41 0.12c-0.06,-0.04 -0.13,-0.08 -0.19,-0.12l0.02 -0.03c0.56,-0.3 1.07,-0.65 1.52,-1.07 0.25,0.09 0.48,0.2 0.69,0.33 -0.49,0.34 -1.04,0.6 -1.62,0.77l-0.01 0zm-0.82 0.22l0 0c-0.94,0.18 -1.91,0.18 -2.85,-0.02 -0.01,-0.04 0.05,-0.04 0.07,-0.07 0.88,-0.47 1.98,-0.46 2.84,0.04 0.02,0.05 -0.04,0.03 -0.07,0.05l0.01 0zm-3.2 -0.1l0 0c-0.73,-0.17 -1.42,-0.47 -2.03,-0.86l0 -0.03c0.21,-0.12 0.42,-0.23 0.65,-0.32 0.47,0.42 0.99,0.79 1.55,1.1 -0.06,0.04 -0.12,0.08 -0.19,0.11l0.02 0zm-1.12 -1.31l0 0c0.34,-0.15 0.69,-0.26 1.06,-0.35l0.03 0c0.26,0.43 0.55,0.84 0.86,1.23 -0.12,0.06 -0.27,0.1 -0.39,0.16 -0.58,-0.26 -1.11,-0.61 -1.57,-1.03l0.01 -0.01zm1.39 -0.42l0 0c0.47,-0.09 0.93,-0.13 1.41,-0.14l0 1.3c-0.19,0.04 -0.39,0.04 -0.56,0.08 -0.34,-0.38 -0.65,-0.78 -0.9,-1.21l0.05 -0.03zm1.67 -0.14l0 0c0.49,0 0.97,0.06 1.45,0.15l0 0.03c-0.26,0.42 -0.55,0.82 -0.88,1.19 -0.14,-0.01 -0.29,-0.02 -0.43,-0.05l-0.15 -0.01c-0.02,-0.46 -0.03,-0.86 0,-1.31l0.01 0zm1.7 0.23l0 0 0.03 -0.02c0.37,0.08 0.72,0.19 1.06,0.34 -0.29,0.28 -0.61,0.52 -0.96,0.73 -0.2,0.11 -0.4,0.23 -0.61,0.32l-0.38 -0.16 0.02 -0.05c0.31,-0.37 0.59,-0.75 0.83,-1.16l0.01 0zm3.61 -0.69c-0.37,0.48 -0.82,0.91 -1.32,1.27 -0.02,0.03 -0.06,0.03 -0.08,0.01 -0.01,0 -0.01,0 -0.01,-0.01 -0.22,-0.12 -0.45,-0.22 -0.66,-0.34 0.29,-0.29 0.54,-0.6 0.76,-0.93l-0.29 0c-0.21,0.29 -0.46,0.57 -0.73,0.82 -0.35,-0.13 -0.72,-0.25 -1.09,-0.34l-0.05 -0.03c0.09,-0.15 0.15,-0.3 0.21,-0.46l-0.23 0 -0.24 0.42c-0.52,-0.1 -1.05,-0.16 -1.59,-0.19 -0.02,-0.07 0,-0.17 -0.02,-0.23l-0.24 0c-0.02,0.09 0.02,0.16 -0.03,0.24 -0.52,0.02 -1.04,0.08 -1.55,0.17l-0.24 -0.41c-0.08,-0.01 -0.16,-0.01 -0.24,0l0.22 0.45 -0.03 0.03c-0.39,0.1 -0.77,0.22 -1.14,0.37l-0.03 -0.02c-0.25,-0.24 -0.47,-0.49 -0.67,-0.76 -0.04,-0.13 -0.22,-0.05 -0.31,-0.07 0.23,0.34 0.48,0.65 0.76,0.95 -0.23,0.12 -0.46,0.26 -0.7,0.36 -0.53,-0.36 -0.99,-0.8 -1.37,-1.3 -0.09,-0.01 -0.18,-0.01 -0.27,0 0.64,0.89 1.54,1.62 2.59,2.1 0,0 0.03,0.01 0,0.02 0.69,0.31 1.43,0.51 2.2,0.61 2.61,0.33 5.2,-0.73 6.65,-2.72 -0.09,-0.01 -0.18,-0.02 -0.28,-0.01l0.02 0z"/>
   </g>
   <path fill="white" fill-rule="nonzero" d="M6.25 4.74l0 0c0.55,-0.36 1.15,-0.64 1.8,-0.82 0.02,-0.03 0.04,-0.05 0.07,-0.05l0 0.02c0.07,0.01 0.12,-0.06 0.18,0 0.06,0.05 0.12,0.07 0.16,0.11 -0.56,0.3 -1.08,0.67 -1.55,1.08 -0.23,-0.08 -0.45,-0.19 -0.66,-0.32l0 -0.02zm5.28 -0.95l0 0 0 0.01c-0.83,0.5 -1.9,0.54 -2.77,0.09 -0.04,-0.03 -0.13,-0.05 -0.14,-0.1 0.96,-0.2 1.95,-0.2 2.91,0zm0.34 0.08l0 0c0.73,0.17 1.42,0.46 2.04,0.86l-0.02 0.03 -0.61 0.3 -0.04 0c-0.46,-0.41 -0.98,-0.77 -1.54,-1.06 0.03,-0.05 0.11,-0.1 0.17,-0.13zm1.11 1.31l0 0c-0.34,0.14 -0.69,0.25 -1.05,0.32 -0.28,-0.41 -0.57,-0.82 -0.89,-1.21 0.12,-0.06 0.26,-0.1 0.39,-0.16 0.58,0.26 1.11,0.61 1.57,1.03l-0.02 0.02zm-2.76 0.55l0 0c-0.01,-0.41 0,-0.86 0,-1.28l0.54 -0.07c0.34,0.37 0.64,0.77 0.89,1.2 -0.47,0.1 -0.95,0.14 -1.43,0.14l0 0.01zm-0.27 0l0 0c-0.23,0.02 -0.46,0.01 -0.7,-0.02 -0.25,-0.02 -0.51,-0.06 -0.76,-0.13 0.26,-0.43 0.57,-0.83 0.92,-1.2l0.55 0.07c0.01,0.38 -0.01,0.84 -0.01,1.26l0 0.02zm-1.71 -0.23l0 0 -0.03 0c-0.35,-0.08 -0.7,-0.19 -1.03,-0.31l0 -0.05c0.45,-0.4 0.96,-0.74 1.52,-1.01 0.13,0.05 0.26,0.09 0.39,0.14l-0.03 0.06c-0.3,0.37 -0.58,0.77 -0.82,1.17zm-3.59 0.68c0.21,-0.27 0.44,-0.52 0.7,-0.76 0.2,-0.19 0.43,-0.36 0.67,-0.51 0.23,0.12 0.48,0.23 0.69,0.36 -0.27,0.28 -0.52,0.59 -0.74,0.92 0.09,0.02 0.17,0.02 0.26,0 0.21,-0.3 0.46,-0.57 0.73,-0.83 0.37,0.12 0.73,0.26 1.11,0.35l0.04 0.03 -0.21 0.45c0.08,0.01 0.17,0.01 0.25,0 0.08,-0.13 0.14,-0.28 0.23,-0.41 0.51,0.1 1.04,0.16 1.56,0.17 0.07,0.06 0.02,0.17 0.04,0.24l0.24 0c0.02,-0.08 0,-0.16 0.02,-0.23 0.51,-0.02 1.02,-0.08 1.52,-0.18l0.04 0 0.24 0.4c0.08,0.01 0.16,0.01 0.24,0l-0.21 -0.45 0 -0.01c0.39,-0.1 0.77,-0.23 1.15,-0.37 0.27,0.26 0.52,0.54 0.74,0.84 0.09,0.02 0.17,0.02 0.26,0 -0.11,-0.17 -0.23,-0.33 -0.37,-0.48 -0.12,-0.15 -0.24,-0.29 -0.38,-0.42l0 -0.06 0.61 -0.32 0.08 -0.03c0.53,0.36 0.99,0.8 1.37,1.29 0.1,0 0.19,0.03 0.27,0 -1.16,-1.57 -3.05,-2.57 -5.13,-2.72l0 0.01 -0.03 -0.01c-0.26,-0.03 -0.52,-0.03 -0.77,0 -0.1,-0.01 -0.2,-0.01 -0.31,0 -2.1,0.14 -4.01,1.15 -5.16,2.75 0.08,0 0.17,0 0.25,-0.02z"/>
   <path fill="white" fill-rule="nonzero" d="M9.96 10.89c-0.8,0.23 -1.68,0.03 -2.28,-0.5 -0.07,-0.08 -0.11,-0.17 -0.18,-0.25l-1.17 0c-0.01,0.62 -0.02,1.34 0,1.95l1.3 0 0.02 -0.36c0.14,0.06 0.3,0.13 0.44,0.2 0.91,0.34 2.06,0.42 2.95,0 0.64,-0.31 1.01,-0.95 0.91,-1.61 -0.17,-0.69 -0.74,-1.23 -1.49,-1.41l-2.09 -0.55 -0.16 -0.06c-0.08,-0.05 -0.11,-0.13 -0.1,-0.21 0.17,-0.25 0.55,-0.18 0.83,-0.17 0.61,0.08 1.22,0.27 1.58,0.76l1.24 0c0.02,-0.63 0,-1.18 -0.02,-1.82l-1.25 0c0,0.1 -0.01,0.21 -0.03,0.31l-0.39 -0.19c-0.95,-0.36 -2.3,-0.4 -3.16,0.17 -0.53,0.39 -0.76,1.02 -0.59,1.62 0.12,0.55 0.7,0.96 1.27,1.15 0.77,0.25 1.57,0.42 2.35,0.66 0.07,0.03 0.18,0.1 0.16,0.19 -0.01,0.08 -0.08,0.11 -0.14,0.14l0 -0.02z"/>
   <path fill="white" fill-rule="nonzero" d="M1.79 12.66l0.04 0.08c0.01,0.02 0,0.04 -0.01,0.04 -0.01,0 -0.01,0 -0.01,0l-1.24 0.49c-0.02,0.01 -0.04,0 -0.05,-0.01 0,0 0,0 0,0l-0.04 -0.09c-0.01,-0.02 0,-0.04 0.02,-0.04l1.24 -0.47c0.02,-0.02 0.04,-0.02 0.05,0z"/>
   <path fill="white" fill-rule="nonzero" d="M1.42 11.76l0.03 0.07c0.01,0.02 0,0.04 -0.02,0.05 0,0 0,0 0,0l-0.61 0.18c-0.18,0.06 -0.22,0.13 -0.17,0.26 0.03,0.07 0.08,0.14 0.15,0.2l0.77 -0.24c0.02,0 0.05,0.01 0.05,0.03l0.03 0.08c0.01,0.01 0,0.03 -0.02,0.04l-0.93 0.27c-0.02,0.01 -0.04,0.01 -0.05,-0.01 0,0 0,0 0,0l-0.03 -0.09c-0.01,-0.01 0,-0.03 0.02,-0.04l0.03 0c-0.08,-0.06 -0.14,-0.14 -0.18,-0.24 -0.07,-0.2 0.03,-0.33 0.28,-0.4l0.6 -0.18c0.02,-0.01 0.04,0 0.05,0.02 0,0 0,0 0,0l0 0z"/>
   <path fill="white" fill-rule="nonzero" d="M1.25 11.1c0.02,0.04 0.03,0.07 0.04,0.11 0.04,0.16 0,0.24 -0.19,0.28l-0.65 0.14 0.02 0.16c0,0.02 -0.01,0.04 -0.03,0.05l-0.05 0c-0.01,0 -0.03,0 -0.04,-0.01l-0.05 -0.16 -0.18 0.04c-0.02,0 -0.04,-0.01 -0.04,-0.02 0,0 0,0 0,-0.01l-0.04 -0.08c-0.01,-0.02 -0.01,-0.03 0.01,-0.04 0.01,0 0.01,0 0.01,0l0.21 -0.05 -0.05 -0.18c-0.01,-0.01 0.01,-0.03 0.03,-0.04l0.05 -0.01c0.02,-0.01 0.04,0 0.05,0.02 0,0 0,0 0,0l0.05 0.19 0.65 -0.14c0.11,-0.03 0.11,-0.05 0.1,-0.12l-0.03 -0.1 0 -0.04 0.07 0c0,0 0.03,0 0.04,0.03l0.02 -0.02z"/>
   <path fill="white" fill-rule="nonzero" d="M0.51 10.45l0 0c-0.22,0.03 -0.29,0.11 -0.27,0.28 0.03,0.16 0.13,0.22 0.34,0.19l0.03 0 -0.08 -0.47 -0.02 0zm0.13 -0.14l0.08 0.58 0.03 0c0.23,-0.03 0.31,-0.12 0.27,-0.27 -0.01,-0.1 -0.03,-0.21 -0.06,-0.31 0,0 0,-0.03 0.02,-0.03l0.06 0c0.03,0 0.04,0 0.05,0.03 0.04,0.1 0.07,0.2 0.08,0.31 0.05,0.2 -0.08,0.39 -0.3,0.44 -0.03,0.01 -0.06,0.01 -0.09,0.01l-0.17 0c-0.22,0.05 -0.44,-0.06 -0.5,-0.26 -0.01,-0.03 -0.01,-0.05 -0.02,-0.08 -0.04,-0.2 0.1,-0.39 0.32,-0.43 0.02,-0.01 0.05,-0.01 0.07,-0.01l0.11 -0.01c0.02,0.01 0.04,0.02 0.05,0.04l0 -0.01z"/>
   <path fill="white" fill-rule="nonzero" d="M0.15 9.71c0,0.09 0.04,0.17 0.09,0.24l0.81 -0.05c0.02,0.01 0.04,0.02 0.04,0.04l0 0.09c0,0.01 -0.02,0.03 -0.04,0.03l-0.98 0.05c-0.02,0 -0.04,-0.02 -0.04,-0.03l0 -0.09c0,-0.02 0.01,-0.03 0.03,-0.03l0.01 0 0.04 0c-0.06,-0.07 -0.1,-0.15 -0.11,-0.24 0,-0.02 0,-0.04 0.03,-0.04l0.08 0c0.02,0 0.04,0 0.04,0.04l0 -0.01z"/>
   <path fill="white" fill-rule="nonzero" d="M1.09 8.8l0 0.09c0,0.02 -0.01,0.03 -0.04,0.03l-0.63 -0.02c-0.19,0 -0.26,0.05 -0.26,0.18 0,0.08 0.02,0.16 0.07,0.24l0.8 0.03c0.02,0.01 0.04,0.02 0.04,0.04l0 0.09c0,0.01 -0.02,0.03 -0.04,0.03l0 0 -0.98 -0.04c-0.02,0 -0.04,0 -0.05,-0.02 0,0 0,-0.01 0,-0.02l0 -0.08c0,-0.01 0.02,-0.03 0.04,-0.03l0 0 0.05 0c-0.06,-0.08 -0.08,-0.18 -0.08,-0.27 0,-0.21 0.16,-0.3 0.42,-0.29l0.63 0.02c0.01,0 0.03,0.01 0.03,0.02z"/>
   <path fill="white" fill-rule="nonzero" d="M0.69 8l0 0 -0.02 0.13c-0.03,0.21 0,0.28 0.15,0.29l0.02 0c0.14,0.02 0.18,-0.03 0.2,-0.14 0.01,-0.08 0,-0.16 -0.04,-0.24l-0.31 -0.04zm0.53 -0.05l0 0.08c-0.01,0.02 -0.03,0.03 -0.05,0.03 0,0 0,0 0,0l-0.04 0c0.05,0.09 0.06,0.18 0.05,0.28 0,0.14 -0.13,0.25 -0.28,0.25 -0.03,0 -0.05,-0.01 -0.07,-0.01l-0.03 0c-0.2,-0.03 -0.3,-0.15 -0.24,-0.46l0.01 -0.14 -0.07 0c-0.16,-0.02 -0.23,0.02 -0.25,0.16 -0.01,0.09 -0.02,0.18 -0.02,0.27 0,0.02 0,0.03 -0.04,0.03l-0.07 0c-0.02,0 -0.03,-0.02 -0.03,-0.04 0,-0.1 0.01,-0.19 0.02,-0.28 0.01,-0.16 0.16,-0.29 0.34,-0.28 0.02,0 0.05,0 0.08,0.01l0.66 0.08c0.01,0.01 0.02,0.01 0.03,0.02z"/>
   <path fill="white" fill-rule="nonzero" d="M1.39 7.31c0,0.03 0,0.08 -0.02,0.11 -0.04,0.16 -0.11,0.22 -0.3,0.18l-0.66 -0.14 -0.06 0.16c-0.01,0.01 -0.02,0.03 -0.04,0.02 0,0 0,0 0,0l-0.05 0c-0.02,0 -0.03,-0.02 -0.03,-0.03 0,0 0,0 0,-0.01l0.03 -0.17 -0.18 -0.04c-0.02,-0.01 -0.03,-0.02 -0.03,-0.04 0,0 0,0 0,0l0 -0.09c0.01,-0.02 0.02,-0.03 0.04,-0.02l0.2 0.04 0.05 -0.18c0.01,-0.02 0.03,-0.03 0.05,-0.03l0.06 0c0.02,0.01 0.04,0.02 0.03,0.04 0,0 0,0 0,0l-0.04 0.19 0.65 0.14c0.1,0.02 0.12,0 0.14,-0.07l0.03 -0.09c0,-0.03 0,-0.03 0.03,-0.03l0.07 0.01c0.01,0 0.02,0.02 0.02,0.04l0.01 0.01z"/>
   <g>
    <path fill="white" fill-rule="nonzero" d="M1.48 7.03l0 0 -0.02 0.08c-0.01,0.01 -0.03,0.02 -0.05,0.02l-0.94 -0.25c-0.02,-0.01 -0.03,-0.02 -0.03,-0.04 0,0 0,0 0,-0.01l0.03 -0.08c0.01,-0.01 0.03,-0.02 0.05,-0.02l0.94 0.26c0.02,0.01 0.03,0.03 0.02,0.05l0 -0.01zm-1.18 -0.33l-0.03 0.08c0,0.02 -0.02,0.03 -0.04,0.02l-0.15 -0.04c-0.02,0 -0.03,-0.02 -0.03,-0.04 0,0 0,0 0.01,0l0.02 -0.09c0,-0.02 0.02,-0.03 0.04,-0.03 0.01,0 0.01,0 0.02,0l0.14 0.04c0.02,0.01 0.03,0.03 0.03,0.05 0,0 0,0 -0.01,0.01z"/>
   </g>
   <path fill="white" fill-rule="nonzero" d="M1.24 6.03l0 0c-0.18,-0.06 -0.33,-0.04 -0.39,0.11 -0.07,0.15 0.02,0.26 0.2,0.33l0.14 0.05c0.18,0.06 0.32,0.04 0.39,-0.11 0.07,-0.15 -0.02,-0.26 -0.2,-0.33l-0.14 -0.05zm0.48 0.43c-0.07,0.19 -0.3,0.3 -0.52,0.24 -0.03,-0.01 -0.06,-0.02 -0.09,-0.04l-0.12 -0.06c-0.22,-0.04 -0.36,-0.24 -0.31,-0.44 0.01,-0.03 0.02,-0.05 0.03,-0.07 0.07,-0.2 0.31,-0.31 0.52,-0.24 0.03,0.01 0.06,0.02 0.09,0.03l0.13 0.05c0.22,0.05 0.36,0.26 0.3,0.46 -0.01,0.02 -0.02,0.05 -0.03,0.07z"/>
   <path fill="white" fill-rule="nonzero" d="M2.31 5.33l-0.05 0.07c0,0.02 -0.02,0.03 -0.04,0.02 0,0 -0.01,0 -0.01,0l-0.56 -0.28c-0.17,-0.08 -0.25,-0.05 -0.32,0.06 -0.04,0.08 -0.06,0.16 -0.06,0.24l0.72 0.35c0.02,0.01 0.02,0.03 0.02,0.05l-0.05 0.07c-0.01,0.02 -0.03,0.02 -0.05,0.02l-0.87 -0.43c-0.02,-0.01 -0.02,-0.03 -0.01,-0.04 0,0 0,0 0,0l0.04 -0.08c0.01,-0.01 0.04,-0.01 0.05,0l0.04 0.02c-0.01,-0.1 0.01,-0.2 0.06,-0.28 0.11,-0.18 0.29,-0.21 0.51,-0.1l0.56 0.28c0.02,0.01 0.02,0.03 0,0.05l0.02 -0.02z"/>
   <path fill="white" fill-rule="nonzero" d="M2.33 4.45l0 0 -0.08 0.11c-0.13,0.18 -0.12,0.25 0,0.32l0.02 0c0.06,0.05 0.15,0.05 0.21,0 0.02,-0.01 0.03,-0.03 0.04,-0.05 0.05,-0.07 0.07,-0.14 0.08,-0.23l-0.27 -0.15zm0.5 0.17l-0.05 0.06c-0.02,0.01 -0.04,0.01 -0.06,0l-0.03 0c0,0.09 -0.03,0.19 -0.09,0.27 -0.07,0.13 -0.24,0.18 -0.38,0.11 -0.02,-0.01 -0.04,-0.02 -0.06,-0.03l-0.01 0c-0.17,-0.11 -0.19,-0.25 0,-0.51l0.08 -0.12 -0.06 -0.04c-0.13,-0.08 -0.21,-0.07 -0.31,0.05 -0.09,0.11 -0.11,0.16 -0.15,0.22 -0.01,0.01 -0.03,0.02 -0.04,0.01 0,0 0,-0.01 0,-0.01l-0.06 -0.03c-0.02,-0.01 -0.02,-0.03 0,-0.05 0.04,-0.08 0.09,-0.16 0.15,-0.24 0.08,-0.14 0.27,-0.21 0.43,-0.14 0.03,0.01 0.06,0.03 0.08,0.05l0.55 0.34c0.02,0.01 0.03,0.03 0.02,0.05 0,0 -0.01,0.01 -0.01,0.01z"/>
   <path fill="white" fill-rule="nonzero" d="M3.09 4.33l-0.07 0.07c-0.01,0.02 -0.03,0.02 -0.05,0.01 0,0 0,-0.01 0,-0.01l-1.07 -0.78c-0.02,-0.01 -0.02,-0.03 0,-0.04l0.06 -0.07c0.01,-0.01 0.03,-0.01 0.05,0 0,0 0,0 0,0l1.07 0.78c0.01,0.01 0.01,0.03 0,0.04l0.01 0z"/>
   <path fill="white" fill-rule="nonzero" d="M3.59 2.75l0 0c-0.22,-0.21 -0.4,-0.21 -0.55,-0.08 -0.16,0.13 -0.17,0.29 0.05,0.51l0.17 0.16c0.22,0.21 0.4,0.21 0.56,0.08 0.15,-0.13 0.16,-0.29 -0.06,-0.5l-0.17 -0.17zm0.34 0.78c-0.22,0.18 -0.51,0.2 -0.8,-0.08l-0.17 -0.15c-0.3,-0.27 -0.25,-0.53 -0.03,-0.72 0.22,-0.19 0.5,-0.21 0.79,0.08l0.17 0.16c0.3,0.27 0.26,0.52 0.04,0.71z"/>
   <path fill="white" fill-rule="nonzero" d="M4.26 2.18c-0.08,0.06 -0.14,0.13 -0.17,0.21l0.47 0.58c0.02,0.01 0.02,0.03 0.01,0.05 0,0 -0.01,0 -0.01,0.01l-0.07 0.05c-0.02,0.01 -0.04,0.01 -0.06,0l-0.61 -0.71c-0.01,-0.01 -0.01,-0.03 0,-0.05l0.07 -0.04c0.02,-0.02 0.04,-0.02 0.06,0l0.02 0.02c0.03,-0.08 0.09,-0.16 0.16,-0.21l0.06 0 0.04 0.06 0 0.04 0.03 -0.01z"/>
   <path fill="white" fill-rule="nonzero" d="M5.52 2.5l0 0c-0.04,-0.06 -0.11,-0.05 -0.28,0l-0.21 0.06c-0.03,0.07 -0.02,0.14 0.03,0.2l0 0.01c0.06,0.09 0.14,0.11 0.33,0 0.18,-0.1 0.19,-0.18 0.13,-0.26l0 -0.01zm-0.44 -0.6l0 0c-0.06,-0.08 -0.15,-0.13 -0.32,-0.03 -0.18,0.11 -0.17,0.2 -0.11,0.28 0.04,0.07 0.13,0.13 0.32,0.02 0.18,-0.1 0.18,-0.18 0.11,-0.27l0 0zm0.04 -0.24l-0.06 0.04c0.07,0.02 0.13,0.07 0.17,0.12 0.11,0.17 0.06,0.32 -0.18,0.46 -0.07,0.04 -0.14,0.07 -0.21,0.08 -0.02,0.02 -0.02,0.05 0,0.07 0.02,0.05 0.02,0.05 0.08,0.05l0.28 -0.09c0.19,-0.05 0.37,-0.1 0.47,0.04 0.09,0.14 0.05,0.27 -0.21,0.44 -0.27,0.17 -0.44,0.13 -0.54,-0.02 -0.06,-0.07 -0.07,-0.16 -0.03,-0.24 -0.07,0 -0.13,-0.03 -0.16,-0.08 -0.03,-0.04 -0.03,-0.1 0,-0.14 -0.08,-0.01 -0.15,-0.06 -0.19,-0.13 -0.09,-0.13 -0.1,-0.31 0.18,-0.47l0.35 -0.2c0.02,-0.02 0.04,-0.02 0.06,0l0.03 0.04c-0.02,0 -0.03,0.02 -0.04,0.02l0 0.01z"/>
   <path fill="white" fill-rule="nonzero" d="M6.05 1.65l0 0 -0.12 0.06c-0.21,0.09 -0.24,0.16 -0.18,0.27l0 0.02c0.02,0.07 0.11,0.12 0.19,0.09 0.01,0 0.03,-0.01 0.04,-0.02 0.09,-0.04 0.16,-0.1 0.21,-0.17l-0.14 -0.25zm0.35 0.36l-0.08 0.04c-0.02,0.01 -0.04,0 -0.05,-0.02l-0.02 -0.03c-0.05,0.08 -0.13,0.15 -0.22,0.19 -0.13,0.08 -0.31,0.05 -0.39,-0.07 -0.01,-0.01 -0.02,-0.03 -0.03,-0.05l0 -0.02c-0.09,-0.17 -0.03,-0.31 0.28,-0.44l0.12 -0.06 -0.03 -0.06c-0.07,-0.13 -0.15,-0.16 -0.28,-0.09 -0.13,0.06 -0.19,0.09 -0.26,0.12l-0.04 0 -0.03 -0.05c0,-0.02 0,-0.03 0.02,-0.05 0.08,-0.05 0.16,-0.1 0.25,-0.14 0.15,-0.09 0.35,-0.06 0.46,0.07 0.02,0.02 0.03,0.05 0.04,0.08l0.31 0.55c0,0.02 -0.02,0.03 -0.04,0.03 0,0 -0.01,0 -0.01,0z"/>
   <path fill="white" fill-rule="nonzero" d="M7.36 1.68l-0.09 0.03c-0.02,0.01 -0.04,0 -0.05,-0.02 0,0 0,0 0,0l-0.22 -0.55c-0.06,-0.17 -0.14,-0.2 -0.28,-0.15 -0.09,0.03 -0.16,0.08 -0.22,0.14l0.28 0.69c0,0.02 -0.01,0.04 -0.03,0.05l-0.08 0.03c-0.02,0 -0.05,-0.01 -0.05,-0.02l-0.34 -0.83c-0.01,-0.01 0,-0.03 0.02,-0.04 0,0 0,0 0,0l0.09 -0.03c0.02,-0.01 0.04,0 0.05,0.02l0 0.03c0.07,-0.08 0.16,-0.14 0.26,-0.17 0.22,-0.07 0.36,0.02 0.45,0.24l0.22 0.55c0,0.02 -0.01,0.03 -0.02,0.04l0.01 -0.01z"/>
   <path fill="white" fill-rule="nonzero" d="M7.76 1.58l0 0 -0.09 0.02c-0.02,0.01 -0.05,0 -0.05,-0.02l-0.26 -0.86c0,-0.02 0.01,-0.03 0.03,-0.04l0.09 -0.02c0.02,-0.01 0.04,0 0.05,0.02l0.25 0.86c0.01,0.02 0,0.04 -0.02,0.04zm-0.32 -1.07l-0.1 0.02c-0.02,0.01 -0.04,0 -0.05,-0.02l-0.04 -0.14c0,-0.02 0.02,-0.04 0.04,-0.04l0 0 0.1 -0.02c0.02,-0.01 0.04,0 0.05,0.02 0,0 0,0 0,0l0.04 0.14c0,0.02 -0.01,0.03 -0.03,0.04 0,0 -0.01,0 -0.01,0z"/>
   <path fill="white" fill-rule="nonzero" d="M8.67 1.4l-0.57 0.1c-0.05,0.02 -0.11,-0.01 -0.13,-0.05 0,-0.01 0,-0.02 0,-0.02l0 -0.03c-0.01,-0.04 -0.01,-0.09 0.02,-0.12l0.37 -0.64c0,0 0,-0.01 0,-0.02l-0.03 0 -0.46 0.08c-0.02,0.01 -0.04,0 -0.04,-0.02 0,0 0,0 0,0l0 -0.06c-0.01,-0.02 0.01,-0.04 0.03,-0.04l0.55 -0.1c0.08,-0.01 0.11,0.01 0.13,0.07l0 0.04c0.01,0.03 0,0.07 -0.03,0.1l-0.37 0.64c-0.01,0.01 -0.01,0.02 0,0.02l0.01 0 0.5 -0.09c0.02,0 0.04,0.01 0.05,0.03l0 0.06c0,0.02 -0.01,0.04 -0.03,0.04 0,0 0,0 0,0l0 0.01z"/>
   <path fill="white" fill-rule="nonzero" d="M9.4 0.86l0 0 -0.14 0c-0.23,0.02 -0.29,0.07 -0.28,0.2l0 0.04c0,0.12 0.08,0.15 0.19,0.14 0.09,-0.01 0.18,-0.04 0.25,-0.1l-0.02 -0.28zm0.18 0.46l-0.09 0c-0.02,0 -0.04,-0.02 -0.04,-0.04l0 -0.03c-0.09,0.06 -0.18,0.1 -0.29,0.11 -0.15,0.03 -0.3,-0.05 -0.34,-0.19 0,-0.02 -0.01,-0.05 -0.01,-0.07 -0.01,-0.19 0.1,-0.29 0.44,-0.32l0.14 0 0 -0.07c-0.02,-0.15 -0.08,-0.19 -0.23,-0.18 -0.1,0.01 -0.2,0.02 -0.3,0.04 -0.02,0 -0.03,-0.01 -0.04,-0.02 0,0 0,-0.01 0,-0.01l0 -0.06c0,-0.01 0,-0.03 0.04,-0.03 0.1,-0.03 0.2,-0.04 0.3,-0.05 0.18,-0.04 0.36,0.05 0.4,0.21 0.01,0.03 0.01,0.06 0.01,0.08l0.06 0.61c-0.01,0.02 -0.03,0.02 -0.04,0.02 -0.01,0 -0.01,0 -0.01,0z"/>
   <path fill="white" fill-rule="nonzero" d="M10.32 1.31c-0.05,0 -0.09,0 -0.13,0 -0.18,0 -0.26,-0.04 -0.27,-0.23l0 -0.61 -0.19 -0.01c-0.03,0 -0.04,0 -0.04,-0.03l0 -0.04c0,-0.02 0.02,-0.04 0.04,-0.04l0.18 0 0 -0.17c0.01,-0.02 0.02,-0.03 0.04,-0.04l0.08 -0.01c0.01,0 0.03,0.01 0.03,0.02 0,0 0,0.01 0,0.01l0 0.19 0.21 0c0.02,0 0.04,0.01 0.04,0.03l0 0.06c0,0.02 -0.02,0.04 -0.04,0.04l-0.21 0 0 0.61c0,0.09 0.02,0.11 0.1,0.1l0.11 0c0.03,0 0.04,0 0.04,0.03l0 0.06c0,0 0,0.02 -0.03,0.03l0.04 0z"/>
   <g>
    <path fill="white" fill-rule="nonzero" d="M10.73 0.21l0 0 -0.09 0c-0.02,0 -0.04,-0.02 -0.04,-0.04l0 0 0 -0.14c0,-0.01 0.02,-0.03 0.04,-0.03l0.1 0c0.02,0 0.03,0.01 0.03,0.03 0,0 0,0 0,0.01l0 0.14c0,0.01 -0.01,0.03 -0.04,0.03l0 0 0 0zm-0.07 1.1l-0.1 0c-0.02,0 -0.03,-0.01 -0.03,-0.03l0 -0.01 0.06 -0.88c0,-0.02 0.01,-0.03 0.03,-0.04 0,0 0,0.01 0.01,0.01l0.09 0c0.02,0 0.04,0.01 0.04,0.03l-0.06 0.89c0.01,0.02 0,0.04 -0.02,0.05 -0.01,0.01 -0.03,0 -0.04,-0.01l0.02 -0.01z"/>
   </g>
   <path fill="white" fill-rule="nonzero" d="M11.66 0.87l0 0c0.02,-0.17 -0.04,-0.29 -0.22,-0.32 -0.18,-0.02 -0.27,0.08 -0.3,0.26l-0.03 0.13c-0.02,0.18 0.04,0.3 0.22,0.32 0.18,0.03 0.27,-0.08 0.3,-0.26l0.03 -0.13zm-0.34 0.53c-0.23,-0.01 -0.41,-0.19 -0.39,-0.39 0,-0.03 0,-0.06 0.01,-0.09l0.02 -0.13c0.01,-0.22 0.21,-0.38 0.45,-0.38 0.23,0.01 0.42,0.19 0.41,0.41 0,0.02 0,0.05 -0.01,0.07l-0.02 0.14c0,0.2 -0.18,0.37 -0.41,0.37 -0.02,0 -0.04,0 -0.06,0z"/>
   <path fill="white" fill-rule="nonzero" d="M12.67 1.65l-0.09 -0.02c-0.02,0 -0.04,-0.02 -0.03,-0.04 0,0 0,0 0,0l0.15 -0.55c0.05,-0.17 0,-0.24 -0.14,-0.28 -0.09,-0.02 -0.18,-0.02 -0.27,0l-0.2 0.71c-0.01,0.02 -0.02,0.03 -0.05,0.03l-0.09 -0.02c-0.02,0 -0.03,-0.02 -0.02,-0.04 0,0 0,0 0,0l0.23 -0.87c0,-0.02 0.02,-0.03 0.04,-0.02l0.09 0.02c0.02,0 0.04,0.02 0.03,0.04 0,0 0,0 0,0l0 0.03c0.11,-0.03 0.22,-0.03 0.32,0 0.23,0.05 0.29,0.2 0.23,0.43l-0.16 0.55c-0.01,0.02 -0.02,0.03 -0.05,0.03l0.01 0z"/>
   <path fill="white" fill-rule="nonzero" d="M14.3 0.91l-0.09 -0.03c-0.08,-0.03 -0.11,-0.02 -0.16,0.07l-0.05 0.12 0.19 0.06c0.02,0.01 0.03,0.03 0.02,0.04 0,0 0,0 0,0.01l-0.03 0.06c-0.01,0.01 -0.03,0.01 -0.04,0l-0.19 -0.07 -0.34 0.76c-0.01,0.01 -0.03,0.02 -0.05,0.02l-0.08 -0.04c-0.02,0 -0.03,-0.02 -0.02,-0.04l0.33 -0.74 -0.16 -0.08c-0.02,-0.01 -0.03,-0.02 -0.03,-0.04l0.03 -0.04c0,-0.02 0.01,-0.03 0.03,-0.03 0.01,0 0.01,0 0.02,0l0.17 0.06 0.05 -0.11c0.03,-0.11 0.15,-0.19 0.28,-0.16 0.03,0 0.05,0.01 0.07,0.03 0.04,0.01 0.07,0.03 0.1,0.04 0,0.02 0.03,0.03 0.02,0.05l-0.02 0.05c-0.01,0.01 -0.03,0.01 -0.04,0 0,0 0,0 0,0l-0.01 0.01z"/>
   <path fill="white" fill-rule="nonzero" d="M14.77 1.86l0 0c0.09,-0.16 0.08,-0.28 -0.08,-0.37 -0.17,-0.09 -0.29,0 -0.38,0.15l-0.07 0.12c-0.09,0.16 -0.08,0.28 0.08,0.37 0.16,0.09 0.29,0 0.38,-0.15l0.07 -0.12zm-0.52 0.39c-0.2,-0.09 -0.29,-0.31 -0.19,-0.5 0.01,-0.02 0.02,-0.04 0.03,-0.05l0.07 -0.12c0.07,-0.2 0.31,-0.3 0.52,-0.24 0.03,0.01 0.06,0.03 0.09,0.04 0.2,0.09 0.29,0.31 0.2,0.49 -0.01,0.02 -0.03,0.04 -0.04,0.06l-0.07 0.12c-0.07,0.2 -0.31,0.3 -0.52,0.23 -0.03,-0.01 -0.06,-0.02 -0.09,-0.03z"/>
   <path fill="white" fill-rule="nonzero" d="M15.66 2.01c-0.08,-0.04 -0.17,-0.06 -0.27,-0.06l-0.43 0.61c-0.02,0.01 -0.04,0.01 -0.06,0l-0.08 -0.05c-0.01,-0.01 -0.01,-0.03 0,-0.04l0.53 -0.75c0.02,-0.01 0.04,-0.01 0.05,0l0.08 0.04c0.01,0.02 0.01,0.04 0,0.05l-0.03 0.03c0.1,0 0.2,0.02 0.28,0.06 0.03,0 0.03,0.03 0,0.05l-0.04 0.06c-0.01,0.01 -0.03,0.02 -0.05,0.01 0,-0.01 0,-0.01 0,-0.01l0.02 0z"/>
   <path fill="white" fill-rule="nonzero" d="M15.92 3.27c-0.08,-0.07 -0.15,-0.14 -0.23,-0.21 -0.02,-0.02 -0.01,-0.03 0,-0.05l0.06 -0.05c0.01,-0.01 0.03,-0.01 0.04,0 0.07,0.06 0.17,0.15 0.24,0.2 0.17,0.14 0.28,0.11 0.37,0.02 0.09,-0.1 0.05,-0.14 0,-0.32l-0.07 -0.19c-0.06,-0.17 -0.07,-0.3 0.03,-0.4 0.16,-0.16 0.35,-0.13 0.57,0.04 0.09,0.06 0.17,0.14 0.24,0.21 0,0.02 0.02,0.03 0,0.04l-0.05 0.06c0,0.01 -0.03,0.01 -0.05,0 -0.06,-0.05 -0.15,-0.14 -0.24,-0.2 -0.15,-0.12 -0.24,-0.14 -0.33,-0.05 -0.09,0.1 -0.05,0.14 0,0.28l0.06 0.18c0.08,0.22 0.08,0.34 -0.03,0.44 -0.1,0.11 -0.32,0.21 -0.6,-0.01l-0.01 0.01z"/>
   <path fill="white" fill-rule="nonzero" d="M16.73 3.96c-0.03,-0.03 -0.06,-0.05 -0.09,-0.08 -0.13,-0.11 -0.15,-0.2 0,-0.33l0.48 -0.43 -0.12 -0.13c-0.01,-0.01 -0.01,-0.03 0,-0.04 0,-0.01 0,-0.01 0,-0.01l0.04 -0.03c0.01,-0.01 0.04,-0.01 0.05,0l0.13 0.12 0.13 -0.12c0.02,-0.01 0.04,-0.01 0.06,0l0.08 0.06c0.01,0.01 0.01,0.03 0,0.04 0,0 0,0 0,0l-0.15 0.13 0.15 0.14c0.01,0.01 0.01,0.03 0,0.05l-0.05 0.04c-0.02,0.01 -0.04,0.01 -0.06,0l-0.14 -0.14 -0.48 0.43c-0.08,0.07 -0.07,0.09 0,0.14l0.07 0.07c0.02,0.02 0.02,0.03 0,0.05l-0.05 0.04 -0.05 0 0 0z"/>
   <path fill="white" fill-rule="nonzero" d="M17.6 4.17l0 0 -0.08 -0.1c-0.15,-0.16 -0.23,-0.18 -0.34,-0.1l-0.01 0.02c-0.08,0.03 -0.11,0.11 -0.07,0.17 0.01,0.02 0.02,0.04 0.04,0.05 0.06,0.06 0.14,0.11 0.22,0.14l0.24 -0.18zm-0.3 0.39l-0.06 -0.07c-0.01,-0.01 -0.01,-0.03 0,-0.04l0.04 -0.03c-0.1,-0.03 -0.19,-0.08 -0.26,-0.15 -0.11,-0.1 -0.12,-0.25 -0.02,-0.36 0.02,-0.01 0.04,-0.03 0.06,-0.04l0.02 -0.02c0.16,-0.11 0.3,-0.09 0.54,0.15l0.08 0.1 0.06 -0.04c0.13,-0.1 0.14,-0.17 0.04,-0.28 -0.06,-0.07 -0.12,-0.13 -0.2,-0.19 -0.01,-0.02 -0.01,-0.04 0,-0.05 0,0 0,0 0,0l0.06 -0.04 0.05 0c0.08,0.06 0.15,0.13 0.21,0.2 0.13,0.11 0.15,0.29 0.03,0.41 -0.02,0.02 -0.05,0.04 -0.08,0.06l-0.52 0.38c-0.01,0.02 -0.04,0.02 -0.06,0.01 0,0 0,0 0,0l0.01 0z"/>
   <path fill="white" fill-rule="nonzero" d="M17.85 5.32l-0.05 -0.07c-0.01,-0.02 -0.01,-0.04 0,-0.05l0.54 -0.31c0.16,-0.1 0.17,-0.18 0.09,-0.28 -0.05,-0.07 -0.12,-0.12 -0.2,-0.16l-0.68 0.4c-0.02,0.01 -0.04,0.01 -0.06,0l-0.05 -0.07c-0.01,-0.01 -0.01,-0.03 0,-0.05l0.83 -0.48c0.01,-0.01 0.03,-0.01 0.05,0l0.05 0.08c0.01,0.01 0.01,0.03 0,0.04l-0.03 0.02c0.1,0.04 0.18,0.11 0.24,0.19 0.13,0.17 0.06,0.32 -0.15,0.45l-0.53 0.31c-0.02,0.01 -0.04,0.01 -0.06,0l0.01 -0.02z"/>
   <path fill="white" fill-rule="nonzero" d="M19.07 5.64l0 0c-0.03,-0.06 -0.06,-0.13 -0.09,-0.19 -0.09,-0.15 -0.22,-0.15 -0.4,-0.07l-0.13 0.06c-0.18,0.08 -0.26,0.18 -0.18,0.33 0.04,0.06 0.07,0.12 0.11,0.18l0.69 -0.31zm-0.74 0.47c-0.08,-0.09 -0.14,-0.18 -0.19,-0.28 -0.11,-0.18 -0.04,-0.4 0.16,-0.5 0.02,-0.01 0.05,-0.02 0.08,-0.03l0.12 -0.06c0.18,-0.12 0.43,-0.08 0.56,0.07 0.02,0.03 0.03,0.05 0.05,0.08 0.03,0.06 0.06,0.13 0.08,0.19l0.32 -0.14c0.02,-0.01 0.04,0 0.05,0.01l0.04 0.08c0.01,0.02 0,0.04 -0.01,0.04 0,0 0,0 0,0l-1.22 0.55c-0.01,0.01 -0.02,0.01 -0.04,-0.01z"/>
   <path fill="white" fill-rule="nonzero" d="M19.09 6.64l0 0 -0.05 -0.12c-0.08,-0.19 -0.15,-0.23 -0.28,-0.19l-0.02 0c-0.13,0.05 -0.14,0.11 -0.1,0.21 0.03,0.07 0.09,0.14 0.16,0.2l0.29 -0.1zm-0.43 0.28l-0.04 -0.08c0,-0.01 0.01,-0.03 0.02,-0.04 0.01,0 0.01,0 0.01,0l0.04 -0.01c-0.09,-0.06 -0.16,-0.14 -0.2,-0.23 -0.07,-0.12 -0.01,-0.28 0.13,-0.34 0.02,-0.01 0.04,-0.01 0.06,-0.02l0.02 0c0.2,-0.06 0.34,0 0.45,0.3l0.06 0.12 0.07 -0.03c0.15,-0.05 0.18,-0.11 0.13,-0.24 -0.04,-0.08 -0.08,-0.17 -0.12,-0.24 -0.01,-0.02 0,-0.04 0.01,-0.04 0.01,0 0.01,0 0.01,0l0.06 -0.03c0.02,0 0.04,0 0.05,0.03 0.05,0.07 0.09,0.16 0.13,0.24 0.09,0.14 0.03,0.32 -0.12,0.4 -0.03,0.02 -0.06,0.03 -0.09,0.04l-0.63 0.21c-0.02,0 -0.05,-0.01 -0.05,-0.02 -0.01,-0.01 -0.01,-0.02 0,-0.02l0 0z"/>
   <path fill="white" fill-rule="nonzero" d="M19.73 7.29c-0.02,-0.08 -0.07,-0.16 -0.14,-0.21l-0.78 0.19c-0.02,0.01 -0.05,0 -0.05,-0.02l-0.03 -0.09c0,-0.01 0.01,-0.03 0.03,-0.04 0,0 0,0 0,0l0.95 -0.24c0.02,-0.01 0.04,0 0.05,0.02l0.02 0.08c0.01,0.02 -0.01,0.04 -0.03,0.04 0,0 0,0 0,0l-0.04 0c0.08,0.05 0.14,0.13 0.16,0.22 0.01,0.01 0.01,0.03 -0.01,0.04 0,0 0,0 -0.01,0l-0.07 0.02c-0.02,0 -0.04,0 -0.05,-0.03l0 0.02z"/>
   <path fill="white" fill-rule="nonzero" d="M19.88 8.02l0 0c0,-0.07 -0.01,-0.14 -0.03,-0.21 -0.03,-0.16 -0.16,-0.2 -0.36,-0.16l-0.14 0.02c-0.2,0.03 -0.3,0.1 -0.27,0.27 0,0.06 0.03,0.14 0.05,0.2l0.75 -0.12zm-0.85 0.26c-0.04,-0.1 -0.08,-0.2 -0.1,-0.3 -0.05,-0.26 0.11,-0.41 0.39,-0.46l0.14 -0.02c0.3,-0.05 0.49,0.05 0.54,0.3 0.01,0.06 0.02,0.13 0.02,0.2l0.34 -0.07c0.02,0 0.04,0.01 0.05,0.03l0.01 0.09c0.01,0.02 -0.01,0.03 -0.03,0.04l-1.32 0.22c-0.01,0 -0.03,0 -0.04,-0.03z"/>
   <g>
    <path fill="white" fill-rule="nonzero" d="M20.28 8.53l0 0 0 -0.09c-0.01,-0.02 0,-0.03 0.02,-0.04 0.01,0 0.01,0 0.01,0l0.15 0c0.02,0 0.04,0.01 0.04,0.03 0,0 0,0 0,0l0 0.09c0,0.02 -0.01,0.04 -0.03,0.04l0 0 -0.16 0.02c-0.02,0 -0.03,-0.02 -0.04,-0.04l0.01 -0.01zm-1.22 0.13l0 -0.09c0,-0.02 0.01,-0.03 0.03,-0.04l0.97 -0.1c0.02,0 0.04,0.02 0.04,0.04l0 0.08c0,0.02 -0.01,0.03 -0.03,0.04 0,0 0,0 0,0l-0.98 0.09c-0.02,0 -0.04,-0.02 -0.04,-0.03l0.01 0.01z"/>
   </g>
   <path fill="white" fill-rule="nonzero" d="M19.1 9.5l-0.02 -0.53c0,-0.05 0.03,-0.09 0.09,-0.1 0.01,0 0.01,0 0.02,0l0.03 0c0.05,0 0.09,0.01 0.13,0.03l0.63 0.44 0.02 0 0 -0.02 0 -0.42c0,-0.02 0.02,-0.04 0.04,-0.04l0.06 0c0.03,0 0.04,0.01 0.04,0.03l0 0 0.02 0.52c0,0.07 -0.03,0.1 -0.09,0.1l-0.04 0c-0.04,0 -0.08,-0.02 -0.11,-0.04l-0.65 -0.44c-0.01,0 -0.02,0 -0.02,0l0 0.01 0 0.47c0,0.02 -0.02,0.03 -0.04,0.03l-0.06 0c-0.02,0 -0.04,-0.01 -0.04,-0.03l0 0 -0.01 -0.01z"/>
   <path fill="white" fill-rule="nonzero" d="M19.57 10.25l0 0 0 -0.13c0,-0.21 -0.03,-0.28 -0.16,-0.28l-0.02 0c-0.14,0 -0.18,0.05 -0.19,0.15 0,0.09 0.02,0.17 0.06,0.24l0.31 0.02zm-0.52 0.08l0 -0.08c0,-0.02 0.02,-0.03 0.04,-0.03l0.06 0c-0.06,-0.08 -0.08,-0.18 -0.08,-0.27 -0.01,-0.14 0.09,-0.27 0.25,-0.28 0.03,-0.01 0.06,0 0.09,0l0.02 0c0.21,0 0.3,0.13 0.28,0.44l0 0.13 0.08 0c0.16,0 0.22,-0.04 0.23,-0.17 0.01,-0.14 0,-0.2 0,-0.28 0,-0.01 0,-0.03 0.03,-0.03l0.07 0c0.02,0 0.03,0.02 0.03,0.05 0.01,0.09 0.01,0.18 0,0.27 0.03,0.16 -0.09,0.31 -0.27,0.34 -0.04,0 -0.08,0 -0.12,-0.01l-0.67 -0.04c-0.02,0 -0.04,-0.02 -0.04,-0.04z"/>
   <path fill="white" fill-rule="nonzero" d="M18.94 11c-0.01,-0.03 -0.01,-0.07 0,-0.11 0.03,-0.16 0.08,-0.23 0.3,-0.2l0.67 0.1 0.05 -0.16c0,-0.02 0.01,-0.04 0.04,-0.03l0.05 0c0.02,0 0.03,0.01 0.03,0.03 0,0 0,0 0,0l-0.03 0.17 0.19 0.03c0.01,0 0.03,0.01 0.03,0.03l0 0.1c-0.01,0.01 -0.02,0.02 -0.04,0.02 0,0 0,0 0,0l-0.21 -0.03 -0.03 0.19c0,0.02 -0.02,0.03 -0.05,0.03l0 0 -0.06 0c-0.02,-0.01 -0.04,-0.02 -0.03,-0.04l0 0 0.03 -0.19 -0.67 -0.09c-0.1,0 -0.12,0 -0.13,0.07l-0.02 0.1c0,0.02 0,0.03 -0.03,0.03l-0.07 0c-0.02,-0.01 -0.03,-0.02 -0.03,-0.04l0.01 -0.01z"/>
   <path fill="white" fill-rule="nonzero" d="M20.06 11.53l0 0 0.02 -0.08c0,-0.02 0.02,-0.04 0.04,-0.03 0,0 0,0 0.01,0l0.15 0.03c0.02,0 0.03,0.02 0.03,0.03 0,0.01 0,0.01 0,0.01l-0.03 0.09c0,0.01 -0.01,0.03 -0.03,0.02 -0.01,0 -0.01,0 -0.01,0l-0.15 -0.03c-0.02,0 -0.03,-0.02 -0.03,-0.04 0,0 0,0 0,0zm-1.22 -0.24l0.02 -0.08c0.01,-0.02 0.03,-0.04 0.05,-0.03l0.96 0.19c0.02,0 0.03,0.02 0.03,0.04 0,0 0,0 0,0l-0.02 0.08c-0.01,0.02 -0.02,0.03 -0.05,0.03l-0.96 -0.19c-0.01,-0.02 -0.01,-0.04 0,-0.05l-0.03 0.01z"/>
   <path fill="white" fill-rule="nonzero" d="M19.2 12.25l0 0c0.19,0.05 0.33,0.02 0.39,-0.14 0.05,-0.15 -0.05,-0.26 -0.24,-0.31l-0.14 -0.04c-0.19,-0.05 -0.33,-0.01 -0.38,0.14 -0.06,0.16 0.04,0.26 0.23,0.31l0.14 0.04zm-0.51 -0.39c0.05,-0.2 0.28,-0.32 0.5,-0.27 0.02,0.01 0.05,0.02 0.07,0.03l0.14 0.04c0.23,0.05 0.37,0.27 0.3,0.47 -0.06,0.21 -0.29,0.33 -0.52,0.28 -0.01,-0.01 -0.02,-0.01 -0.03,-0.01l-0.14 -0.04c-0.23,-0.03 -0.38,-0.23 -0.34,-0.43 0,-0.02 0.01,-0.04 0.02,-0.07z"/>
   <path fill="white" fill-rule="nonzero" d="M18.2 13.02l0.04 -0.07c0.01,-0.02 0.03,-0.03 0.05,-0.02l0.58 0.23c0.18,0.07 0.26,0.04 0.3,-0.08 0.03,-0.08 0.05,-0.16 0.04,-0.25l-0.73 -0.29c-0.02,-0.01 -0.03,-0.03 -0.02,-0.05l0.04 -0.08c0.01,-0.01 0.03,-0.02 0.05,-0.01l0.91 0.35c0.02,0.01 0.03,0.03 0.02,0.05 0,0 0,0 0,0l-0.04 0.08c-0.01,0.02 -0.03,0.02 -0.05,0.01l-0.03 0c0.01,0.1 0,0.19 -0.04,0.28 -0.1,0.19 -0.27,0.23 -0.5,0.13l-0.58 -0.23c-0.02,-0.01 -0.03,-0.03 -0.03,-0.05l-0.01 0z"/>
   <path fill="white" fill-rule="nonzero" d="M7.3 19.17l0 0.39 -1.63 0c0.02,-0.14 0.07,-0.29 0.16,-0.42 0.09,-0.13 0.26,-0.31 0.52,-0.53 0.21,-0.17 0.34,-0.29 0.39,-0.36 0.06,-0.08 0.09,-0.17 0.09,-0.25 0,-0.1 -0.02,-0.17 -0.08,-0.22 -0.06,-0.05 -0.13,-0.08 -0.23,-0.08 -0.1,0 -0.18,0.03 -0.23,0.08 -0.06,0.06 -0.09,0.14 -0.1,0.27l-0.47 -0.05c0.03,-0.23 0.12,-0.39 0.26,-0.5 0.15,-0.1 0.33,-0.15 0.55,-0.15 0.24,0 0.43,0.06 0.57,0.18 0.13,0.12 0.2,0.26 0.2,0.44 0,0.09 -0.02,0.19 -0.06,0.28 -0.04,0.09 -0.1,0.18 -0.18,0.28 -0.06,0.07 -0.16,0.16 -0.31,0.28 -0.15,0.12 -0.24,0.2 -0.28,0.24 -0.04,0.04 -0.07,0.08 -0.09,0.12l0.92 0z"/>
   <path fill="white" fill-rule="nonzero" d="M7.62 17.78l0 -0.39 1.59 0 0 0.31c-0.13,0.12 -0.26,0.28 -0.4,0.5 -0.14,0.22 -0.24,0.46 -0.31,0.7 -0.07,0.25 -0.11,0.47 -0.11,0.66l-0.45 0c0.01,-0.3 0.08,-0.61 0.21,-0.93 0.13,-0.31 0.31,-0.6 0.53,-0.85l-1.06 0z"/>
   <path fill="white" fill-rule="nonzero" d="M10.3 17.35c0.23,0 0.42,0.08 0.55,0.23 0.16,0.18 0.24,0.48 0.24,0.9 0,0.41 -0.08,0.71 -0.24,0.9 -0.14,0.15 -0.32,0.22 -0.55,0.22 -0.24,0 -0.43,-0.08 -0.58,-0.25 -0.14,-0.16 -0.21,-0.45 -0.21,-0.88 0,-0.41 0.08,-0.71 0.23,-0.89 0.14,-0.15 0.32,-0.23 0.56,-0.23zm0 0.35c-0.06,0 -0.11,0.02 -0.16,0.05 -0.04,0.03 -0.07,0.09 -0.1,0.18 -0.03,0.11 -0.05,0.29 -0.05,0.55 0,0.26 0.02,0.43 0.05,0.53 0.03,0.1 0.06,0.16 0.1,0.19 0.05,0.04 0.1,0.05 0.16,0.05 0.05,0 0.1,-0.01 0.15,-0.05 0.04,-0.03 0.07,-0.09 0.1,-0.17 0.03,-0.11 0.05,-0.29 0.05,-0.55 0,-0.26 -0.02,-0.44 -0.05,-0.53 -0.02,-0.1 -0.06,-0.17 -0.1,-0.2 -0.05,-0.03 -0.1,-0.05 -0.15,-0.05z"/>
   <path fill="white" fill-rule="nonzero" d="M12.18 17.35c0.24,0 0.43,0.08 0.56,0.23 0.16,0.18 0.23,0.48 0.23,0.9 0,0.41 -0.07,0.71 -0.23,0.9 -0.14,0.15 -0.32,0.22 -0.56,0.22 -0.23,0 -0.42,-0.08 -0.57,-0.25 -0.14,-0.16 -0.21,-0.45 -0.21,-0.88 0,-0.41 0.07,-0.71 0.23,-0.89 0.14,-0.15 0.32,-0.23 0.55,-0.23zm0 0.35c-0.05,0 -0.1,0.02 -0.15,0.05 -0.04,0.03 -0.07,0.09 -0.1,0.18 -0.03,0.11 -0.05,0.29 -0.05,0.55 0,0.26 0.02,0.43 0.05,0.53 0.02,0.1 0.06,0.16 0.1,0.19 0.05,0.04 0.1,0.05 0.15,0.05 0.06,0 0.11,-0.01 0.16,-0.05 0.04,-0.03 0.07,-0.09 0.1,-0.17 0.03,-0.11 0.05,-0.29 0.05,-0.55 0,-0.26 -0.02,-0.44 -0.05,-0.53 -0.03,-0.1 -0.06,-0.17 -0.1,-0.2 -0.05,-0.03 -0.1,-0.05 -0.16,-0.05z"/>
   <path fill="white" fill-rule="nonzero" d="M14.48 19.56l-0.47 0 0 -1.59c-0.17,0.15 -0.37,0.25 -0.6,0.32l0 -0.38c0.12,-0.04 0.25,-0.1 0.4,-0.21 0.14,-0.1 0.24,-0.21 0.29,-0.35l0.38 0 0 2.21z"/>
  </g>
 </g>
</svg>
