<?xml version="1.0" encoding="UTF-8"?>
<!DOCTYPE svg PUBLIC "-//W3C//DTD SVG 1.1//EN" "http://www.w3.org/Graphics/SVG/1.1/DTD/svg11.dtd">
<!-- Creator: CorelDRAW 2021 (64-Bit) -->
<svg xmlns="http://www.w3.org/2000/svg" xml:space="preserve" width="71px" height="12px" version="1.1" shape-rendering="geometricPrecision" text-rendering="geometricPrecision" image-rendering="optimizeQuality" fill-rule="evenodd" clip-rule="evenodd"
viewBox="0 0 6.3 1.09"
 xmlns:xlink="http://www.w3.org/1999/xlink"
 xmlns:xodm="http://www.corel.com/coreldraw/odm/2003">
 <g id="Camada_x0020_1">
  <metadata id="CorelCorpID_0Corel-Layer"/>
  <path fill="white" fill-rule="nonzero" d="M6.13 0.24l0.17 0 -0.44 0.85 -0.16 0 0.14 -0.29 -0.29 -0.56 0.17 0 0.2 0.4 0.01 0 0.2 -0.4zm-1.52 0.18l0.15 0c-0.02,-0.15 -0.13,-0.2 -0.27,-0.2 -0.21,0 -0.29,0.08 -0.3,0.21 0,0.03 0.01,0.07 0.03,0.09 0.03,0.05 0.1,0.08 0.21,0.09 0.06,0 0.21,-0.01 0.2,0.08 -0.01,0.11 -0.28,0.1 -0.3,-0.02l-0.15 0c0.02,0.18 0.19,0.22 0.33,0.21 0.16,-0.02 0.27,-0.09 0.27,-0.22 0,-0.03 -0.01,-0.06 -0.03,-0.09 -0.03,-0.05 -0.1,-0.07 -0.21,-0.08 -0.06,-0.01 -0.2,0.01 -0.2,-0.08 0.01,-0.11 0.25,-0.11 0.27,0.01zm-1.36 -0.21l0 0c0.19,0 0.34,0.14 0.34,0.31l0 0.07 -0.43 0 0 -0.1 0.28 0c-0.01,-0.09 -0.09,-0.15 -0.18,-0.15 -0.26,0 -0.26,0.42 0,0.42 0.07,0 0.13,-0.03 0.16,-0.09l0.15 0c-0.04,0.13 -0.17,0.22 -0.32,0.22 -0.45,0 -0.45,-0.68 0,-0.68zm0.46 0.03l0.15 0 0 0.08c0.06,-0.07 0.16,-0.11 0.25,-0.1l0 0.14c-0.02,-0.01 -0.04,-0.01 -0.06,-0.01 -0.1,-0.01 -0.18,0.06 -0.19,0.15 0,0.01 0,0.01 0,0.02l0 0.34 -0.15 0 0 -0.62zm-1.56 0l0.15 0 0 0.08c0.06,-0.07 0.16,-0.11 0.25,-0.1 0.17,0.02 0.28,0.13 0.29,0.33 -0.02,0.27 -0.19,0.33 -0.45,0.32l0 -0.13c0.23,0.02 0.3,-0.06 0.29,-0.22 0,-0.1 -0.08,-0.17 -0.19,-0.17 -0.1,-0.01 -0.18,0.06 -0.19,0.15 0,0.01 0,0.01 0,0.02l0 0.57 -0.15 0 0 -0.85zm-0.27 0.18l0.15 0c-0.03,-0.15 -0.13,-0.2 -0.28,-0.2 -0.2,-0.01 -0.29,0.08 -0.29,0.21 0,0.03 0.01,0.07 0.03,0.09 0.03,0.05 0.1,0.08 0.21,0.09 0.06,0 0.21,-0.01 0.2,0.08 -0.01,0.11 -0.28,0.1 -0.3,-0.02l-0.16 0c0.03,0.18 0.19,0.22 0.33,0.21 0.17,-0.02 0.28,-0.09 0.28,-0.22 0,-0.03 -0.01,-0.06 -0.03,-0.09 -0.03,-0.05 -0.1,-0.07 -0.21,-0.08 -0.06,-0.01 -0.21,0.01 -0.2,-0.08 0.01,-0.11 0.24,-0.11 0.27,0.01zm3 0.45l0.15 0 0 -0.87 -0.15 0 0 0.87zm0.44 -0.64l0.2 0 -0.26 0.31 0.27 0.33 -0.2 0 -0.22 -0.28 0 -0.1 0.21 -0.26zm-3.99 0.21l0 0.43 -0.15 0 0 -0.06c-0.19,0.11 -0.42,0.09 -0.47,-0.04 -0.04,-0.13 0.01,-0.26 0.2,-0.28l0.18 0 0 0.09 -0.15 0c-0.07,0 -0.11,0.08 -0.09,0.14 0.05,0.08 0.25,0.04 0.32,-0.04l0 -0.26c-0.02,-0.11 -0.25,-0.11 -0.27,0l-0.17 0c0.03,-0.28 0.6,-0.27 0.6,0.02zm-1.33 0.43l0.15 0 0 -0.87 -0.15 0 0 0.87zm0.45 -0.64l0.2 0 -0.26 0.31 0.26 0.33 -0.19 0 -0.23 -0.28 0.01 -0.09 0.21 -0.27z"/>
 </g>
</svg>
