<?xml version="1.0" encoding="UTF-8"?>
<!DOCTYPE svg PUBLIC "-//W3C//DTD SVG 1.1//EN" "http://www.w3.org/Graphics/SVG/1.1/DTD/svg11.dtd">
<!-- Creator: CorelDRAW 2021 (64-Bit) -->
<svg xmlns="http://www.w3.org/2000/svg" xml:space="preserve" width="25px" height="26px" version="1.1" shape-rendering="geometricPrecision" text-rendering="geometricPrecision" image-rendering="optimizeQuality" fill-rule="evenodd" clip-rule="evenodd"
viewBox="0 0 1.21 1.23"
 xmlns:xlink="http://www.w3.org/1999/xlink"
 xmlns:xodm="http://www.corel.com/coreldraw/odm/2003">
 <g id="Camada_x0020_1">
  <metadata id="CorelCorpID_0Corel-Layer"/>
  <path fill="#E5E6E7" fill-rule="nonzero" d="M1.09 0l-0.97 0c-0.07,0 -0.12,0.05 -0.12,0.12l0 0.98c0,0.07 0.05,0.13 0.12,0.13l0.97 0c0.07,0 0.12,-0.06 0.12,-0.13l0 -0.98c0,-0.07 -0.05,-0.12 -0.12,-0.12zm-0.7 0.97l-0.16 0 0 -0.52 0.16 0 0 0.52zm-0.08 -0.59c-0.06,0 -0.09,-0.04 -0.09,-0.08 0,-0.05 0.04,-0.08 0.09,-0.08 0.05,0 0.08,0.03 0.08,0.08 0,0.04 -0.03,0.08 -0.08,0.08zm0.67 0.59l-0.16 0 0 -0.29c0,-0.07 -0.02,-0.11 -0.08,-0.11 -0.05,0 -0.07,0.03 -0.09,0.06 0,0.01 0,0.02 0,0.04l0 0.3 -0.16 0 0 -0.36c0,-0.06 -0.01,-0.12 -0.01,-0.16l0.14 0 0.01 0.07 0 0c0.02,-0.04 0.08,-0.09 0.17,-0.09 0.1,0 0.18,0.08 0.18,0.23l0 0.31z"/>
 </g>
</svg>
