<?xml version="1.0" encoding="UTF-8"?>
<!DOCTYPE svg PUBLIC "-//W3C//DTD SVG 1.1//EN" "http://www.w3.org/Graphics/SVG/1.1/DTD/svg11.dtd">
<!-- Creator: CorelDRAW 2021 (64-Bit) -->
<svg xmlns="http://www.w3.org/2000/svg" xml:space="preserve" width="441px" height="650px" version="1.1" shape-rendering="geometricPrecision" text-rendering="geometricPrecision" image-rendering="optimizeQuality" fill-rule="evenodd" clip-rule="evenodd"
viewBox="0 0 471.31 693.89"
 xmlns:xlink="http://www.w3.org/1999/xlink"
 xmlns:xodm="http://www.corel.com/coreldraw/odm/2003">
 <g id="Camada_x0020_1">
  <metadata id="CorelCorpID_0Corel-Layer"/>
  <path fill="#FEFEFE" fill-opacity="0.501961" stroke="#E6E7E8" stroke-width="0.96" stroke-miterlimit="22.9256" stroke-opacity="0.501961" d="M326.3 1.72c-160.28,13.34 -273.79,121.25 -312.3,252.92 -29.29,100.14 -9.2,201.82 43.06,284.16 12.8,20.17 18.65,24.5 30.49,39.64 38.7,49.48 114.26,92.43 174.98,107.86 60.87,15.48 49.65,6.78 49.65,-77.15 0,-89.61 6.56,-51.66 -53.83,-85.46 -32.96,-18.45 -54.12,-37.88 -73.9,-68.46 -93.98,-145.36 32.77,-325.32 198.44,-301.33 34.05,4.93 63.53,17.35 87.94,34.91l0 -169.18c-45.09,-15.52 -94.06,-22.11 -144.53,-17.91zm144.53 508.66c-5.1,3.69 -10.48,7.2 -16,10.28 -69.43,38.76 -61.64,-20.41 -60.67,150.69 0.17,28.76 18.27,22.99 40.67,17.81 12.5,-2.89 24.45,-6.42 36,-10.5l0 -168.28z"/>
 </g>
</svg>
