<?xml version="1.0" encoding="UTF-8"?>
<!DOCTYPE svg PUBLIC "-//W3C//DTD SVG 1.1//EN" "http://www.w3.org/Graphics/SVG/1.1/DTD/svg11.dtd">
<!-- Creator: CorelDRAW 2021 (64-Bit) -->
<svg xmlns="http://www.w3.org/2000/svg" xml:space="preserve" width="290px" height="39px" version="1.1" shape-rendering="geometricPrecision" text-rendering="geometricPrecision" image-rendering="optimizeQuality" fill-rule="evenodd" clip-rule="evenodd"
viewBox="0 0 78.1 10.42"
 xmlns:xlink="http://www.w3.org/1999/xlink"
 xmlns:xodm="http://www.corel.com/coreldraw/odm/2003">
 <g id="Camada_x0020_1">
  <metadata id="CorelCorpID_0Corel-Layer"/>
  <g id="_1588810476192">
   <path fill="#373435" fill-rule="nonzero" d="M14.87 9.17l-0.22 -0.57 -0.72 0 -0.22 0.57 -0.21 0 0.71 -1.8 0.17 0 0.71 1.79 -0.22 0.01zm-0.29 -0.76l-0.21 -0.56c-0.02,-0.07 -0.05,-0.15 -0.08,-0.25 -0.02,0.08 -0.05,0.17 -0.08,0.25l-0.21 0.56 0.58 0z"/>
   <path fill="#373435" fill-rule="nonzero" d="M15.64 7.82l0 0.87c0,0.09 0.02,0.18 0.08,0.25 0.06,0.06 0.15,0.09 0.23,0.08 0.12,0.01 0.23,-0.03 0.32,-0.12 0.07,-0.11 0.1,-0.24 0.09,-0.37l0 -0.71 0.21 0 0 1.35 -0.17 0 -0.03 -0.18 -0.01 0c-0.04,0.06 -0.1,0.12 -0.18,0.15 -0.08,0.04 -0.16,0.06 -0.25,0.05 -0.13,0.01 -0.26,-0.03 -0.36,-0.11 -0.09,-0.1 -0.14,-0.24 -0.13,-0.37l0 -0.89 0.2 0z"/>
   <path fill="#373435" fill-rule="nonzero" d="M18.06 8.99l-0.02 0c-0.09,0.13 -0.25,0.21 -0.42,0.2 -0.15,0.01 -0.31,-0.06 -0.41,-0.18 -0.1,-0.15 -0.15,-0.33 -0.14,-0.51 -0.01,-0.19 0.04,-0.37 0.15,-0.52 0.2,-0.22 0.54,-0.24 0.77,-0.04l0.05 0.06 0.02 0 -0.01 -0.1 0 -0.09 0 -0.55 0.2 0 0 1.91 -0.15 0 -0.04 -0.18zm-0.41 0.03c0.11,0.01 0.22,-0.03 0.3,-0.11 0.07,-0.11 0.11,-0.24 0.09,-0.37l0 -0.04c0.02,-0.14 -0.02,-0.29 -0.09,-0.41 -0.08,-0.09 -0.19,-0.13 -0.3,-0.12 -0.11,-0.01 -0.22,0.05 -0.28,0.14 -0.07,0.12 -0.1,0.25 -0.09,0.39 -0.01,0.14 0.02,0.27 0.09,0.39 0.07,0.09 0.17,0.14 0.28,0.13z"/>
   <path fill="#373435" fill-rule="nonzero" d="M18.81 7.46c0,-0.04 0.01,-0.08 0.04,-0.1 0.02,-0.03 0.05,-0.04 0.08,-0.04 0.04,0 0.07,0.02 0.09,0.04 0.02,0.02 0.04,0.06 0.03,0.1 0.01,0.04 0,0.07 -0.03,0.1 -0.02,0.02 -0.05,0.04 -0.09,0.04 -0.03,0 -0.06,-0.02 -0.08,-0.04 -0.03,-0.03 -0.04,-0.06 -0.04,-0.1zm0.23 1.71l-0.21 0 0 -1.35 0.21 0 0 1.35z"/>
   <path fill="#373435" fill-rule="nonzero" d="M20.05 9.02c0.03,0 0.07,0 0.1,-0.01l0.08 -0.01 0 0.15c-0.03,0.02 -0.06,0.03 -0.1,0.03 -0.03,0.01 -0.07,0.01 -0.11,0.01 -0.26,0 -0.39,-0.14 -0.39,-0.41l0 -0.8 -0.19 0 0 -0.1 0.19 -0.08 0.09 -0.29 0.12 0 0 0.32 0.38 0 0 0.15 -0.39 0 0 0.79c0,0.06 0.02,0.13 0.06,0.18 0.04,0.05 0.1,0.07 0.16,0.07z"/>
   <path fill="#373435" fill-rule="nonzero" d="M21.81 8.49c0.01,0.19 -0.05,0.37 -0.17,0.52 -0.11,0.12 -0.28,0.19 -0.45,0.18 -0.11,0 -0.22,-0.03 -0.32,-0.09 -0.09,-0.05 -0.17,-0.14 -0.21,-0.24 -0.05,-0.11 -0.08,-0.24 -0.08,-0.37 -0.01,-0.18 0.04,-0.36 0.16,-0.51 0.25,-0.24 0.65,-0.24 0.9,0 0.12,0.15 0.18,0.33 0.17,0.51zm-1.02 0c-0.01,0.14 0.02,0.28 0.1,0.39 0.15,0.17 0.41,0.19 0.57,0.03l0.03 -0.03c0.08,-0.11 0.12,-0.25 0.11,-0.39 0.01,-0.13 -0.03,-0.27 -0.11,-0.39 -0.15,-0.16 -0.42,-0.17 -0.58,-0.01l-0.02 0.01c-0.08,0.12 -0.11,0.26 -0.1,0.39z"/>
   <path fill="#373435" fill-rule="nonzero" d="M22.93 7.8c0.05,0 0.1,0 0.16,0.01l-0.03 0.19c-0.05,-0.01 -0.1,-0.01 -0.15,-0.02 -0.11,0 -0.21,0.05 -0.28,0.14 -0.08,0.09 -0.12,0.2 -0.11,0.32l0 0.73 -0.21 0 0 -1.35 0.17 0 0.02 0.25 0.01 0c0.05,-0.08 0.11,-0.15 0.18,-0.2 0.07,-0.05 0.15,-0.07 0.24,-0.07z"/>
   <path fill="#373435" fill-rule="nonzero" d="M23.47 7.46c0,-0.04 0.01,-0.08 0.04,-0.1 0.02,-0.03 0.05,-0.04 0.08,-0.04 0.03,0 0.06,0.02 0.09,0.04 0.02,0.02 0.04,0.06 0.03,0.1 0.01,0.04 -0.01,0.07 -0.03,0.1 -0.03,0.02 -0.06,0.04 -0.09,0.04 -0.03,0 -0.06,-0.02 -0.08,-0.04 -0.03,-0.03 -0.04,-0.06 -0.04,-0.1zm0.22 1.71l-0.2 0 0 -1.35 0.2 0 0 1.35z"/>
   <path fill="#373435" fill-rule="nonzero" d="M25.1 9.17l-0.04 -0.2 -0.01 0c-0.05,0.08 -0.12,0.13 -0.2,0.18 -0.08,0.03 -0.16,0.04 -0.25,0.04 -0.11,0.01 -0.22,-0.03 -0.31,-0.1 -0.08,-0.08 -0.12,-0.19 -0.12,-0.3 0,-0.27 0.22,-0.41 0.65,-0.42l0.23 0 0 -0.09c0.01,-0.08 -0.02,-0.16 -0.07,-0.23 -0.05,-0.05 -0.13,-0.08 -0.21,-0.07 -0.14,0 -0.27,0.04 -0.38,0.1l-0.06 -0.16c0.06,-0.03 0.14,-0.06 0.21,-0.08 0.08,-0.02 0.16,-0.03 0.24,-0.03 0.13,-0.01 0.25,0.03 0.36,0.1 0.08,0.1 0.12,0.22 0.11,0.34l0 0.92 -0.15 0zm-0.46 -0.15c0.11,0.01 0.22,-0.03 0.3,-0.1 0.07,-0.08 0.11,-0.19 0.11,-0.29l0 -0.12 -0.21 0c-0.12,-0.01 -0.24,0.02 -0.35,0.07 -0.07,0.05 -0.11,0.12 -0.1,0.21 -0.01,0.06 0.02,0.12 0.06,0.17 0.06,0.04 0.12,0.06 0.19,0.06z"/>
   <path fill="#373435" fill-rule="nonzero" d="M27.19 9.19c-0.18,0.01 -0.35,-0.06 -0.47,-0.18 -0.12,-0.14 -0.18,-0.32 -0.17,-0.5 -0.01,-0.19 0.04,-0.37 0.15,-0.52 0.11,-0.13 0.27,-0.2 0.43,-0.19 0.15,-0.01 0.3,0.05 0.4,0.17 0.1,0.12 0.16,0.27 0.15,0.43l0 0.13 -0.93 0c0,0.13 0.04,0.26 0.12,0.36 0.09,0.08 0.2,0.13 0.32,0.12 0.14,0 0.29,-0.03 0.42,-0.09l0 0.18c-0.06,0.03 -0.13,0.05 -0.2,0.07 -0.07,0.01 -0.15,0.02 -0.22,0.02zm-0.06 -1.22c-0.09,-0.01 -0.19,0.03 -0.26,0.1 -0.06,0.09 -0.1,0.19 -0.11,0.29l0.7 0c0.01,-0.1 -0.02,-0.2 -0.08,-0.29 -0.06,-0.07 -0.15,-0.11 -0.25,-0.1z"/>
   <path fill="#373435" fill-rule="nonzero" d="M29.8 8.23l0.61 0 0 0.87c-0.09,0.03 -0.19,0.05 -0.29,0.07 -0.11,0.01 -0.22,0.02 -0.34,0.02 -0.23,0.01 -0.46,-0.08 -0.62,-0.24 -0.16,-0.19 -0.25,-0.43 -0.23,-0.68 0,-0.17 0.03,-0.34 0.11,-0.49 0.07,-0.13 0.19,-0.24 0.32,-0.31 0.16,-0.08 0.33,-0.12 0.5,-0.11 0.18,-0.01 0.36,0.03 0.53,0.1l-0.08 0.18c-0.15,-0.06 -0.31,-0.1 -0.47,-0.1 -0.19,-0.01 -0.39,0.05 -0.52,0.19 -0.13,0.15 -0.2,0.34 -0.19,0.54 -0.01,0.2 0.05,0.4 0.18,0.55 0.14,0.13 0.33,0.2 0.52,0.19 0.12,0 0.24,-0.02 0.36,-0.05l0 -0.55 -0.4 0 0.01 -0.18z"/>
   <path fill="#373435" fill-rule="nonzero" d="M31.52 9.19c-0.17,0.01 -0.34,-0.06 -0.47,-0.18 -0.12,-0.14 -0.18,-0.32 -0.17,-0.5 -0.01,-0.19 0.05,-0.37 0.16,-0.52 0.1,-0.12 0.26,-0.19 0.43,-0.19 0.15,-0.01 0.3,0.06 0.4,0.17 0.1,0.12 0.15,0.28 0.14,0.44l0 0.12 -0.92 0c-0.01,0.13 0.04,0.26 0.12,0.36 0.08,0.09 0.19,0.13 0.31,0.13 0.15,-0.01 0.29,-0.04 0.43,-0.1l0 0.19c-0.07,0.03 -0.13,0.05 -0.2,0.06 -0.08,0.02 -0.15,0.02 -0.23,0.02zm-0.05 -1.22c-0.1,-0.01 -0.19,0.03 -0.26,0.1 -0.07,0.09 -0.11,0.19 -0.11,0.29l0.7 0c0.01,-0.1 -0.02,-0.2 -0.09,-0.29 -0.06,-0.07 -0.15,-0.11 -0.24,-0.1z"/>
   <path fill="#373435" fill-rule="nonzero" d="M33.38 8.8c0,0.11 -0.05,0.23 -0.15,0.29 -0.11,0.08 -0.25,0.11 -0.39,0.1 -0.14,0.01 -0.28,-0.02 -0.41,-0.08l0 -0.19c0.06,0.03 0.13,0.06 0.2,0.08 0.07,0.01 0.14,0.02 0.22,0.02 0.08,0.01 0.17,-0.01 0.24,-0.05 0.09,-0.05 0.11,-0.16 0.06,-0.24l-0.04 -0.05c-0.08,-0.05 -0.17,-0.1 -0.26,-0.13 -0.1,-0.03 -0.19,-0.07 -0.27,-0.12 -0.05,-0.03 -0.09,-0.07 -0.12,-0.12 -0.03,-0.04 -0.04,-0.1 -0.04,-0.15 0,-0.11 0.05,-0.2 0.13,-0.26 0.11,-0.07 0.24,-0.1 0.37,-0.1 0.15,0 0.29,0.03 0.42,0.09l-0.07 0.16c-0.11,-0.05 -0.24,-0.08 -0.36,-0.09 -0.08,0 -0.15,0.01 -0.22,0.05 -0.05,0.02 -0.08,0.07 -0.07,0.12 -0.01,0.04 0,0.07 0.02,0.1 0.03,0.03 0.06,0.05 0.09,0.07 0.08,0.04 0.16,0.07 0.24,0.1 0.12,0.03 0.23,0.09 0.32,0.17 0.06,0.06 0.09,0.14 0.09,0.23z"/>
   <path fill="#373435" fill-rule="nonzero" d="M34.29 9.02c0.04,0 0.07,0 0.11,-0.01l0.08 -0.01 0 0.15c-0.03,0.02 -0.07,0.03 -0.1,0.03 -0.04,0.01 -0.08,0.01 -0.12,0.01 -0.26,0 -0.38,-0.14 -0.38,-0.41l0 -0.8 -0.2 0 0 -0.1 0.2 -0.08 0.08 -0.29 0.12 0 0 0.32 0.39 0 0 0.15 -0.39 0 0 0.79c-0.01,0.06 0.02,0.13 0.06,0.18 0.04,0.05 0.09,0.07 0.15,0.07z"/>
   <path fill="#373435" fill-rule="nonzero" d="M35.72 9.17l-0.04 -0.2 -0.01 0c-0.05,0.08 -0.12,0.13 -0.2,0.18 -0.08,0.03 -0.16,0.04 -0.25,0.04 -0.11,0.01 -0.22,-0.03 -0.31,-0.1 -0.08,-0.08 -0.12,-0.19 -0.11,-0.3 0,-0.27 0.21,-0.41 0.65,-0.42l0.22 0 0 -0.09c0.01,-0.08 -0.01,-0.16 -0.06,-0.23 -0.06,-0.05 -0.14,-0.08 -0.22,-0.07 -0.13,0 -0.26,0.04 -0.38,0.1l-0.06 -0.16c0.07,-0.03 0.14,-0.06 0.21,-0.08 0.08,-0.02 0.16,-0.03 0.24,-0.03 0.13,-0.01 0.26,0.02 0.36,0.1 0.08,0.1 0.12,0.22 0.11,0.34l0 0.92 -0.15 0zm-0.15 -1.53c-0.04,0 -0.08,0 -0.11,-0.02 -0.03,-0.02 -0.06,-0.03 -0.1,-0.05 -0.03,-0.02 -0.06,-0.03 -0.09,-0.05 -0.03,-0.01 -0.06,-0.02 -0.09,-0.02 -0.03,0 -0.06,0.01 -0.09,0.03 -0.02,0.04 -0.04,0.08 -0.05,0.12l-0.12 0c0.01,-0.09 0.04,-0.17 0.09,-0.24 0.05,-0.05 0.11,-0.08 0.18,-0.08 0.04,0 0.08,0.01 0.11,0.02 0.04,0.02 0.07,0.03 0.1,0.05l0.09 0.05c0.03,0.02 0.06,0.02 0.09,0.02 0.03,0.01 0.06,-0.01 0.09,-0.03 0.02,-0.04 0.04,-0.07 0.04,-0.11l0.13 0c-0.01,0.08 -0.04,0.16 -0.09,0.23 -0.05,0.06 -0.11,0.09 -0.19,0.08l0.01 0zm-0.3 1.38c0.11,0.01 0.22,-0.03 0.3,-0.1 0.07,-0.08 0.11,-0.19 0.11,-0.29l0 -0.12 -0.21 0c-0.12,-0.01 -0.24,0.02 -0.35,0.07 -0.07,0.05 -0.11,0.12 -0.1,0.21 -0.01,0.06 0.02,0.12 0.06,0.17 0.06,0.04 0.12,0.06 0.19,0.06z"/>
   <path fill="#373435" fill-rule="nonzero" d="M37.6 8.49c0.01,0.19 -0.05,0.37 -0.16,0.52 -0.12,0.12 -0.29,0.19 -0.46,0.18 -0.11,0 -0.22,-0.03 -0.32,-0.09 -0.09,-0.05 -0.16,-0.14 -0.21,-0.24 -0.05,-0.11 -0.08,-0.24 -0.08,-0.37 -0.01,-0.18 0.04,-0.36 0.16,-0.51 0.12,-0.13 0.29,-0.19 0.47,-0.18 0.16,0 0.32,0.07 0.43,0.19 0.12,0.14 0.18,0.32 0.17,0.5zm-1.02 0c-0.01,0.14 0.03,0.28 0.1,0.39 0.15,0.17 0.41,0.19 0.58,0.03l0.03 -0.03c0.07,-0.11 0.11,-0.25 0.1,-0.39 0.01,-0.13 -0.03,-0.27 -0.1,-0.39 -0.16,-0.16 -0.42,-0.17 -0.59,-0.01l-0.02 0.01c-0.08,0.12 -0.11,0.26 -0.1,0.39z"/>
   <path fill="#373435" fill-rule="nonzero" d="M39.82 8.99l0 0c-0.1,0.13 -0.26,0.21 -0.43,0.2 -0.15,0.01 -0.3,-0.06 -0.4,-0.18 -0.11,-0.15 -0.16,-0.33 -0.15,-0.51 -0.01,-0.19 0.04,-0.37 0.15,-0.52 0.1,-0.12 0.25,-0.19 0.4,-0.18 0.17,-0.01 0.33,0.06 0.43,0.19l0.01 0 -0.01 -0.09 0 -0.1 0 -0.54 0.21 0 0 1.91 -0.17 0 -0.04 -0.18zm-0.41 0.03c0.11,0.01 0.22,-0.03 0.3,-0.11 0.07,-0.11 0.11,-0.24 0.1,-0.37l0 -0.04c0.01,-0.14 -0.03,-0.29 -0.1,-0.41 -0.08,-0.09 -0.19,-0.13 -0.3,-0.12 -0.11,-0.01 -0.22,0.05 -0.28,0.14 -0.07,0.12 -0.1,0.25 -0.09,0.39 -0.01,0.14 0.02,0.27 0.09,0.39 0.07,0.09 0.17,0.14 0.29,0.13l-0.01 0z"/>
   <path fill="#373435" fill-rule="nonzero" d="M41.16 9.19c-0.17,0.01 -0.34,-0.06 -0.47,-0.18 -0.12,-0.14 -0.18,-0.32 -0.17,-0.5 -0.01,-0.19 0.05,-0.37 0.16,-0.52 0.1,-0.13 0.26,-0.2 0.43,-0.19 0.15,-0.01 0.29,0.05 0.39,0.17 0.11,0.12 0.16,0.27 0.15,0.43l0 0.13 -0.92 0c-0.01,0.13 0.03,0.26 0.12,0.36 0.08,0.08 0.19,0.13 0.31,0.12 0.15,0 0.29,-0.03 0.43,-0.09l0 0.18c-0.07,0.03 -0.14,0.05 -0.21,0.07 -0.07,0.01 -0.14,0.02 -0.22,0.02zm-0.05 -1.22c-0.1,-0.01 -0.19,0.03 -0.26,0.1 -0.07,0.09 -0.11,0.19 -0.11,0.29l0.7 0c0.01,-0.1 -0.02,-0.2 -0.09,-0.29 -0.06,-0.07 -0.15,-0.11 -0.24,-0.1z"/>
   <path fill="#373435" fill-rule="nonzero" d="M44.41 8.25c0.02,0.25 -0.07,0.5 -0.24,0.68 -0.19,0.17 -0.44,0.26 -0.69,0.24l-0.49 0 0 -1.8 0.54 0c0.45,-0.04 0.84,0.28 0.88,0.73 0.01,0.05 0.01,0.1 0,0.15zm-0.22 0c0.02,-0.19 -0.04,-0.38 -0.17,-0.52 -0.14,-0.13 -0.33,-0.2 -0.52,-0.18l-0.31 0 0 1.43 0.26 0c0.2,0.01 0.4,-0.05 0.56,-0.18 0.13,-0.15 0.2,-0.34 0.18,-0.54l0 -0.01z"/>
   <path fill="#373435" fill-rule="nonzero" d="M45.76 9.17l-0.04 -0.2 -0.01 0c-0.05,0.08 -0.12,0.13 -0.2,0.18 -0.08,0.03 -0.17,0.04 -0.25,0.04 -0.11,0.01 -0.23,-0.03 -0.31,-0.1 -0.08,-0.08 -0.12,-0.19 -0.12,-0.3 0,-0.27 0.22,-0.41 0.65,-0.42l0.23 0 0 -0.09c0.01,-0.08 -0.02,-0.16 -0.07,-0.23 -0.06,-0.05 -0.13,-0.08 -0.21,-0.07 -0.14,0 -0.27,0.04 -0.38,0.1l-0.07 -0.16c0.07,-0.03 0.15,-0.06 0.22,-0.08 0.08,-0.02 0.16,-0.03 0.24,-0.03 0.13,-0.01 0.25,0.02 0.35,0.1 0.09,0.1 0.13,0.22 0.12,0.34l0 0.92 -0.15 0zm-0.46 -0.15c0.11,0.01 0.22,-0.03 0.3,-0.1 0.08,-0.08 0.11,-0.19 0.11,-0.29l0 -0.12 -0.21 0c-0.12,-0.01 -0.24,0.02 -0.35,0.07 -0.07,0.05 -0.11,0.12 -0.1,0.21 -0.01,0.06 0.02,0.12 0.07,0.17 0.05,0.04 0.11,0.06 0.18,0.06z"/>
   <path fill="#373435" fill-rule="nonzero" d="M47.39 8.99l-0.01 0c-0.09,0.13 -0.25,0.21 -0.42,0.2 -0.16,0.01 -0.31,-0.06 -0.4,-0.18 -0.11,-0.15 -0.16,-0.33 -0.15,-0.51 -0.01,-0.19 0.04,-0.37 0.15,-0.52 0.1,-0.12 0.25,-0.19 0.4,-0.18 0.17,-0.01 0.32,0.06 0.42,0.19l0.01 0 0 -0.09 0 -0.1 0 -0.54 0.2 0 0 1.91 -0.17 0 -0.03 -0.18zm-0.41 0.03c0.12,0.01 0.23,-0.03 0.31,-0.11 0.07,-0.11 0.1,-0.24 0.09,-0.37l0 -0.04c0.01,-0.14 -0.02,-0.29 -0.09,-0.41 -0.08,-0.09 -0.19,-0.13 -0.31,-0.12 -0.11,-0.01 -0.21,0.05 -0.27,0.14 -0.07,0.12 -0.1,0.25 -0.09,0.39 -0.01,0.14 0.02,0.27 0.09,0.39 0.06,0.09 0.17,0.14 0.27,0.13z"/>
   <path fill="#373435" fill-rule="nonzero" d="M49.33 8.49c0.01,0.19 -0.05,0.37 -0.17,0.52 -0.12,0.12 -0.29,0.19 -0.46,0.18 -0.11,0 -0.22,-0.03 -0.31,-0.09 -0.1,-0.05 -0.17,-0.14 -0.22,-0.24 -0.05,-0.11 -0.07,-0.24 -0.07,-0.37 -0.02,-0.18 0.04,-0.36 0.15,-0.51 0.12,-0.12 0.29,-0.19 0.46,-0.18 0.17,-0.01 0.34,0.06 0.45,0.19 0.11,0.14 0.17,0.32 0.17,0.5zm-1.03 0c-0.01,0.14 0.03,0.28 0.1,0.39 0.16,0.17 0.41,0.19 0.58,0.03l0.03 -0.03c0.08,-0.11 0.11,-0.25 0.1,-0.39 0.01,-0.13 -0.02,-0.27 -0.1,-0.39 -0.16,-0.16 -0.42,-0.17 -0.59,-0.01l-0.02 0.01c-0.07,0.12 -0.11,0.26 -0.1,0.39z"/>
   <path fill="#373435" fill-rule="nonzero" d="M50.7 8.8c0,0.11 -0.05,0.22 -0.14,0.29 -0.12,0.07 -0.26,0.11 -0.39,0.1 -0.15,0.01 -0.29,-0.02 -0.42,-0.09l0 -0.18c0.07,0.03 0.14,0.06 0.21,0.07 0.07,0.02 0.14,0.03 0.21,0.03 0.08,0.01 0.17,-0.01 0.25,-0.05 0.08,-0.05 0.11,-0.16 0.05,-0.24l-0.04 -0.05c-0.08,-0.05 -0.17,-0.1 -0.26,-0.13 -0.09,-0.03 -0.18,-0.07 -0.27,-0.12 -0.05,-0.03 -0.09,-0.07 -0.12,-0.12 -0.02,-0.05 -0.04,-0.1 -0.03,-0.16 -0.01,-0.1 0.04,-0.2 0.13,-0.26 0.11,-0.07 0.24,-0.1 0.36,-0.09 0.15,0 0.29,0.03 0.43,0.09l-0.07 0.15c-0.12,-0.05 -0.24,-0.08 -0.37,-0.08 -0.08,0 -0.15,0.01 -0.22,0.05 -0.04,0.02 -0.07,0.07 -0.07,0.12 0,0.03 0.01,0.07 0.03,0.09 0.02,0.03 0.05,0.06 0.09,0.08 0.07,0.03 0.15,0.07 0.23,0.09 0.12,0.04 0.23,0.1 0.32,0.18 0.06,0.06 0.09,0.14 0.09,0.23z"/>
   <path fill="#373435" fill-rule="nonzero" d="M20.77 1.33c0.24,-0.01 0.49,0.03 0.72,0.11 0.2,0.07 0.39,0.17 0.55,0.31 0.16,0.14 0.28,0.31 0.36,0.5 0.09,0.2 0.13,0.42 0.13,0.64 0,0.21 -0.04,0.42 -0.13,0.62 -0.09,0.18 -0.21,0.34 -0.37,0.47 -0.17,0.14 -0.36,0.24 -0.57,0.31 -0.24,0.08 -0.49,0.12 -0.74,0.11l-0.48 0 0 1.01c0,0.06 -0.04,0.11 -0.09,0.12l-0.04 0 -0.76 0c-0.06,0.01 -0.11,-0.03 -0.12,-0.09l0 -0.03 0 -3.96c-0.01,-0.06 0.03,-0.11 0.09,-0.12l0.03 0 1.42 0zm-0.06 2.18c0.12,0 0.24,-0.02 0.35,-0.06 0.09,-0.03 0.17,-0.08 0.24,-0.14 0.07,-0.06 0.12,-0.13 0.15,-0.21 0.03,-0.07 0.05,-0.15 0.05,-0.22 0,-0.09 -0.02,-0.17 -0.05,-0.24 -0.03,-0.08 -0.08,-0.16 -0.15,-0.21 -0.07,-0.07 -0.15,-0.12 -0.24,-0.16 -0.11,-0.04 -0.23,-0.06 -0.35,-0.06l-0.47 0 0 1.29 0.47 0.01z"/>
   <path fill="#373435" fill-rule="nonzero" d="M26.61 4.66c0.06,-0.01 0.11,0.03 0.12,0.09l0 0.03 0 0.64c0.01,0.06 -0.03,0.11 -0.09,0.12l-0.03 0 -2.75 0c-0.06,0.01 -0.12,-0.03 -0.12,-0.09l0 -0.03 0 -3.97c-0.01,-0.06 0.03,-0.11 0.09,-0.12l0.03 0 2.72 0c0.06,-0.01 0.11,0.03 0.12,0.09l0 0.03 0 0.64c0.01,0.06 -0.03,0.12 -0.09,0.12l-0.03 0 -1.84 0 0 0.77 1.61 0c0.06,-0.01 0.11,0.03 0.12,0.09l0 0.03 0 0.64c0.01,0.06 -0.03,0.12 -0.09,0.13l-0.03 0 -1.61 0 0 0.79 1.87 0z"/>
   <path fill="#373435" fill-rule="nonzero" d="M31.91 1.33c0.06,-0.01 0.11,0.03 0.12,0.09l0 0.03 0 4.03c0.01,0.05 -0.03,0.11 -0.09,0.12l-0.03 0 -0.35 0c-0.06,0 -0.12,-0.03 -0.16,-0.07l-2.3 -2.47 0 2.36c0.01,0.06 -0.03,0.11 -0.09,0.12l-0.03 0 -0.75 0c-0.05,0.01 -0.11,-0.03 -0.12,-0.09l0 -0.03 0 -4.01c0,-0.06 0.04,-0.11 0.1,-0.12l0.02 0 0.35 0c0.06,0 0.12,0.02 0.16,0.07l2.3 2.45 0 -2.36c-0.01,-0.06 0.03,-0.12 0.09,-0.12l0.03 0 0.75 0z"/>
   <path fill="#373435" fill-rule="nonzero" d="M36.2 3.32c0.23,0.05 0.44,0.18 0.58,0.37 0.13,0.19 0.2,0.41 0.2,0.64 0.01,0.34 -0.13,0.67 -0.39,0.89 -0.26,0.21 -0.69,0.32 -1.27,0.32l-1.63 0c-0.06,0.01 -0.11,-0.03 -0.12,-0.09l0 -0.03 0 -3.97c-0.01,-0.06 0.03,-0.11 0.09,-0.12l0.03 0 1.55 0c0.25,-0.01 0.49,0.02 0.72,0.08 0.18,0.04 0.34,0.12 0.49,0.23 0.12,0.09 0.22,0.2 0.28,0.34 0.06,0.13 0.09,0.28 0.09,0.43 0.02,0.41 -0.24,0.78 -0.63,0.91l0.01 0zm-0.35 -0.73c0.01,-0.12 -0.04,-0.24 -0.14,-0.32 -0.14,-0.09 -0.31,-0.13 -0.48,-0.12l-0.68 0 0 0.88 0.68 0c0.17,0.01 0.34,-0.03 0.48,-0.11 0.1,-0.08 0.15,-0.2 0.14,-0.33zm-0.52 2.12c0.18,0.02 0.35,-0.02 0.51,-0.12 0.1,-0.07 0.16,-0.19 0.15,-0.32 0.01,-0.13 -0.05,-0.26 -0.15,-0.34 -0.16,-0.09 -0.35,-0.14 -0.53,-0.12l-0.75 0 0 0.9 0.77 0z"/>
   <path fill="#373435" fill-rule="nonzero" d="M42.02 5.4c0.02,0.03 0.02,0.08 0,0.11 -0.03,0.02 -0.06,0.03 -0.1,0.03l-0.81 0c-0.06,0 -0.12,-0.03 -0.14,-0.09l-0.26 -0.66 -1.62 0 -0.27 0.66c-0.02,0.06 -0.08,0.1 -0.14,0.09l-0.81 0c-0.04,0 -0.07,-0.01 -0.1,-0.03 -0.02,-0.04 -0.02,-0.07 0,-0.11l1.78 -3.99c0.02,-0.06 0.08,-0.1 0.14,-0.09l0.43 0c0.06,-0.01 0.12,0.03 0.14,0.09l1.76 3.99zm-2.62 -1.45l0.99 0 -0.49 -1.19 -0.5 1.19z"/>
   <path fill="#373435" fill-rule="nonzero" d="M46.91 1.33c0.06,-0.01 0.11,0.03 0.12,0.09l0 0.03 0 4.03c0.01,0.05 -0.03,0.11 -0.09,0.12l-0.03 0 -0.35 0c-0.06,0 -0.12,-0.03 -0.16,-0.07l-2.3 -2.47 0 2.36c0.01,0.06 -0.03,0.11 -0.09,0.12l-0.03 0 -0.75 0c-0.05,0.01 -0.11,-0.03 -0.11,-0.09l0 -0.03 0 -4.01c-0.01,-0.06 0.03,-0.11 0.08,-0.12l0.03 0 0.35 0c0.06,0 0.11,0.02 0.15,0.07l2.31 2.45 0 -2.36c-0.01,-0.06 0.03,-0.12 0.09,-0.12l0.03 0 0.75 0z"/>
   <path fill="#373435" fill-rule="nonzero" d="M52.26 5.39c0.03,0.04 0.05,0.08 0.03,0.11 -0.01,0.03 -0.05,0.04 -0.1,0.04l-0.99 0c-0.06,0 -0.12,-0.02 -0.16,-0.06l-1.47 -1.62 0 1.56c0,0.06 -0.04,0.11 -0.09,0.12l-0.03 0 -0.77 0c-0.06,0.01 -0.11,-0.03 -0.12,-0.09l0 -0.03 0 -3.97c-0.01,-0.06 0.03,-0.12 0.09,-0.12l0.03 0 0.77 0c0.05,-0.01 0.11,0.03 0.12,0.09l0 0.03 0 1.65 1.51 -1.71c0.04,-0.04 0.09,-0.07 0.15,-0.06l0.88 0c0.06,0 0.09,0.01 0.1,0.04 0.01,0.04 0,0.08 -0.03,0.11l-1.74 1.93 1.82 1.98z"/>
   <path fill="#373435" fill-rule="nonzero" d="M17.74 2.6c-0.22,-0.52 -0.63,-0.95 -1.15,-1.19 -0.28,-0.11 -0.58,-0.17 -0.89,-0.18l-0.01 0c-1.21,0.02 -2.17,1.02 -2.16,2.23 0.02,1.05 0.77,1.93 1.8,2.12 0.05,0.01 0.1,-0.03 0.11,-0.08l0 -0.01 0 -0.77c0,-0.05 -0.03,-0.09 -0.08,-0.1 -0.66,-0.18 -1.05,-0.87 -0.86,-1.53 0.18,-0.66 0.87,-1.05 1.53,-0.87 0.66,0.19 1.05,0.87 0.87,1.53 -0.07,0.23 -0.19,0.43 -0.36,0.58 -0.1,0.1 -0.21,0.18 -0.34,0.23l-0.03 0.01 -0.04 0.02 -0.1 0.03c-0.04,0.01 -0.08,0.05 -0.08,0.1l0 0.77c0,0.05 0.05,0.09 0.1,0.1l0.02 -0.01c1.2,-0.2 2,-1.34 1.79,-2.54 -0.03,-0.15 -0.07,-0.3 -0.12,-0.44z"/>
   <path fill="#373435" fill-rule="nonzero" d="M57.84 3.39c0.22,0.05 0.42,0.18 0.57,0.36 0.14,0.17 0.22,0.38 0.21,0.6 0.02,0.34 -0.12,0.66 -0.38,0.88 -0.3,0.23 -0.68,0.34 -1.06,0.31l-1.38 0c-0.03,0.01 -0.06,-0.01 -0.06,-0.05l0 -0.01 0 -4.08c-0.01,-0.03 0.01,-0.06 0.05,-0.06l0.01 0 1.22 0c0.23,-0.01 0.45,0.02 0.66,0.07 0.17,0.05 0.33,0.13 0.47,0.24 0.12,0.09 0.21,0.21 0.27,0.35 0.06,0.14 0.09,0.3 0.09,0.46 0,0.21 -0.07,0.41 -0.2,0.58 -0.12,0.15 -0.28,0.28 -0.47,0.35zm0.38 -0.91c0,-0.25 -0.1,-0.48 -0.29,-0.64 -0.19,-0.17 -0.49,-0.25 -0.91,-0.25l-1 0 0 1.68 1.26 0c0.24,0.01 0.48,-0.07 0.67,-0.21 0.18,-0.14 0.27,-0.36 0.26,-0.58l0.01 0zm-1.04 2.81c0.3,0.02 0.6,-0.07 0.85,-0.25 0.21,-0.17 0.32,-0.43 0.31,-0.7 0,-0.1 -0.02,-0.2 -0.06,-0.29 -0.04,-0.11 -0.11,-0.2 -0.19,-0.26 -0.1,-0.08 -0.21,-0.15 -0.33,-0.19 -0.16,-0.05 -0.32,-0.07 -0.48,-0.07l-1.26 0 0 1.76 1.16 0z"/>
   <path fill="#373435" fill-rule="nonzero" d="M63.17 5.47l0.01 0.06 -0.05 0.02 -0.2 0c-0.04,0 -0.07,-0.02 -0.09,-0.04l-0.96 -1.43 -0.19 0.02c-0.06,0 -0.13,0 -0.2,0l-0.96 0 0 1.39c0,0.03 -0.02,0.06 -0.05,0.06l-0.02 0 -0.15 0c-0.05,0 -0.07,-0.02 -0.07,-0.06l0 -4.08c-0.01,-0.03 0.02,-0.06 0.05,-0.07l0.01 0 1.24 0c0.21,0 0.42,0.03 0.62,0.09 0.19,0.04 0.36,0.13 0.51,0.25 0.14,0.11 0.25,0.26 0.33,0.42 0.08,0.2 0.12,0.42 0.11,0.63 0.01,0.29 -0.08,0.58 -0.25,0.81 -0.17,0.23 -0.42,0.39 -0.69,0.47l1 1.46zm-1.68 -1.63c0.35,0.02 0.7,-0.09 0.98,-0.3 0.24,-0.2 0.38,-0.51 0.36,-0.83 0.01,-0.17 -0.03,-0.34 -0.1,-0.5 -0.06,-0.14 -0.15,-0.26 -0.27,-0.35 -0.12,-0.09 -0.26,-0.16 -0.41,-0.2 -0.16,-0.05 -0.33,-0.07 -0.5,-0.07l-1.02 0 0 2.25 0.96 0z"/>
   <path fill="#373435" fill-rule="nonzero" d="M68.03 5.48c0.02,0.04 0,0.07 -0.06,0.07l-0.16 0c-0.04,0 -0.07,-0.02 -0.08,-0.06l-0.4 -0.96 -2.35 0 -0.4 0.96c-0.01,0.04 -0.05,0.06 -0.08,0.06l-0.16 0c-0.06,0 -0.07,-0.03 -0.05,-0.07l1.73 -4.09c0.01,-0.04 0.04,-0.06 0.08,-0.06l0.13 0c0.03,0 0.07,0.02 0.08,0.06l1.72 4.09zm-2.95 -1.2l2.14 0 -1.07 -2.56 -1.07 2.56z"/>
   <path fill="#373435" fill-rule="nonzero" d="M70.38 5.6c-0.48,0.01 -0.96,-0.12 -1.37,-0.39 -0.04,-0.02 -0.05,-0.05 -0.01,-0.09l0.08 -0.13c0.02,-0.04 0.05,-0.05 0.09,-0.02 0.17,0.12 0.35,0.21 0.55,0.27 0.21,0.07 0.42,0.1 0.64,0.1 0.16,0.01 0.31,-0.01 0.45,-0.06 0.13,-0.03 0.25,-0.09 0.35,-0.17 0.1,-0.07 0.17,-0.17 0.22,-0.28 0.06,-0.11 0.08,-0.23 0.08,-0.36 0.01,-0.22 -0.08,-0.45 -0.25,-0.6 -0.25,-0.19 -0.54,-0.33 -0.85,-0.39 -0.34,-0.07 -0.66,-0.22 -0.94,-0.43 -0.2,-0.18 -0.31,-0.44 -0.3,-0.71 0,-0.15 0.03,-0.3 0.1,-0.43 0.06,-0.14 0.15,-0.25 0.26,-0.34 0.12,-0.1 0.26,-0.17 0.41,-0.22 0.17,-0.05 0.35,-0.08 0.53,-0.08 0.23,0 0.45,0.03 0.67,0.09 0.17,0.05 0.34,0.13 0.49,0.24 0.03,0.03 0.04,0.06 0.01,0.09l-0.07 0.11c-0.01,0.03 -0.05,0.04 -0.08,0.03l-0.01 -0.01c-0.14,-0.1 -0.29,-0.17 -0.45,-0.22 -0.19,-0.05 -0.37,-0.07 -0.56,-0.07 -0.26,-0.01 -0.52,0.06 -0.74,0.21 -0.18,0.14 -0.29,0.35 -0.28,0.58 -0.01,0.21 0.08,0.41 0.25,0.54 0.24,0.15 0.51,0.27 0.79,0.34 0.2,0.05 0.4,0.12 0.59,0.21 0.15,0.06 0.29,0.15 0.41,0.26 0.1,0.09 0.18,0.21 0.23,0.34 0.05,0.13 0.07,0.28 0.07,0.43 0,0.17 -0.03,0.33 -0.1,0.49 -0.07,0.14 -0.17,0.26 -0.29,0.36 -0.13,0.1 -0.27,0.18 -0.43,0.23 -0.18,0.05 -0.36,0.08 -0.54,0.08z"/>
   <path fill="#373435" fill-rule="nonzero" d="M73.34 5.55c-0.04,0 -0.07,-0.02 -0.07,-0.07l0 -4.07c0,-0.04 0.02,-0.07 0.05,-0.07l0.02 0 0.16 0c0.03,0 0.06,0.02 0.07,0.05l0 0.02 0 4.08c0,0.03 -0.02,0.06 -0.05,0.06l-0.02 0 -0.16 0z"/>
   <path fill="#373435" fill-rule="nonzero" d="M78.03 5.29c0.05,0 0.07,0.02 0.07,0.06l0 0.14c0.01,0.03 -0.01,0.06 -0.05,0.06l-0.02 0 -2.52 0c-0.04,0 -0.06,-0.02 -0.06,-0.06l0 -4.08c-0.01,-0.03 0.01,-0.06 0.04,-0.07l0.02 0 0.16 0c0.03,0 0.06,0.02 0.07,0.05l0 0.02 0 3.88 2.29 0z"/>
   <path fill="#3A6FAE" fill-rule="nonzero" d="M5.26 0l-0.02 0c-2.89,0 -5.23,2.34 -5.24,5.23l0 0.01c0,2.56 1.85,4.75 4.37,5.17l0.04 0c0.11,0 0.21,-0.08 0.23,-0.19l0 -0.04 0 -1.84c0,-0.1 -0.07,-0.2 -0.17,-0.22l-0.02 0c-1.31,-0.37 -2.18,-1.57 -2.18,-2.87 0,-0.26 0.04,-0.53 0.11,-0.8 0.37,-1.32 1.56,-2.18 2.87,-2.18 0.26,0 0.53,0.03 0.8,0.11 1.32,0.36 2.18,1.56 2.18,2.87 0,0.26 -0.04,0.53 -0.11,0.79 -0.15,0.54 -0.44,1.02 -0.84,1.39 -0.24,0.24 -0.52,0.42 -0.83,0.55l-0.07 0.03 -0.1 0.03c-0.08,0.03 -0.16,0.06 -0.24,0.08 -0.1,0.02 -0.18,0.12 -0.18,0.23l0 1.84c0,0.13 0.11,0.23 0.24,0.23l0.03 0c2.49,-0.42 4.38,-2.58 4.37,-5.18 0,-0.63 -0.11,-1.28 -0.35,-1.95 -0.41,-1.14 -1.63,-2.42 -2.75,-2.87 -0.67,-0.27 -1.39,-0.41 -2.12,-0.42l-0.02 0z"/>
  </g>
 </g>
</svg>
