<?xml version="1.0" encoding="UTF-8"?>
<!DOCTYPE svg PUBLIC "-//W3C//DTD SVG 1.1//EN" "http://www.w3.org/Graphics/SVG/1.1/DTD/svg11.dtd">
<!-- Creator: CorelDRAW 2021 (64-Bit) -->
<svg xmlns="http://www.w3.org/2000/svg" xml:space="preserve" width="429px" height="57px" version="1.1" shape-rendering="geometricPrecision" text-rendering="geometricPrecision" image-rendering="optimizeQuality" fill-rule="evenodd" clip-rule="evenodd"
viewBox="0 0 172.74 23.05"
 xmlns:xlink="http://www.w3.org/1999/xlink"
 xmlns:xodm="http://www.corel.com/coreldraw/odm/2003">
 <g id="Camada_x0020_1">
  <metadata id="CorelCorpID_0Corel-Layer"/>
  <path fill="#FEFEFE" fill-rule="nonzero" d="M32.89 20.27l-0.49 -1.26 -1.59 0 -0.49 1.26 -0.46 0 1.56 -3.98 0.39 0 1.56 3.98 -0.48 0zm-0.64 -1.67l-0.46 -1.23c-0.06,-0.16 -0.12,-0.35 -0.18,-0.57 -0.05,0.19 -0.11,0.38 -0.17,0.57l-0.47 1.23 1.28 0z"/>
  <path fill="#FEFEFE" fill-rule="nonzero" d="M34.6 17.3l0 1.93c-0.02,0.19 0.04,0.39 0.16,0.54 0.15,0.13 0.33,0.19 0.52,0.18 0.26,0.02 0.51,-0.07 0.69,-0.26 0.17,-0.24 0.24,-0.54 0.22,-0.83l0 -1.56 0.45 0 0 2.97 -0.37 0 -0.07 -0.4 -0.02 0c-0.09,0.15 -0.23,0.27 -0.39,0.35 -0.17,0.08 -0.36,0.12 -0.55,0.11 -0.3,0.03 -0.59,-0.07 -0.82,-0.25 -0.19,-0.23 -0.29,-0.53 -0.27,-0.82l0 -1.96 0.45 0z"/>
  <path fill="#FEFEFE" fill-rule="nonzero" d="M39.93 19.87l-0.02 0c-0.21,0.31 -0.56,0.48 -0.93,0.45 -0.35,0.02 -0.69,-0.13 -0.91,-0.4 -0.23,-0.32 -0.35,-0.72 -0.32,-1.13 -0.03,-0.4 0.09,-0.8 0.32,-1.14 0.45,-0.49 1.21,-0.54 1.71,-0.1l0.12 0.14 0.04 0 -0.02 -0.22 0 -0.21 0 -1.2 0.45 0 0 4.21 -0.35 0 -0.09 -0.4zm-0.9 0.08c0.26,0.02 0.5,-0.07 0.67,-0.25 0.16,-0.24 0.23,-0.53 0.21,-0.81l0 -0.1c0.03,-0.31 -0.05,-0.63 -0.21,-0.9 -0.17,-0.19 -0.42,-0.29 -0.67,-0.27 -0.24,-0.01 -0.47,0.11 -0.61,0.31 -0.15,0.26 -0.22,0.56 -0.21,0.87 -0.02,0.3 0.06,0.6 0.21,0.86 0.14,0.19 0.37,0.31 0.61,0.29z"/>
  <path fill="#FEFEFE" fill-rule="nonzero" d="M41.61 16.5c-0.01,-0.09 0.02,-0.17 0.08,-0.23 0.05,-0.05 0.12,-0.07 0.19,-0.07 0.07,0 0.13,0.02 0.18,0.07 0.06,0.06 0.09,0.14 0.08,0.23 0.01,0.08 -0.02,0.16 -0.08,0.22 -0.05,0.05 -0.11,0.08 -0.18,0.08 -0.07,0 -0.14,-0.03 -0.19,-0.08 -0.06,-0.06 -0.09,-0.14 -0.08,-0.22zm0.49 3.77l-0.45 0 0 -2.97 0.45 0 0 2.97z"/>
  <path fill="#FEFEFE" fill-rule="nonzero" d="M44.34 19.95c0.08,0 0.15,0 0.23,-0.02l0.17 -0.03 0 0.35c-0.06,0.03 -0.14,0.05 -0.21,0.06 -0.09,0.01 -0.17,0.02 -0.26,0.02 -0.57,0 -0.86,-0.31 -0.86,-0.91l0 -1.77 -0.41 0 0 -0.21 0.42 -0.19 0.19 -0.64 0.26 0 0 0.7 0.86 0 0 0.34 -0.87 0 0 1.74c-0.01,0.15 0.04,0.29 0.13,0.41 0.09,0.1 0.22,0.16 0.35,0.15z"/>
  <path fill="#FEFEFE" fill-rule="nonzero" d="M48.23 18.78c0.03,0.41 -0.1,0.82 -0.36,1.14 -0.26,0.27 -0.63,0.42 -1.01,0.4 -0.25,0 -0.48,-0.06 -0.69,-0.18 -0.21,-0.13 -0.38,-0.32 -0.48,-0.54 -0.12,-0.26 -0.18,-0.53 -0.17,-0.82 -0.03,-0.4 0.09,-0.81 0.35,-1.13 0.55,-0.54 1.44,-0.54 1.99,0 0.26,0.32 0.4,0.72 0.37,1.13zm-2.26 0c-0.02,0.31 0.06,0.61 0.23,0.87 0.33,0.37 0.9,0.4 1.27,0.07l0.07 -0.07c0.17,-0.26 0.25,-0.56 0.23,-0.87 0.02,-0.3 -0.06,-0.6 -0.23,-0.86 -0.35,-0.37 -0.93,-0.39 -1.3,-0.04l-0.04 0.04c-0.17,0.26 -0.25,0.56 -0.23,0.86z"/>
  <path fill="#FEFEFE" fill-rule="nonzero" d="M50.71 17.25c0.12,0 0.23,0.01 0.35,0.03l-0.07 0.42c-0.1,-0.03 -0.21,-0.04 -0.32,-0.04 -0.24,0 -0.47,0.1 -0.62,0.29 -0.17,0.2 -0.26,0.46 -0.25,0.73l0 1.59 -0.45 0 0 -2.97 0.37 0 0.05 0.55 0.02 0c0.1,-0.18 0.23,-0.33 0.4,-0.45 0.15,-0.1 0.33,-0.15 0.52,-0.15z"/>
  <path fill="#FEFEFE" fill-rule="nonzero" d="M51.91 16.5c0,-0.09 0.02,-0.17 0.08,-0.23 0.05,-0.05 0.12,-0.07 0.19,-0.07 0.07,0 0.14,0.02 0.19,0.07 0.05,0.06 0.08,0.14 0.07,0.23 0.01,0.08 -0.02,0.16 -0.07,0.22 -0.05,0.05 -0.12,0.08 -0.19,0.08 -0.07,0 -0.14,-0.03 -0.19,-0.08 -0.06,-0.06 -0.08,-0.14 -0.08,-0.22zm0.49 3.77l-0.45 0 0 -2.97 0.45 0 0 2.97z"/>
  <path fill="#FEFEFE" fill-rule="nonzero" d="M55.51 20.27l-0.09 -0.42 -0.02 0c-0.12,0.16 -0.27,0.29 -0.44,0.38 -0.18,0.07 -0.36,0.1 -0.55,0.09 -0.25,0.02 -0.5,-0.06 -0.69,-0.22 -0.18,-0.17 -0.27,-0.41 -0.25,-0.65 0,-0.6 0.48,-0.91 1.43,-0.94l0.51 0 0 -0.19c0.01,-0.18 -0.04,-0.37 -0.16,-0.51 -0.12,-0.13 -0.3,-0.19 -0.47,-0.17 -0.3,0.01 -0.58,0.09 -0.84,0.23l-0.14 -0.35c0.15,-0.08 0.31,-0.14 0.48,-0.19 0.17,-0.04 0.34,-0.06 0.52,-0.06 0.29,-0.03 0.57,0.06 0.79,0.23 0.19,0.21 0.28,0.48 0.25,0.76l0 2.02 -0.33 -0.01zm-1.02 -0.32c0.25,0.02 0.48,-0.07 0.67,-0.23 0.16,-0.17 0.25,-0.4 0.24,-0.64l0 -0.27 -0.45 0c-0.27,-0.01 -0.54,0.05 -0.78,0.17 -0.16,0.1 -0.25,0.27 -0.23,0.45 -0.01,0.14 0.04,0.28 0.14,0.38 0.12,0.09 0.26,0.15 0.41,0.14z"/>
  <path fill="#FEFEFE" fill-rule="nonzero" d="M60.13 20.32c-0.39,0.02 -0.77,-0.12 -1.04,-0.4 -0.27,-0.3 -0.4,-0.7 -0.38,-1.11 -0.02,-0.41 0.1,-0.81 0.35,-1.14 0.23,-0.28 0.58,-0.44 0.95,-0.42 0.33,-0.02 0.66,0.12 0.88,0.37 0.23,0.27 0.34,0.61 0.33,0.96l0 0.29 -2.05 0c-0.01,0.29 0.08,0.57 0.26,0.79 0.19,0.18 0.44,0.28 0.7,0.27 0.32,0 0.65,-0.07 0.94,-0.2l0 0.4c-0.14,0.07 -0.29,0.12 -0.45,0.15 -0.16,0.03 -0.32,0.04 -0.49,0.04zm-0.12 -2.7c-0.22,-0.01 -0.42,0.08 -0.57,0.24 -0.16,0.18 -0.24,0.4 -0.25,0.64l1.55 0c0.01,-0.23 -0.05,-0.46 -0.19,-0.65 -0.13,-0.15 -0.33,-0.24 -0.54,-0.23z"/>
  <path fill="#FEFEFE" fill-rule="nonzero" d="M65.9 18.19l1.36 0 0 1.93c-0.21,0.07 -0.42,0.12 -0.64,0.15 -0.25,0.04 -0.5,0.06 -0.75,0.05 -0.52,0.03 -1.02,-0.16 -1.39,-0.53 -0.35,-0.42 -0.53,-0.95 -0.5,-1.5 -0.01,-0.37 0.08,-0.75 0.25,-1.08 0.16,-0.3 0.41,-0.54 0.71,-0.7 0.34,-0.17 0.72,-0.25 1.09,-0.24 0.41,-0.01 0.81,0.07 1.18,0.23l-0.17 0.41c-0.33,-0.15 -0.69,-0.23 -1.04,-0.23 -0.43,-0.04 -0.86,0.11 -1.16,0.42 -0.29,0.33 -0.44,0.76 -0.41,1.19 -0.03,0.44 0.11,0.88 0.39,1.21 0.31,0.3 0.73,0.45 1.15,0.42 0.27,0 0.54,-0.03 0.81,-0.1l0 -1.21 -0.89 0 0.01 -0.42z"/>
  <path fill="#FEFEFE" fill-rule="nonzero" d="M69.72 20.32c-0.39,0.02 -0.77,-0.12 -1.04,-0.4 -0.27,-0.3 -0.4,-0.7 -0.38,-1.11 -0.02,-0.41 0.1,-0.81 0.35,-1.13 0.23,-0.28 0.58,-0.44 0.94,-0.42 0.34,-0.02 0.66,0.11 0.89,0.36 0.22,0.27 0.34,0.62 0.32,0.97l0 0.28 -2.04 0c-0.01,0.29 0.08,0.57 0.26,0.8 0.18,0.18 0.44,0.28 0.7,0.27 0.32,0 0.64,-0.07 0.94,-0.2l0 0.4c-0.14,0.06 -0.29,0.11 -0.45,0.14 -0.16,0.03 -0.33,0.05 -0.49,0.04zm-0.12 -2.7c-0.22,-0.01 -0.43,0.08 -0.57,0.24 -0.16,0.18 -0.24,0.4 -0.25,0.64l1.55 0c0.02,-0.23 -0.05,-0.46 -0.19,-0.65 -0.14,-0.15 -0.34,-0.24 -0.54,-0.23z"/>
  <path fill="#FEFEFE" fill-rule="nonzero" d="M73.82 19.46c0.02,0.26 -0.11,0.5 -0.32,0.64 -0.26,0.17 -0.56,0.25 -0.87,0.23 -0.31,0.02 -0.63,-0.05 -0.91,-0.19l0 -0.41c0.14,0.07 0.29,0.13 0.45,0.17 0.16,0.04 0.32,0.06 0.47,0.06 0.19,0.01 0.38,-0.03 0.55,-0.11 0.18,-0.11 0.24,-0.36 0.13,-0.54l-0.09 -0.1c-0.19,-0.12 -0.38,-0.22 -0.59,-0.29 -0.21,-0.07 -0.4,-0.16 -0.59,-0.27 -0.1,-0.07 -0.19,-0.16 -0.26,-0.27 -0.06,-0.1 -0.09,-0.22 -0.08,-0.34 -0.01,-0.23 0.1,-0.45 0.29,-0.58 0.24,-0.15 0.53,-0.22 0.81,-0.2 0.32,0 0.64,0.06 0.94,0.19l-0.16 0.35c-0.26,-0.12 -0.53,-0.18 -0.81,-0.19 -0.17,-0.01 -0.33,0.03 -0.48,0.1 -0.1,0.06 -0.17,0.16 -0.17,0.28 0,0.07 0.02,0.14 0.06,0.2 0.06,0.07 0.13,0.12 0.2,0.16 0.17,0.09 0.34,0.16 0.52,0.22 0.26,0.08 0.51,0.21 0.72,0.39 0.13,0.13 0.2,0.31 0.19,0.5z"/>
  <path fill="#FEFEFE" fill-rule="nonzero" d="M75.85 19.95c0.07,0 0.15,0 0.23,-0.02l0.17 -0.03 0 0.35c-0.07,0.03 -0.14,0.05 -0.21,0.06 -0.09,0.01 -0.17,0.02 -0.26,0.02 -0.57,0 -0.86,-0.31 -0.86,-0.91l0 -1.77 -0.43 0 0 -0.21 0.43 -0.19 0.19 -0.64 0.26 0 0 0.7 0.86 0 0 0.34 -0.86 0 0 1.74c-0.01,0.15 0.04,0.29 0.13,0.41 0.09,0.1 0.21,0.16 0.35,0.15z"/>
  <path fill="#FEFEFE" fill-rule="nonzero" d="M79.01 20.27l-0.09 -0.42 -0.03 0c-0.11,0.16 -0.26,0.28 -0.44,0.38 -0.17,0.07 -0.36,0.1 -0.55,0.09 -0.25,0.02 -0.5,-0.06 -0.69,-0.22 -0.18,-0.17 -0.27,-0.41 -0.25,-0.65 0,-0.6 0.48,-0.91 1.44,-0.94l0.5 0 0 -0.19c0.01,-0.18 -0.04,-0.37 -0.15,-0.51 -0.13,-0.13 -0.31,-0.19 -0.48,-0.17 -0.3,0.01 -0.58,0.09 -0.84,0.23l-0.14 -0.35c0.15,-0.08 0.31,-0.14 0.48,-0.19 0.17,-0.04 0.35,-0.06 0.52,-0.06 0.29,-0.03 0.57,0.06 0.79,0.23 0.19,0.21 0.28,0.48 0.26,0.76l0 2.02 -0.33 -0.01zm-0.35 -3.37c-0.08,0 -0.16,-0.01 -0.23,-0.05 -0.07,-0.03 -0.15,-0.07 -0.22,-0.11 -0.07,-0.04 -0.14,-0.07 -0.2,-0.11 -0.06,-0.03 -0.13,-0.05 -0.19,-0.05 -0.08,0 -0.16,0.03 -0.21,0.08 -0.05,0.08 -0.09,0.16 -0.11,0.25l-0.26 0c0.01,-0.19 0.08,-0.37 0.19,-0.51 0.1,-0.13 0.25,-0.19 0.4,-0.19 0.09,0 0.17,0.02 0.24,0.05 0.08,0.03 0.15,0.07 0.22,0.11l0.21 0.11c0.06,0.03 0.12,0.05 0.18,0.05 0.08,0.01 0.15,-0.02 0.2,-0.08 0.05,-0.07 0.09,-0.16 0.1,-0.25l0.27 0c-0.01,0.19 -0.07,0.37 -0.19,0.52 -0.09,0.12 -0.25,0.19 -0.41,0.18l0.01 0zm-0.65 3.05c0.24,0.02 0.47,-0.07 0.66,-0.23 0.16,-0.17 0.25,-0.4 0.23,-0.64l0 -0.27 -0.45 0c-0.26,-0.01 -0.53,0.05 -0.77,0.17 -0.15,0.1 -0.25,0.27 -0.23,0.45 -0.02,0.14 0.04,0.28 0.14,0.38 0.12,0.09 0.27,0.15 0.42,0.14z"/>
  <path fill="#FEFEFE" fill-rule="nonzero" d="M83.16 18.78c0.02,0.41 -0.11,0.82 -0.37,1.14 -0.26,0.27 -0.63,0.42 -1.01,0.4 -0.24,0 -0.48,-0.06 -0.69,-0.18 -0.21,-0.13 -0.37,-0.32 -0.48,-0.54 -0.11,-0.25 -0.17,-0.53 -0.17,-0.82 -0.03,-0.4 0.1,-0.81 0.35,-1.13 0.26,-0.28 0.64,-0.43 1.03,-0.4 0.37,-0.01 0.73,0.15 0.97,0.43 0.26,0.31 0.39,0.7 0.37,1.1zm-2.26 0c-0.02,0.31 0.06,0.61 0.22,0.87 0.34,0.37 0.91,0.4 1.28,0.06l0.06 -0.06c0.17,-0.26 0.25,-0.56 0.23,-0.87 0.02,-0.3 -0.06,-0.6 -0.23,-0.86 -0.34,-0.37 -0.92,-0.39 -1.29,-0.04l-0.05 0.04c-0.16,0.26 -0.24,0.56 -0.22,0.86z"/>
  <path fill="#FEFEFE" fill-rule="nonzero" d="M88.06 19.87l0 0c-0.21,0.31 -0.57,0.48 -0.93,0.45 -0.35,0.02 -0.69,-0.13 -0.91,-0.4 -0.24,-0.32 -0.35,-0.72 -0.32,-1.13 -0.03,-0.4 0.09,-0.8 0.32,-1.14 0.22,-0.27 0.56,-0.42 0.91,-0.4 0.36,-0.02 0.71,0.14 0.93,0.43l0.03 0 -0.01 -0.21 0 -0.21 0 -1.2 0.44 0 0 4.21 -0.36 0 -0.1 -0.4zm-0.9 0.08c0.25,0.02 0.5,-0.07 0.67,-0.25 0.16,-0.24 0.23,-0.53 0.2,-0.81l0 -0.1c0.03,-0.31 -0.04,-0.63 -0.21,-0.9 -0.16,-0.19 -0.41,-0.29 -0.67,-0.27 -0.24,-0.01 -0.47,0.11 -0.6,0.31 -0.16,0.26 -0.23,0.56 -0.21,0.87 -0.02,0.3 0.05,0.6 0.21,0.86 0.14,0.2 0.38,0.31 0.62,0.29l-0.01 0z"/>
  <path fill="#FEFEFE" fill-rule="nonzero" d="M91.04 20.32c-0.39,0.02 -0.77,-0.12 -1.04,-0.4 -0.27,-0.3 -0.41,-0.7 -0.38,-1.11 -0.03,-0.41 0.1,-0.81 0.34,-1.14 0.24,-0.28 0.59,-0.44 0.95,-0.42 0.34,-0.02 0.66,0.12 0.88,0.37 0.23,0.27 0.35,0.61 0.33,0.96l0 0.29 -2.05 0c-0.01,0.29 0.09,0.57 0.27,0.79 0.18,0.18 0.43,0.28 0.69,0.27 0.33,0 0.65,-0.07 0.95,-0.2l0 0.4c-0.15,0.07 -0.3,0.12 -0.45,0.15 -0.17,0.03 -0.33,0.04 -0.49,0.04zm-0.13 -2.7c-0.21,-0.01 -0.42,0.08 -0.56,0.24 -0.16,0.18 -0.25,0.4 -0.26,0.64l1.56 0c0.01,-0.23 -0.05,-0.46 -0.19,-0.65 -0.14,-0.15 -0.34,-0.24 -0.55,-0.23z"/>
  <path fill="#FEFEFE" fill-rule="nonzero" d="M98.23 18.25c0.04,0.56 -0.16,1.1 -0.53,1.51 -0.42,0.37 -0.98,0.56 -1.53,0.52l-1.1 0 0 -3.97 1.21 0c0.98,-0.1 1.85,0.62 1.95,1.6 0.01,0.11 0.01,0.23 0,0.34zm-0.49 0c0.03,-0.42 -0.11,-0.84 -0.39,-1.16 -0.31,-0.29 -0.73,-0.43 -1.15,-0.4l-0.67 0 0 3.17 0.56 0c0.45,0.03 0.9,-0.11 1.24,-0.41 0.29,-0.32 0.44,-0.75 0.41,-1.18l0 -0.02z"/>
  <path fill="#FEFEFE" fill-rule="nonzero" d="M101.2 20.27l-0.09 -0.42 -0.02 0c-0.11,0.16 -0.27,0.28 -0.44,0.38 -0.18,0.07 -0.36,0.1 -0.55,0.09 -0.25,0.02 -0.5,-0.06 -0.7,-0.22 -0.17,-0.17 -0.26,-0.41 -0.25,-0.65 0,-0.6 0.48,-0.91 1.44,-0.94l0.51 0 0 -0.19c0.01,-0.18 -0.04,-0.37 -0.15,-0.51 -0.13,-0.13 -0.31,-0.19 -0.48,-0.17 -0.3,0.01 -0.59,0.09 -0.84,0.23l-0.14 -0.35c0.15,-0.08 0.31,-0.14 0.48,-0.19 0.17,-0.04 0.35,-0.06 0.52,-0.06 0.29,-0.03 0.57,0.06 0.79,0.23 0.19,0.21 0.28,0.48 0.26,0.76l0 2.02 -0.34 -0.01zm-1.01 -0.32c0.24,0.02 0.48,-0.07 0.66,-0.23 0.17,-0.17 0.25,-0.4 0.24,-0.64l0 -0.27 -0.45 0c-0.27,-0.01 -0.53,0.05 -0.77,0.17 -0.16,0.1 -0.25,0.27 -0.24,0.45 -0.01,0.14 0.04,0.28 0.15,0.38 0.11,0.09 0.26,0.15 0.41,0.14z"/>
  <path fill="#FEFEFE" fill-rule="nonzero" d="M104.81 19.87l-0.02 0c-0.21,0.31 -0.56,0.48 -0.93,0.45 -0.35,0.02 -0.68,-0.13 -0.9,-0.4 -0.23,-0.32 -0.35,-0.72 -0.32,-1.13 -0.03,-0.4 0.09,-0.8 0.32,-1.14 0.22,-0.27 0.56,-0.42 0.91,-0.4 0.36,-0.02 0.7,0.14 0.91,0.43l0.04 0 -0.02 -0.21 0 -0.21 0 -1.2 0.45 0 0 4.21 -0.37 0 -0.07 -0.4zm-0.9 0.08c0.25,0.02 0.5,-0.07 0.67,-0.25 0.16,-0.24 0.23,-0.53 0.21,-0.81l0 -0.1c0.03,-0.31 -0.05,-0.63 -0.21,-0.9 -0.17,-0.19 -0.42,-0.29 -0.67,-0.27 -0.24,-0.01 -0.47,0.11 -0.61,0.31 -0.15,0.26 -0.22,0.56 -0.2,0.87 -0.03,0.3 0.05,0.6 0.2,0.86 0.14,0.19 0.37,0.3 0.61,0.29z"/>
  <path fill="#FEFEFE" fill-rule="nonzero" d="M109.09 18.78c0.02,0.41 -0.11,0.82 -0.37,1.14 -0.26,0.27 -0.63,0.42 -1.01,0.4 -0.24,0 -0.48,-0.06 -0.69,-0.18 -0.21,-0.13 -0.38,-0.32 -0.48,-0.54 -0.11,-0.26 -0.17,-0.53 -0.17,-0.82 -0.02,-0.4 0.1,-0.81 0.35,-1.13 0.26,-0.27 0.63,-0.42 1.01,-0.4 0.38,-0.01 0.74,0.14 0.99,0.43 0.25,0.31 0.39,0.7 0.37,1.1zm-2.26 0c-0.02,0.31 0.06,0.61 0.22,0.87 0.34,0.37 0.91,0.4 1.28,0.07l0.06 -0.07c0.17,-0.26 0.25,-0.56 0.23,-0.87 0.02,-0.3 -0.06,-0.6 -0.23,-0.86 -0.34,-0.37 -0.93,-0.39 -1.3,-0.04l-0.04 0.04c-0.16,0.26 -0.24,0.56 -0.22,0.86z"/>
  <path fill="#FEFEFE" fill-rule="nonzero" d="M112.12 19.46c0.02,0.25 -0.1,0.49 -0.31,0.64 -0.25,0.16 -0.56,0.24 -0.86,0.22 -0.32,0.02 -0.64,-0.04 -0.92,-0.18l0 -0.42c0.14,0.07 0.3,0.13 0.46,0.17 0.15,0.04 0.31,0.06 0.47,0.06 0.18,0.01 0.37,-0.03 0.54,-0.11 0.19,-0.11 0.24,-0.35 0.13,-0.54l-0.09 -0.1c-0.18,-0.12 -0.38,-0.22 -0.59,-0.29 -0.2,-0.07 -0.4,-0.16 -0.59,-0.27 -0.1,-0.06 -0.19,-0.15 -0.26,-0.26 -0.06,-0.11 -0.09,-0.23 -0.08,-0.35 0,-0.23 0.11,-0.44 0.29,-0.57 0.25,-0.15 0.53,-0.23 0.81,-0.21 0.33,0 0.64,0.06 0.94,0.19l-0.16 0.35c-0.26,-0.11 -0.53,-0.18 -0.81,-0.18 -0.16,-0.01 -0.33,0.02 -0.48,0.1 -0.1,0.05 -0.16,0.16 -0.16,0.27 0,0.08 0.02,0.15 0.06,0.21 0.05,0.06 0.12,0.12 0.19,0.16 0.17,0.08 0.35,0.15 0.52,0.22 0.27,0.07 0.51,0.21 0.72,0.38 0.12,0.14 0.19,0.32 0.18,0.51z"/>
  <path fill="#FEFEFE" fill-rule="nonzero" d="M45.93 2.94c0.54,-0.01 1.08,0.07 1.59,0.25 0.46,0.14 0.87,0.38 1.23,0.69 0.34,0.3 0.61,0.67 0.79,1.09 0.19,0.45 0.28,0.93 0.28,1.42 0.01,0.47 -0.09,0.94 -0.29,1.37 -0.19,0.4 -0.46,0.76 -0.81,1.04 -0.37,0.31 -0.8,0.54 -1.26,0.69 -0.52,0.17 -1.08,0.25 -1.63,0.25l-1.08 0 0 2.22c0.02,0.13 -0.07,0.25 -0.2,0.27l-0.06 0 -1.7 0c-0.13,0.01 -0.25,-0.08 -0.27,-0.2l0.01 -0.07 0 -8.76c-0.02,-0.13 0.06,-0.25 0.19,-0.26l0.07 0 3.14 0zm-0.13 4.82c0.27,0.01 0.53,-0.04 0.78,-0.12 0.2,-0.08 0.38,-0.19 0.54,-0.33 0.14,-0.12 0.25,-0.27 0.32,-0.45 0.08,-0.15 0.11,-0.33 0.11,-0.5 0,-0.18 -0.04,-0.36 -0.11,-0.53 -0.07,-0.18 -0.18,-0.34 -0.32,-0.46 -0.16,-0.15 -0.35,-0.27 -0.55,-0.35 -0.24,-0.09 -0.51,-0.14 -0.77,-0.13l-1.04 0 0 2.86 1.04 0.01z"/>
  <path fill="#FEFEFE" fill-rule="nonzero" d="M58.85 10.31c0.13,-0.02 0.25,0.07 0.26,0.2l0 0.06 0 1.42c0.02,0.13 -0.07,0.25 -0.19,0.27l-0.07 0 -6.09 0c-0.13,0.01 -0.24,-0.08 -0.26,-0.21l0 -0.06 0 -8.79c-0.02,-0.13 0.07,-0.25 0.19,-0.26l0.07 0 6.02 0c0.13,-0.02 0.25,0.07 0.27,0.2l0 0.06 0 1.43c0.02,0.13 -0.07,0.25 -0.2,0.27l-0.07 0 -4.06 0 0 1.69 3.56 0c0.13,-0.02 0.24,0.06 0.26,0.19l0 0.07 0 1.43c0.02,0.13 -0.07,0.25 -0.2,0.27l-0.06 0 -3.56 0 0 1.76 4.13 0z"/>
  <path fill="#FEFEFE" fill-rule="nonzero" d="M70.57 2.94c0.13,-0.02 0.25,0.07 0.27,0.2l0 0.06 0 8.91c0.01,0.13 -0.08,0.25 -0.2,0.26l-0.07 0 -0.77 0c-0.13,0.01 -0.26,-0.04 -0.34,-0.14l-5.11 -5.46 0 5.22c0.02,0.13 -0.07,0.25 -0.2,0.27l-0.06 0 -1.65 0c-0.13,0.01 -0.25,-0.07 -0.26,-0.2l0 -0.07 0 -8.87c-0.02,-0.13 0.07,-0.25 0.2,-0.26l0.06 0 0.77 0c0.13,-0.01 0.26,0.05 0.35,0.14l5.09 5.42 0 -5.22c-0.02,-0.13 0.07,-0.25 0.2,-0.26l0.06 0 1.66 0z"/>
  <path fill="#FEFEFE" fill-rule="nonzero" d="M80.05 7.34c0.52,0.1 0.97,0.4 1.29,0.82 0.29,0.41 0.45,0.91 0.44,1.42 0.03,0.75 -0.29,1.47 -0.87,1.96 -0.57,0.48 -1.5,0.72 -2.79,0.72l-3.61 0c-0.13,0.01 -0.25,-0.08 -0.26,-0.21l0 -0.06 0 -8.79c-0.02,-0.13 0.07,-0.25 0.19,-0.26l0.07 0 3.43 0c0.54,-0.02 1.08,0.05 1.6,0.18 0.38,0.1 0.75,0.27 1.08,0.5 0.26,0.2 0.47,0.46 0.61,0.76 0.14,0.29 0.2,0.62 0.2,0.94 0.04,0.91 -0.53,1.73 -1.38,2.02l0 0zm-0.75 -1.61c0.01,-0.27 -0.11,-0.53 -0.32,-0.71 -0.32,-0.2 -0.69,-0.29 -1.06,-0.26l-1.5 0 0 1.94 1.5 0c0.37,0.03 0.74,-0.06 1.06,-0.25 0.21,-0.18 0.33,-0.44 0.32,-0.72zm-1.17 4.7c0.4,0.03 0.79,-0.06 1.13,-0.27 0.22,-0.17 0.35,-0.43 0.34,-0.71 0.03,-0.3 -0.1,-0.59 -0.34,-0.77 -0.35,-0.2 -0.76,-0.29 -1.16,-0.26l-1.66 0 0 2.01 1.69 0z"/>
  <path fill="#FEFEFE" fill-rule="nonzero" d="M92.93 11.95c0.04,0.07 0.04,0.16 0,0.23 -0.06,0.05 -0.13,0.08 -0.21,0.08l-1.79 0c-0.14,0 -0.27,-0.08 -0.31,-0.22l-0.58 -1.44 -3.6 0 -0.59 1.44c-0.04,0.14 -0.17,0.22 -0.31,0.22l-1.79 0c-0.08,0 -0.15,-0.03 -0.21,-0.08 -0.04,-0.07 -0.04,-0.16 0,-0.23l3.93 -8.83c0.05,-0.13 0.18,-0.21 0.32,-0.2l0.94 0c0.13,-0.01 0.26,0.07 0.31,0.2l3.89 8.83zm-5.78 -3.22l2.18 0 -1.09 -2.63 -1.09 2.63z"/>
  <path fill="#FEFEFE" fill-rule="nonzero" d="M103.75 2.94c0.13,-0.02 0.25,0.07 0.26,0.2l0 0.06 0 8.91c0.02,0.13 -0.06,0.25 -0.19,0.26l-0.07 0 -0.79 0c-0.13,0.01 -0.25,-0.04 -0.34,-0.14l-5.09 -5.46 0 5.22c0.02,0.13 -0.07,0.25 -0.2,0.27l-0.07 0 -1.64 0c-0.13,0.01 -0.25,-0.08 -0.26,-0.21l0 -0.06 0 -8.87c-0.02,-0.13 0.07,-0.25 0.19,-0.26l0.07 0 0.76 0c0.13,-0.01 0.25,0.05 0.34,0.14l5.09 5.42 0 -5.22c-0.01,-0.13 0.08,-0.25 0.21,-0.26l0.06 0 1.67 0z"/>
  <path fill="#FEFEFE" fill-rule="nonzero" d="M115.58 11.92c0.08,0.09 0.1,0.17 0.07,0.24 -0.03,0.06 -0.1,0.1 -0.22,0.1l-2.2 0c-0.13,0 -0.26,-0.05 -0.34,-0.15l-3.27 -3.57 0 3.45c0.02,0.13 -0.07,0.25 -0.2,0.27l-0.06 0 -1.7 0c-0.13,0.01 -0.25,-0.07 -0.27,-0.2l0 -0.07 0 -8.79c-0.01,-0.13 0.08,-0.25 0.21,-0.26l0.06 0 1.7 0c0.13,-0.02 0.24,0.06 0.26,0.19l0 0.07 0 3.65 3.34 -3.77c0.09,-0.1 0.22,-0.15 0.35,-0.14l1.95 0c0.11,0 0.19,0.03 0.21,0.09 0.02,0.09 0,0.18 -0.06,0.24l-3.85 4.27 4.02 4.38z"/>
  <path fill="#FEFEFE" fill-rule="nonzero" d="M39.23 5.75c-0.49,-1.16 -1.4,-2.1 -2.54,-2.63 -0.62,-0.25 -1.29,-0.39 -1.96,-0.39l-0.02 0c-2.68,0.04 -4.82,2.25 -4.78,4.93 0.04,2.3 1.7,4.27 3.96,4.69 0.12,0.02 0.23,-0.06 0.25,-0.18l0 -0.04 0 -1.7c0,-0.1 -0.07,-0.19 -0.16,-0.21 -1.47,-0.41 -2.32,-1.93 -1.92,-3.39 0.41,-1.47 1.93,-2.32 3.39,-1.91 1.47,0.4 2.32,1.92 1.92,3.38 -0.14,0.49 -0.41,0.94 -0.78,1.28 -0.22,0.22 -0.48,0.4 -0.77,0.51l-0.06 0.03 -0.09 0.03 -0.22 0.07c-0.1,0.03 -0.16,0.11 -0.17,0.21l0 1.7c0,0.12 0.1,0.22 0.22,0.22l0.03 0c2.65,-0.46 4.43,-2.98 3.97,-5.63 -0.06,-0.33 -0.15,-0.65 -0.27,-0.97z"/>
  <path fill="#FEFEFE" fill-rule="nonzero" d="M127.92 7.49c0.5,0.13 0.94,0.41 1.27,0.8 0.31,0.38 0.47,0.85 0.46,1.33 0.04,0.75 -0.27,1.46 -0.83,1.95 -0.68,0.5 -1.51,0.74 -2.35,0.69l-3.05 0c-0.07,0.01 -0.14,-0.04 -0.15,-0.11l0 -0.03 0 -9.02c-0.01,-0.07 0.04,-0.13 0.11,-0.14l0.04 0 2.7 0c0.49,-0.02 0.98,0.04 1.45,0.16 0.38,0.1 0.74,0.28 1.04,0.52 0.26,0.21 0.46,0.48 0.59,0.78 0.13,0.32 0.2,0.67 0.19,1.01 0.01,0.47 -0.14,0.92 -0.43,1.29 -0.27,0.35 -0.63,0.61 -1.04,0.77zm0.83 -2c0.02,-0.55 -0.21,-1.07 -0.63,-1.43 -0.42,-0.36 -1.09,-0.54 -2.01,-0.54l-2.21 0 0 3.71 2.77 0c0.54,0.02 1.07,-0.14 1.51,-0.47 0.38,-0.31 0.59,-0.78 0.57,-1.27l0 0zm-2.3 6.21c0.68,0.04 1.34,-0.16 1.89,-0.56 0.46,-0.38 0.72,-0.95 0.69,-1.55 0,-0.22 -0.05,-0.44 -0.13,-0.64 -0.1,-0.23 -0.24,-0.42 -0.43,-0.58 -0.22,-0.18 -0.47,-0.31 -0.74,-0.4 -0.34,-0.11 -0.7,-0.16 -1.06,-0.16l-2.77 0 0 3.89 2.55 0z"/>
  <path fill="#FEFEFE" fill-rule="nonzero" d="M139.71 12.1l0.03 0.12 -0.13 0.05 -0.44 0c-0.07,0 -0.14,-0.03 -0.18,-0.09l-2.13 -3.17 -0.42 0.05c-0.14,0 -0.29,0.02 -0.44,0.02l-2.13 0 0 3.05c0.01,0.07 -0.04,0.14 -0.11,0.15l-0.04 0 -0.35 0c-0.1,0 -0.15,-0.05 -0.15,-0.15l0 -9.01c0,-0.07 0.04,-0.14 0.11,-0.15l0.04 0 2.72 0c0.47,0 0.94,0.06 1.39,0.18 0.41,0.11 0.78,0.3 1.11,0.56 0.32,0.25 0.57,0.57 0.73,0.94 0.18,0.44 0.27,0.91 0.26,1.39 0.02,0.64 -0.17,1.27 -0.55,1.79 -0.39,0.5 -0.93,0.86 -1.53,1.04l2.21 3.23zm-3.71 -3.61c0.77,0.04 1.54,-0.19 2.16,-0.66 0.54,-0.45 0.84,-1.13 0.8,-1.83 0.01,-0.39 -0.06,-0.77 -0.22,-1.12 -0.14,-0.3 -0.34,-0.56 -0.6,-0.77 -0.27,-0.21 -0.57,-0.36 -0.9,-0.45 -0.37,-0.1 -0.75,-0.14 -1.12,-0.14l-2.25 0 0 4.97 2.13 0z"/>
  <path fill="#FEFEFE" fill-rule="nonzero" d="M150.45 12.11c0.05,0.11 0,0.16 -0.12,0.16l-0.37 0c-0.07,0 -0.14,-0.05 -0.16,-0.12l-0.9 -2.12 -5.2 0 -0.88 2.12c-0.03,0.08 -0.1,0.12 -0.18,0.12l-0.34 0c-0.13,0 -0.17,-0.05 -0.12,-0.16l3.83 -9.04c0.03,-0.07 0.1,-0.12 0.17,-0.12l0.29 0c0.08,-0.01 0.15,0.04 0.18,0.12l3.8 9.04zm-6.52 -2.65l4.73 0 -2.37 -5.65 -2.36 5.65z"/>
  <path fill="#FEFEFE" fill-rule="nonzero" d="M155.65 12.39c-1.07,0.03 -2.12,-0.27 -3.01,-0.86 -0.1,-0.05 -0.11,-0.12 -0.04,-0.2l0.18 -0.29c0.05,-0.09 0.11,-0.11 0.2,-0.05 0.37,0.27 0.78,0.47 1.21,0.61 0.46,0.15 0.95,0.22 1.43,0.22 0.33,0 0.67,-0.04 0.99,-0.14 0.28,-0.07 0.54,-0.2 0.77,-0.38 0.21,-0.16 0.38,-0.37 0.49,-0.61 0.12,-0.25 0.18,-0.52 0.18,-0.8 0.02,-0.5 -0.19,-0.99 -0.55,-1.33 -0.55,-0.43 -1.2,-0.72 -1.88,-0.86 -0.75,-0.16 -1.46,-0.49 -2.08,-0.95 -0.45,-0.4 -0.7,-0.98 -0.67,-1.58 0,-0.33 0.07,-0.66 0.21,-0.96 0.14,-0.29 0.34,-0.54 0.59,-0.74 0.27,-0.22 0.58,-0.38 0.91,-0.48 0.38,-0.12 0.77,-0.18 1.17,-0.18 0.49,0 0.99,0.07 1.47,0.2 0.39,0.11 0.76,0.29 1.09,0.52 0.07,0.07 0.08,0.14 0.02,0.2l-0.16 0.25c-0.03,0.06 -0.1,0.09 -0.16,0.06l-0.04 -0.02c-0.3,-0.21 -0.64,-0.37 -1,-0.48 -0.4,-0.11 -0.81,-0.16 -1.22,-0.16 -0.59,-0.02 -1.16,0.14 -1.64,0.47 -0.4,0.3 -0.63,0.78 -0.62,1.28 -0.02,0.46 0.18,0.91 0.55,1.19 0.54,0.34 1.12,0.6 1.74,0.75 0.45,0.12 0.89,0.27 1.31,0.47 0.33,0.14 0.64,0.34 0.9,0.58 0.23,0.2 0.4,0.46 0.51,0.74 0.12,0.31 0.17,0.63 0.16,0.96 0.01,0.37 -0.07,0.74 -0.22,1.07 -0.15,0.32 -0.37,0.59 -0.64,0.81 -0.28,0.23 -0.6,0.4 -0.95,0.5 -0.39,0.12 -0.79,0.19 -1.2,0.19z"/>
  <path fill="#FEFEFE" fill-rule="nonzero" d="M162.21 12.27c-0.1,0 -0.15,-0.05 -0.15,-0.15l0 -9.01c-0.01,-0.07 0.03,-0.14 0.11,-0.15l0.04 0 0.34 0c0.08,-0.01 0.14,0.04 0.15,0.12l0 0.03 0 9.02c0.01,0.07 -0.04,0.14 -0.11,0.15l-0.04 0 -0.34 -0.01z"/>
  <path fill="#FEFEFE" fill-rule="nonzero" d="M172.58 11.7c0.1,0 0.15,0.04 0.15,0.13l0 0.3c0.01,0.07 -0.03,0.14 -0.1,0.15l-0.05 0 -5.57 0c-0.1,0 -0.15,-0.05 -0.15,-0.15l0 -9.01c-0.01,-0.07 0.04,-0.14 0.11,-0.15l0.04 0 0.34 0c0.07,-0.01 0.14,0.04 0.15,0.11l0 0.04 0 8.58 5.08 0z"/>
  <path fill="#3A6FAE" fill-rule="nonzero" d="M11.62 0l-0.03 0c-6.39,0 -11.57,5.17 -11.59,11.56l0 0.03c0,5.66 4.09,10.5 9.68,11.43l0.08 0.01c0.25,0 0.47,-0.18 0.51,-0.44l0 -0.08 0 -4.06c0,-0.23 -0.16,-0.44 -0.39,-0.5l-0.03 0c-2.91,-0.81 -4.83,-3.46 -4.83,-6.34 0,-0.58 0.08,-1.18 0.25,-1.76 0.8,-2.92 3.45,-4.83 6.34,-4.83 0.58,0 1.17,0.08 1.76,0.24 2.92,0.81 4.83,3.46 4.83,6.34 0,0.58 -0.08,1.18 -0.24,1.77 -0.33,1.17 -0.97,2.23 -1.87,3.06 -0.52,0.53 -1.15,0.94 -1.84,1.21l-0.13 0.07 -0.24 0.08c-0.17,0.06 -0.34,0.12 -0.51,0.16 -0.23,0.06 -0.4,0.27 -0.4,0.51l0 4.07c0,0.29 0.23,0.52 0.52,0.52l0.08 0c5.49,-0.94 9.67,-5.71 9.66,-11.45 0,-1.4 -0.25,-2.85 -0.79,-4.32 -0.91,-2.52 -3.6,-5.35 -6.07,-6.34 -1.5,-0.61 -3.09,-0.93 -4.7,-0.94l-0.05 0z"/>
 </g>
</svg>
