<?xml version="1.0" encoding="UTF-8"?>
<!DOCTYPE svg PUBLIC "-//W3C//DTD SVG 1.1//EN" "http://www.w3.org/Graphics/SVG/1.1/DTD/svg11.dtd">
<!-- Creator: CorelDRAW 2021 (64-Bit) -->
<svg xmlns="http://www.w3.org/2000/svg" xml:space="preserve" width="235px" height="31px" version="1.1" shape-rendering="geometricPrecision" text-rendering="geometricPrecision" image-rendering="optimizeQuality" fill-rule="evenodd" clip-rule="evenodd"
viewBox="0 0 93.01 12.41"
 xmlns:xlink="http://www.w3.org/1999/xlink"
 xmlns:xodm="http://www.corel.com/coreldraw/odm/2003">
 <g id="Camada_x0020_1">
  <metadata id="CorelCorpID_0Corel-Layer"/>
  <g id="_2714758123952">
   <path fill="#FEFEFE" fill-rule="nonzero" d="M17.78 10.96l-0.28 -0.71 -0.89 0 -0.27 0.71 -0.26 0 0.88 -2.23 0.21 0 0.88 2.23 -0.27 0zm-0.36 -0.94l-0.26 -0.69c-0.03,-0.08 -0.07,-0.19 -0.1,-0.32 -0.03,0.11 -0.06,0.22 -0.1,0.32l-0.26 0.69 0.72 0z"/>
   <path fill="#FEFEFE" fill-rule="nonzero" d="M18.74 9.29l0 1.09c-0.01,0.11 0.02,0.21 0.09,0.3 0.08,0.07 0.19,0.11 0.29,0.1 0.15,0.02 0.29,-0.04 0.39,-0.14 0.09,-0.14 0.14,-0.3 0.12,-0.47l0 -0.88 0.26 0 0 1.67 -0.22 0 -0.03 -0.22 -0.01 0c-0.06,0.08 -0.13,0.15 -0.22,0.19 -0.1,0.05 -0.21,0.07 -0.31,0.07 -0.17,0.01 -0.33,-0.04 -0.46,-0.15 -0.11,-0.12 -0.17,-0.29 -0.15,-0.46l0 -1.1 0.25 0z"/>
   <path fill="#FEFEFE" fill-rule="nonzero" d="M21.73 10.74l-0.01 0c-0.12,0.17 -0.31,0.27 -0.52,0.25 -0.2,0.01 -0.39,-0.07 -0.51,-0.22 -0.13,-0.19 -0.2,-0.41 -0.18,-0.64 -0.02,-0.22 0.05,-0.45 0.18,-0.64 0.25,-0.28 0.68,-0.3 0.96,-0.05 0.02,0.02 0.05,0.04 0.07,0.07l0.02 0 -0.01 -0.12 0 -0.12 0 -0.67 0.25 0 0 2.36 -0.2 0 -0.05 -0.22zm-0.5 0.04c0.14,0.01 0.28,-0.04 0.38,-0.14 0.08,-0.13 0.12,-0.29 0.11,-0.45l0 -0.06c0.02,-0.17 -0.03,-0.35 -0.12,-0.5 -0.09,-0.11 -0.23,-0.17 -0.37,-0.15 -0.14,-0.01 -0.27,0.06 -0.34,0.17 -0.09,0.15 -0.13,0.32 -0.12,0.49 -0.01,0.16 0.03,0.33 0.12,0.48 0.07,0.11 0.2,0.17 0.34,0.16z"/>
   <path fill="#FEFEFE" fill-rule="nonzero" d="M22.68 8.84c-0.01,-0.04 0.01,-0.09 0.04,-0.12 0.03,-0.03 0.07,-0.05 0.11,-0.04 0.03,0 0.07,0.01 0.1,0.04 0.03,0.03 0.05,0.08 0.04,0.12 0.01,0.05 -0.01,0.1 -0.04,0.13 -0.03,0.03 -0.07,0.04 -0.1,0.04 -0.04,0 -0.08,-0.01 -0.11,-0.04 -0.03,-0.03 -0.05,-0.08 -0.04,-0.13zm0.27 2.12l-0.25 0 0 -1.67 0.25 0 0 1.67z"/>
   <path fill="#FEFEFE" fill-rule="nonzero" d="M24.21 10.78c0.04,0 0.09,0 0.13,-0.01 0.03,0 0.06,-0.01 0.1,-0.02l0 0.2c-0.04,0.02 -0.08,0.03 -0.13,0.03 -0.04,0.01 -0.09,0.01 -0.14,0.01 -0.32,0 -0.48,-0.17 -0.48,-0.5l0 -1 -0.24 0 0 -0.12 0.24 -0.1 0.11 -0.36 0.15 0 0 0.39 0.48 0 0 0.19 -0.49 0 0 0.98c0,0.08 0.02,0.16 0.07,0.23 0.05,0.05 0.12,0.09 0.2,0.08z"/>
   <path fill="#FEFEFE" fill-rule="nonzero" d="M26.4 10.13c0.01,0.23 -0.07,0.46 -0.21,0.63 -0.15,0.16 -0.35,0.24 -0.57,0.23 -0.13,0 -0.27,-0.03 -0.39,-0.1 -0.11,-0.07 -0.21,-0.18 -0.26,-0.3 -0.07,-0.15 -0.1,-0.3 -0.1,-0.46 -0.02,-0.23 0.05,-0.46 0.2,-0.64 0.31,-0.3 0.81,-0.3 1.12,0 0.14,0.18 0.22,0.41 0.21,0.64zm-1.28 0c-0.01,0.17 0.04,0.34 0.13,0.48 0.19,0.21 0.51,0.23 0.72,0.04l0.03 -0.04c0.1,-0.14 0.14,-0.31 0.13,-0.48 0.01,-0.17 -0.03,-0.34 -0.13,-0.48 -0.19,-0.21 -0.52,-0.22 -0.72,-0.03l-0.03 0.03c-0.09,0.14 -0.14,0.31 -0.13,0.48z"/>
   <path fill="#FEFEFE" fill-rule="nonzero" d="M27.79 9.27c0.06,0 0.13,0 0.19,0.01l-0.03 0.24c-0.07,-0.02 -0.13,-0.02 -0.19,-0.02 -0.13,0 -0.26,0.05 -0.34,0.16 -0.1,0.11 -0.15,0.26 -0.15,0.41l0 0.89 -0.25 0 0 -1.67 0.21 0 0.03 0.31 0.01 0c0.05,-0.1 0.13,-0.18 0.22,-0.25 0.09,-0.06 0.19,-0.09 0.3,-0.08z"/>
   <path fill="#FEFEFE" fill-rule="nonzero" d="M28.46 8.84c0,-0.04 0.01,-0.09 0.04,-0.12 0.03,-0.03 0.07,-0.05 0.11,-0.04 0.04,0 0.08,0.01 0.11,0.04 0.03,0.03 0.04,0.08 0.04,0.12 0,0.05 -0.01,0.1 -0.04,0.13 -0.03,0.03 -0.07,0.04 -0.11,0.04 -0.04,0 -0.08,-0.01 -0.11,-0.04 -0.03,-0.03 -0.04,-0.08 -0.04,-0.13zm0.28 2.12l-0.26 0 0 -1.67 0.26 0 0 1.67z"/>
   <path fill="#FEFEFE" fill-rule="nonzero" d="M30.48 10.96l-0.05 -0.23 -0.01 0c-0.07,0.08 -0.15,0.16 -0.25,0.21 -0.1,0.04 -0.2,0.06 -0.31,0.05 -0.14,0.01 -0.28,-0.03 -0.39,-0.12 -0.09,-0.1 -0.15,-0.23 -0.14,-0.37 0,-0.34 0.27,-0.51 0.81,-0.53l0.28 0 0 -0.1c0.01,-0.11 -0.02,-0.21 -0.08,-0.29 -0.07,-0.07 -0.17,-0.1 -0.27,-0.09 -0.17,0 -0.33,0.05 -0.47,0.12l-0.08 -0.19c0.08,-0.05 0.17,-0.08 0.27,-0.11 0.09,-0.02 0.19,-0.03 0.29,-0.04 0.16,-0.01 0.32,0.04 0.45,0.14 0.1,0.11 0.15,0.27 0.14,0.42l0 1.14 -0.19 -0.01zm-0.57 -0.18c0.14,0.01 0.27,-0.03 0.37,-0.12 0.1,-0.1 0.15,-0.23 0.14,-0.37l0 -0.15 -0.26 0c-0.15,0 -0.3,0.03 -0.43,0.1 -0.09,0.05 -0.14,0.15 -0.13,0.25 -0.01,0.08 0.02,0.16 0.08,0.21 0.06,0.06 0.15,0.09 0.23,0.08z"/>
   <path fill="#FEFEFE" fill-rule="nonzero" d="M33.08 10.99c-0.22,0.01 -0.43,-0.07 -0.59,-0.22 -0.15,-0.17 -0.22,-0.4 -0.21,-0.63 -0.01,-0.23 0.06,-0.45 0.19,-0.64 0.13,-0.16 0.33,-0.24 0.54,-0.23 0.18,-0.01 0.37,0.06 0.49,0.2 0.13,0.15 0.2,0.35 0.19,0.54l0 0.16 -1.15 0c-0.01,0.17 0.04,0.32 0.14,0.45 0.11,0.1 0.25,0.16 0.39,0.15 0.19,0 0.37,-0.04 0.54,-0.11l0 0.23c-0.09,0.03 -0.17,0.06 -0.26,0.08 -0.09,0.01 -0.18,0.02 -0.27,0.02zm-0.07 -1.51c-0.12,-0.01 -0.24,0.04 -0.32,0.13 -0.09,0.1 -0.14,0.23 -0.14,0.36l0.87 0c0.01,-0.13 -0.03,-0.26 -0.11,-0.37 -0.07,-0.08 -0.19,-0.13 -0.3,-0.12z"/>
   <path fill="#FEFEFE" fill-rule="nonzero" d="M36.32 9.8l0.76 0 0 1.08c-0.12,0.04 -0.24,0.06 -0.36,0.08 -0.14,0.02 -0.28,0.03 -0.42,0.03 -0.29,0.02 -0.58,-0.09 -0.78,-0.3 -0.2,-0.23 -0.3,-0.53 -0.28,-0.84 -0.01,-0.21 0.04,-0.42 0.14,-0.61 0.09,-0.17 0.23,-0.3 0.4,-0.39 0.19,-0.09 0.4,-0.14 0.61,-0.14 0.23,0 0.45,0.05 0.66,0.13l-0.1 0.23c-0.18,-0.08 -0.38,-0.12 -0.58,-0.12 -0.24,-0.02 -0.48,0.06 -0.65,0.23 -0.16,0.19 -0.25,0.43 -0.23,0.67 -0.02,0.25 0.06,0.49 0.22,0.68 0.17,0.17 0.41,0.25 0.65,0.24 0.15,0 0.3,-0.02 0.45,-0.06l0 -0.68 -0.5 0 0.01 -0.23z"/>
   <path fill="#FEFEFE" fill-rule="nonzero" d="M38.46 10.99c-0.22,0.01 -0.43,-0.07 -0.58,-0.22 -0.15,-0.17 -0.23,-0.4 -0.22,-0.63 -0.01,-0.23 0.06,-0.45 0.2,-0.63 0.13,-0.16 0.32,-0.25 0.53,-0.24 0.19,-0.01 0.37,0.07 0.5,0.21 0.12,0.15 0.19,0.34 0.18,0.54l0 0.16 -1.15 0c-0.01,0.16 0.05,0.32 0.15,0.44 0.1,0.11 0.24,0.16 0.39,0.16 0.18,0 0.36,-0.04 0.53,-0.12l0 0.23c-0.08,0.03 -0.17,0.06 -0.25,0.08 -0.1,0.02 -0.19,0.02 -0.28,0.02zm-0.07 -1.51c-0.12,-0.01 -0.24,0.04 -0.32,0.13 -0.08,0.1 -0.13,0.23 -0.14,0.36l0.87 0c0.01,-0.13 -0.03,-0.26 -0.11,-0.37 -0.07,-0.08 -0.18,-0.13 -0.3,-0.12z"/>
   <path fill="#FEFEFE" fill-rule="nonzero" d="M40.76 10.51c0.01,0.14 -0.06,0.28 -0.18,0.36 -0.14,0.09 -0.31,0.14 -0.48,0.13 -0.18,0.01 -0.36,-0.03 -0.52,-0.11l0 -0.23c0.08,0.04 0.17,0.07 0.26,0.09 0.08,0.02 0.17,0.04 0.26,0.04 0.11,0 0.21,-0.02 0.31,-0.06 0.1,-0.07 0.13,-0.2 0.07,-0.31 -0.01,-0.02 -0.03,-0.04 -0.05,-0.05 -0.1,-0.07 -0.21,-0.13 -0.33,-0.17 -0.11,-0.04 -0.23,-0.09 -0.33,-0.15 -0.06,-0.04 -0.11,-0.09 -0.15,-0.15 -0.03,-0.06 -0.05,-0.12 -0.05,-0.19 0,-0.13 0.07,-0.25 0.17,-0.32 0.14,-0.09 0.3,-0.13 0.46,-0.12 0.18,0 0.36,0.04 0.52,0.11l-0.09 0.19c-0.14,-0.06 -0.3,-0.1 -0.45,-0.1 -0.1,-0.01 -0.19,0.01 -0.27,0.06 -0.06,0.03 -0.1,0.09 -0.09,0.15 -0.01,0.04 0.01,0.08 0.03,0.12 0.03,0.03 0.07,0.06 0.11,0.09 0.1,0.04 0.19,0.08 0.29,0.12 0.15,0.04 0.29,0.12 0.4,0.22 0.08,0.07 0.12,0.17 0.11,0.28z"/>
   <path fill="#FEFEFE" fill-rule="nonzero" d="M41.9 10.78c0.04,0 0.09,0 0.13,-0.01 0.03,0 0.07,-0.01 0.1,-0.02l0 0.2c-0.04,0.01 -0.08,0.03 -0.12,0.03 -0.05,0.01 -0.1,0.01 -0.15,0.01 -0.32,0 -0.48,-0.17 -0.48,-0.5l0 -1 -0.24 0 0 -0.12 0.24 -0.1 0.11 -0.36 0.14 0 0 0.39 0.49 0 0 0.19 -0.49 0 0 0.98c0,0.08 0.02,0.16 0.07,0.23 0.05,0.05 0.13,0.09 0.2,0.08z"/>
   <path fill="#FEFEFE" fill-rule="nonzero" d="M43.67 10.96l-0.05 -0.23 -0.01 0c-0.06,0.08 -0.15,0.16 -0.25,0.21 -0.1,0.04 -0.2,0.06 -0.31,0.05 -0.14,0.01 -0.28,-0.03 -0.39,-0.12 -0.09,-0.1 -0.14,-0.23 -0.14,-0.37 0,-0.34 0.27,-0.51 0.81,-0.53l0.28 0 0 -0.1c0.01,-0.1 -0.02,-0.21 -0.08,-0.29 -0.07,-0.07 -0.17,-0.1 -0.27,-0.09 -0.17,0 -0.33,0.05 -0.47,0.12l-0.08 -0.19c0.09,-0.05 0.18,-0.08 0.27,-0.11 0.1,-0.02 0.2,-0.03 0.3,-0.04 0.15,-0.01 0.31,0.04 0.44,0.14 0.1,0.11 0.15,0.27 0.14,0.42l0 1.14 -0.19 -0.01zm-0.19 -1.89c-0.04,0 -0.09,-0.01 -0.13,-0.03 -0.04,-0.02 -0.08,-0.04 -0.12,-0.06 -0.04,-0.02 -0.08,-0.04 -0.12,-0.06 -0.03,-0.02 -0.07,-0.03 -0.1,-0.03 -0.05,0 -0.09,0.01 -0.12,0.05 -0.03,0.04 -0.05,0.08 -0.06,0.13l-0.15 0c0.01,-0.1 0.05,-0.2 0.11,-0.28 0.06,-0.07 0.14,-0.11 0.23,-0.11 0.04,0 0.09,0.01 0.13,0.03 0.04,0.02 0.08,0.04 0.13,0.06l0.11 0.07c0.03,0.01 0.07,0.02 0.1,0.02 0.04,0.01 0.09,-0.01 0.11,-0.04 0.03,-0.04 0.05,-0.09 0.06,-0.14l0.15 0c0,0.1 -0.04,0.2 -0.1,0.29 -0.06,0.07 -0.14,0.11 -0.23,0.1l0 0zm-0.37 1.71c0.14,0.01 0.27,-0.03 0.37,-0.12 0.1,-0.1 0.15,-0.23 0.14,-0.37l0 -0.15 -0.26 0c-0.15,0 -0.29,0.03 -0.43,0.1 -0.09,0.05 -0.14,0.15 -0.13,0.25 -0.01,0.08 0.02,0.16 0.08,0.21 0.07,0.06 0.15,0.09 0.23,0.08z"/>
   <path fill="#FEFEFE" fill-rule="nonzero" d="M46.01 10.13c0.01,0.23 -0.06,0.46 -0.21,0.63 -0.15,0.16 -0.35,0.24 -0.57,0.23 -0.13,0 -0.27,-0.03 -0.39,-0.1 -0.11,-0.07 -0.21,-0.18 -0.26,-0.3 -0.07,-0.15 -0.1,-0.3 -0.1,-0.46 -0.02,-0.23 0.05,-0.46 0.2,-0.64 0.14,-0.16 0.36,-0.24 0.57,-0.22 0.21,-0.01 0.41,0.08 0.55,0.24 0.14,0.17 0.22,0.39 0.21,0.62zm-1.27 0c-0.01,0.17 0.03,0.34 0.12,0.48 0.19,0.21 0.51,0.23 0.72,0.04l0.04 -0.04c0.09,-0.14 0.14,-0.31 0.12,-0.48 0.02,-0.17 -0.03,-0.34 -0.12,-0.48 -0.2,-0.21 -0.52,-0.22 -0.73,-0.03l-0.03 0.03c-0.09,0.14 -0.14,0.31 -0.12,0.48z"/>
   <path fill="#FEFEFE" fill-rule="nonzero" d="M48.76 10.74l0 0c-0.12,0.17 -0.32,0.26 -0.53,0.25 -0.19,0.01 -0.38,-0.07 -0.5,-0.22 -0.14,-0.19 -0.2,-0.41 -0.19,-0.64 -0.01,-0.22 0.05,-0.45 0.19,-0.64 0.12,-0.15 0.31,-0.23 0.5,-0.22 0.21,-0.02 0.4,0.07 0.53,0.24l0.02 0 -0.01 -0.12 0 -0.12 0 -0.67 0.25 0 0 2.36 -0.21 0 -0.05 -0.22zm-0.51 0.04c0.14,0.02 0.28,-0.04 0.38,-0.14 0.09,-0.13 0.13,-0.29 0.11,-0.45l0 -0.06c0.02,-0.17 -0.02,-0.35 -0.11,-0.5 -0.1,-0.11 -0.24,-0.17 -0.38,-0.15 -0.14,-0.01 -0.27,0.06 -0.34,0.17 -0.09,0.15 -0.13,0.32 -0.12,0.49 -0.01,0.16 0.03,0.33 0.12,0.48 0.08,0.11 0.21,0.17 0.35,0.16l-0.01 0z"/>
   <path fill="#FEFEFE" fill-rule="nonzero" d="M50.43 10.99c-0.22,0.01 -0.43,-0.07 -0.58,-0.22 -0.16,-0.17 -0.23,-0.4 -0.22,-0.63 -0.01,-0.23 0.06,-0.45 0.2,-0.64 0.13,-0.16 0.32,-0.24 0.53,-0.23 0.19,-0.01 0.37,0.06 0.49,0.2 0.13,0.15 0.2,0.35 0.19,0.54l0 0.16 -1.15 0c-0.01,0.17 0.05,0.32 0.15,0.45 0.1,0.1 0.24,0.16 0.39,0.15 0.18,0 0.36,-0.04 0.53,-0.11l0 0.23c-0.08,0.03 -0.17,0.06 -0.26,0.08 -0.09,0.01 -0.18,0.02 -0.27,0.02zm-0.07 -1.51c-0.12,-0.01 -0.24,0.04 -0.32,0.13 -0.08,0.1 -0.13,0.23 -0.14,0.36l0.87 0c0.01,-0.13 -0.03,-0.26 -0.1,-0.37 -0.08,-0.08 -0.19,-0.13 -0.31,-0.12z"/>
   <path fill="#FEFEFE" fill-rule="nonzero" d="M54.47 9.83c0.02,0.31 -0.09,0.62 -0.3,0.84 -0.24,0.21 -0.55,0.32 -0.86,0.3l-0.62 0 0 -2.23 0.68 0c0.55,-0.06 1.04,0.35 1.1,0.9 0,0.06 0,0.13 0,0.19zm-0.28 0c0.02,-0.24 -0.06,-0.47 -0.21,-0.65 -0.18,-0.16 -0.41,-0.24 -0.65,-0.23l-0.38 0 0 1.78 0.32 0c0.25,0.02 0.5,-0.06 0.69,-0.23 0.17,-0.18 0.25,-0.42 0.23,-0.66l0 -0.01z"/>
   <path fill="#FEFEFE" fill-rule="nonzero" d="M56.14 10.96l-0.05 -0.23 -0.01 0c-0.07,0.08 -0.15,0.16 -0.25,0.21 -0.1,0.04 -0.21,0.06 -0.31,0.05 -0.14,0.01 -0.28,-0.03 -0.39,-0.12 -0.1,-0.1 -0.15,-0.23 -0.14,-0.37 0,-0.34 0.27,-0.51 0.81,-0.53l0.28 0 0 -0.1c0.01,-0.1 -0.02,-0.21 -0.09,-0.29 -0.07,-0.07 -0.17,-0.1 -0.27,-0.09 -0.16,0 -0.32,0.05 -0.47,0.12l-0.07 -0.19c0.08,-0.05 0.17,-0.08 0.27,-0.11 0.09,-0.02 0.19,-0.03 0.29,-0.04 0.16,-0.01 0.32,0.04 0.44,0.14 0.11,0.11 0.16,0.27 0.15,0.42l0 1.14 -0.19 -0.01zm-0.57 -0.18c0.14,0.01 0.27,-0.03 0.37,-0.12 0.09,-0.1 0.14,-0.23 0.13,-0.37l0 -0.15 -0.25 0c-0.15,0 -0.3,0.03 -0.43,0.1 -0.09,0.05 -0.14,0.15 -0.13,0.25 -0.01,0.08 0.02,0.16 0.08,0.21 0.06,0.06 0.15,0.09 0.23,0.08z"/>
   <path fill="#FEFEFE" fill-rule="nonzero" d="M58.17 10.74l-0.02 0c-0.12,0.17 -0.31,0.26 -0.52,0.25 -0.19,0.01 -0.38,-0.07 -0.5,-0.22 -0.14,-0.19 -0.2,-0.41 -0.19,-0.64 -0.01,-0.22 0.06,-0.45 0.19,-0.64 0.12,-0.15 0.31,-0.23 0.51,-0.22 0.2,-0.01 0.39,0.08 0.51,0.24l0.02 0 -0.01 -0.12 0 -0.12 0 -0.67 0.25 0 0 2.36 -0.2 0 -0.04 -0.22zm-0.51 0.04c0.14,0.02 0.28,-0.04 0.38,-0.14 0.09,-0.13 0.13,-0.29 0.11,-0.45l0 -0.06c0.02,-0.17 -0.02,-0.35 -0.12,-0.5 -0.09,-0.11 -0.23,-0.17 -0.37,-0.15 -0.14,-0.01 -0.27,0.06 -0.34,0.17 -0.09,0.15 -0.13,0.32 -0.12,0.49 -0.01,0.16 0.03,0.33 0.12,0.48 0.08,0.11 0.21,0.17 0.34,0.16z"/>
   <path fill="#FEFEFE" fill-rule="nonzero" d="M60.57 10.13c0.01,0.23 -0.06,0.46 -0.21,0.63 -0.15,0.16 -0.35,0.24 -0.57,0.23 -0.13,0 -0.27,-0.03 -0.39,-0.1 -0.11,-0.07 -0.21,-0.18 -0.26,-0.3 -0.07,-0.15 -0.1,-0.3 -0.1,-0.46 -0.01,-0.23 0.06,-0.46 0.2,-0.64 0.14,-0.15 0.35,-0.24 0.56,-0.22 0.22,-0.01 0.42,0.08 0.56,0.24 0.14,0.17 0.22,0.39 0.21,0.62zm-1.27 0c-0.02,0.17 0.03,0.34 0.12,0.48 0.19,0.21 0.51,0.23 0.72,0.04l0.04 -0.04c0.09,-0.14 0.14,-0.31 0.12,-0.48 0.02,-0.17 -0.03,-0.34 -0.12,-0.48 -0.2,-0.21 -0.53,-0.22 -0.73,-0.03l-0.03 0.03c-0.09,0.14 -0.14,0.31 -0.12,0.48z"/>
   <path fill="#FEFEFE" fill-rule="nonzero" d="M62.27 10.51c0.01,0.14 -0.06,0.27 -0.17,0.36 -0.15,0.09 -0.32,0.13 -0.49,0.12 -0.18,0.01 -0.36,-0.03 -0.52,-0.1l0 -0.24c0.09,0.04 0.17,0.08 0.26,0.1 0.09,0.02 0.18,0.03 0.27,0.03 0.1,0.01 0.21,-0.01 0.3,-0.06 0.11,-0.06 0.14,-0.2 0.07,-0.3 -0.01,-0.02 -0.03,-0.04 -0.05,-0.06 -0.1,-0.07 -0.21,-0.12 -0.33,-0.16 -0.11,-0.04 -0.22,-0.09 -0.33,-0.15 -0.06,-0.04 -0.11,-0.09 -0.14,-0.15 -0.04,-0.06 -0.05,-0.13 -0.05,-0.19 0,-0.13 0.06,-0.25 0.16,-0.33 0.14,-0.08 0.3,-0.12 0.46,-0.11 0.18,0 0.36,0.03 0.53,0.1l-0.09 0.2c-0.15,-0.06 -0.3,-0.1 -0.46,-0.1 -0.09,-0.01 -0.19,0.01 -0.27,0.05 -0.06,0.03 -0.09,0.09 -0.09,0.16 0,0.04 0.01,0.08 0.03,0.11 0.03,0.04 0.07,0.07 0.11,0.09 0.1,0.05 0.2,0.09 0.3,0.12 0.14,0.05 0.28,0.12 0.4,0.22 0.07,0.08 0.11,0.18 0.1,0.29z"/>
   <path fill="#FEFEFE" fill-rule="nonzero" d="M24.73 1.58c0.29,0 0.58,0.04 0.86,0.14 0.24,0.08 0.47,0.2 0.66,0.37 0.18,0.16 0.33,0.36 0.42,0.59 0.11,0.24 0.16,0.5 0.15,0.76 0.01,0.26 -0.04,0.51 -0.15,0.74 -0.1,0.21 -0.25,0.4 -0.44,0.56 -0.2,0.16 -0.43,0.29 -0.67,0.37 -0.29,0.09 -0.59,0.14 -0.89,0.13l-0.57 0 0 1.2c0.01,0.07 -0.04,0.13 -0.11,0.15l-0.04 0 -0.91 0c-0.07,0 -0.13,-0.05 -0.14,-0.12l0 -0.03 0 -4.72c-0.01,-0.07 0.03,-0.13 0.1,-0.14l0.04 0 1.69 0zm-0.07 2.6c0.14,0 0.29,-0.02 0.42,-0.07 0.11,-0.04 0.2,-0.1 0.29,-0.17 0.08,-0.07 0.14,-0.15 0.18,-0.24 0.03,-0.09 0.05,-0.18 0.05,-0.28 0,-0.09 -0.02,-0.19 -0.05,-0.28 -0.04,-0.1 -0.1,-0.18 -0.18,-0.25 -0.09,-0.08 -0.19,-0.14 -0.29,-0.19 -0.14,-0.05 -0.28,-0.07 -0.42,-0.07l-0.56 0 0 1.54 0.56 0.01z"/>
   <path fill="#FEFEFE" fill-rule="nonzero" d="M31.69 5.55c0.07,-0.01 0.13,0.04 0.14,0.11l0 0.03 0 0.77c0.01,0.07 -0.04,0.13 -0.11,0.14l-0.03 0 -3.28 0c-0.07,0.01 -0.13,-0.04 -0.14,-0.11l0 -0.03 0 -4.74c-0.01,-0.07 0.03,-0.13 0.1,-0.14l0.04 0 3.24 0c0.07,-0.01 0.13,0.04 0.14,0.11l0 0.03 0 0.77c0.01,0.07 -0.03,0.14 -0.1,0.15l-0.04 0 -2.19 0 0 0.91 1.92 0c0.07,-0.01 0.13,0.03 0.14,0.1l0 0.04 0 0.77c0.01,0.07 -0.04,0.13 -0.11,0.14l-0.03 0 -1.92 0 0 0.95 2.23 0z"/>
   <path fill="#FEFEFE" fill-rule="nonzero" d="M38 1.58c0.07,-0.01 0.13,0.04 0.14,0.11l0 0.03 0 4.8c0.01,0.07 -0.04,0.13 -0.11,0.14l-0.03 0 -0.42 0c-0.07,0 -0.13,-0.02 -0.18,-0.07l-2.75 -2.95 0 2.82c0.01,0.07 -0.04,0.13 -0.11,0.14l-0.03 0 -0.89 0c-0.07,0.01 -0.13,-0.04 -0.14,-0.11l0 -0.03 0 -4.78c-0.01,-0.07 0.04,-0.13 0.11,-0.14l0.03 0 0.42 0c0.07,0 0.13,0.02 0.18,0.08l2.74 2.92 0 -2.82c-0.01,-0.07 0.04,-0.13 0.11,-0.14l0.04 0 0.89 0z"/>
   <path fill="#FEFEFE" fill-rule="nonzero" d="M43.1 3.95c0.28,0.06 0.53,0.22 0.69,0.44 0.16,0.23 0.25,0.49 0.24,0.77 0.02,0.4 -0.15,0.79 -0.46,1.05 -0.31,0.26 -0.81,0.39 -1.51,0.39l-1.94 0c-0.07,0.01 -0.13,-0.04 -0.14,-0.11l0 -0.03 0 -4.74c-0.01,-0.07 0.03,-0.13 0.1,-0.14l0.04 0 1.85 0c0.29,-0.01 0.58,0.03 0.85,0.1 0.21,0.05 0.41,0.14 0.59,0.27 0.14,0.11 0.25,0.25 0.33,0.41 0.07,0.16 0.11,0.33 0.11,0.51 0.02,0.48 -0.29,0.93 -0.75,1.08l0 0zm-0.4 -0.86c0,-0.15 -0.06,-0.29 -0.18,-0.39 -0.17,-0.1 -0.37,-0.15 -0.57,-0.14l-0.8 0 0 1.05 0.8 0c0.2,0.02 0.4,-0.03 0.57,-0.14 0.12,-0.09 0.18,-0.23 0.18,-0.38zm-0.63 2.52c0.21,0.02 0.42,-0.03 0.61,-0.14 0.12,-0.09 0.19,-0.23 0.18,-0.38 0.01,-0.16 -0.06,-0.32 -0.18,-0.41 -0.19,-0.11 -0.41,-0.16 -0.63,-0.14l-0.89 0 0 1.07 0.91 0z"/>
   <path fill="#FEFEFE" fill-rule="nonzero" d="M50.04 6.44c0.02,0.03 0.02,0.08 0,0.12 -0.03,0.03 -0.07,0.04 -0.12,0.04l-0.96 0c-0.08,0 -0.14,-0.04 -0.17,-0.11l-0.31 -0.78 -1.94 0 -0.32 0.78c-0.02,0.07 -0.09,0.11 -0.16,0.11l-0.96 0c-0.05,0 -0.09,-0.01 -0.12,-0.04 -0.02,-0.04 -0.02,-0.09 0,-0.12l2.11 -4.76c0.03,-0.07 0.1,-0.11 0.18,-0.11l0.5 0c0.08,0 0.15,0.04 0.17,0.11l2.1 4.76zm-3.12 -1.74l1.18 0 -0.59 -1.41 -0.59 1.41z"/>
   <path fill="#FEFEFE" fill-rule="nonzero" d="M55.86 1.58c0.07,-0.01 0.13,0.04 0.15,0.11l0 0.03 0 4.8c0,0.07 -0.04,0.13 -0.11,0.14l-0.04 0 -0.42 0c-0.07,0 -0.14,-0.02 -0.19,-0.07l-2.74 -2.95 0 2.82c0.01,0.07 -0.04,0.13 -0.1,0.14l-0.04 0 -0.89 0c-0.06,0.01 -0.13,-0.04 -0.14,-0.11l0 -0.03 0 -4.78c-0.01,-0.07 0.04,-0.13 0.11,-0.14l0.03 0 0.41 0c0.07,0 0.14,0.02 0.19,0.08l2.74 2.92 0 -2.82c-0.01,-0.07 0.04,-0.13 0.11,-0.14l0.03 0 0.9 0z"/>
   <path fill="#FEFEFE" fill-rule="nonzero" d="M62.23 6.42c0.04,0.05 0.06,0.09 0.04,0.13 -0.02,0.03 -0.06,0.05 -0.12,0.05l-1.18 0c-0.07,0 -0.14,-0.03 -0.19,-0.08l-1.76 -1.92 0 1.86c0.01,0.07 -0.03,0.13 -0.1,0.14l-0.04 0 -0.91 0c-0.07,0.01 -0.14,-0.04 -0.15,-0.11l0 -0.03 0 -4.74c0,-0.07 0.04,-0.13 0.11,-0.14l0.04 0 0.91 0c0.07,-0.01 0.14,0.04 0.14,0.11l0 0.03 0 1.97 1.8 -2.03c0.05,-0.05 0.12,-0.08 0.19,-0.08l1.05 0c0.06,0 0.1,0.02 0.11,0.05 0.02,0.05 0,0.1 -0.03,0.13l-2.07 2.3 2.16 2.36z"/>
   <path fill="#FEFEFE" fill-rule="nonzero" d="M21.12 3.1c-0.26,-0.63 -0.75,-1.13 -1.37,-1.42 -0.33,-0.14 -0.69,-0.21 -1.05,-0.21l-0.01 0c-1.44,0.02 -2.6,1.21 -2.57,2.65 0.02,1.25 0.91,2.3 2.13,2.53 0.06,0.01 0.12,-0.04 0.13,-0.1l0 -0.02 0 -0.91c0,-0.06 -0.03,-0.1 -0.09,-0.12 -0.78,-0.22 -1.24,-1.03 -1.03,-1.82 0.22,-0.79 1.04,-1.25 1.83,-1.03 0.79,0.22 1.25,1.03 1.03,1.82 -0.07,0.27 -0.22,0.5 -0.42,0.69 -0.12,0.12 -0.26,0.21 -0.41,0.27l-0.03 0.02 -0.06 0.02 -0.11 0.03c-0.05,0.02 -0.09,0.06 -0.09,0.12l0 0.91c0,0.07 0.05,0.12 0.12,0.12l0.01 0c1.43,-0.25 2.39,-1.6 2.14,-3.03 -0.03,-0.18 -0.08,-0.35 -0.15,-0.52z"/>
   <path fill="#FEFEFE" fill-rule="nonzero" d="M68.88 4.03c0.26,0.07 0.5,0.22 0.68,0.43 0.16,0.21 0.25,0.46 0.25,0.72 0.02,0.4 -0.15,0.79 -0.45,1.05 -0.37,0.27 -0.81,0.4 -1.27,0.37l-1.64 0c-0.04,0.01 -0.07,-0.02 -0.08,-0.06l0 -0.02 0 -4.85c0,-0.04 0.02,-0.07 0.06,-0.08l0.02 0 1.45 0c0.27,0 0.53,0.03 0.79,0.09 0.2,0.05 0.4,0.15 0.56,0.28 0.14,0.11 0.25,0.26 0.32,0.42 0.07,0.17 0.1,0.36 0.1,0.54 0.01,0.26 -0.08,0.5 -0.23,0.7 -0.15,0.18 -0.34,0.33 -0.56,0.41zm0.45 -1.08c0,-0.29 -0.12,-0.57 -0.35,-0.76 -0.22,-0.2 -0.58,-0.3 -1.08,-0.3l-1.19 0 0 2 1.5 0c0.29,0.02 0.57,-0.07 0.8,-0.25 0.21,-0.17 0.32,-0.42 0.31,-0.69l0.01 0zm-1.24 3.35c0.36,0.02 0.72,-0.09 1.01,-0.3 0.25,-0.21 0.39,-0.51 0.37,-0.84 0,-0.12 -0.02,-0.23 -0.07,-0.34 -0.05,-0.12 -0.13,-0.23 -0.23,-0.31 -0.11,-0.1 -0.25,-0.17 -0.39,-0.22 -0.19,-0.06 -0.38,-0.09 -0.57,-0.08l-1.5 0 0 2.09 1.38 0z"/>
   <path fill="#FEFEFE" fill-rule="nonzero" d="M75.22 6.51c0.03,0.03 0.03,0.06 0.02,0.07 -0.02,0.02 -0.04,0.03 -0.07,0.03l-0.23 0c-0.04,0 -0.08,-0.02 -0.1,-0.05l-1.15 -1.71 -0.23 0.03c-0.07,0 -0.15,0.01 -0.23,0.01l-1.15 0 0 1.64c0.01,0.04 -0.02,0.08 -0.06,0.08l-0.02 0 -0.19 0c-0.05,0 -0.08,-0.02 -0.08,-0.08l0 -4.85c0,-0.04 0.02,-0.07 0.06,-0.08l0.02 0 1.47 0c0.25,0 0.5,0.03 0.74,0.1 0.22,0.06 0.43,0.16 0.6,0.3 0.17,0.13 0.31,0.31 0.4,0.5 0.09,0.24 0.14,0.5 0.13,0.75 0.02,0.35 -0.09,0.69 -0.29,0.97 -0.21,0.27 -0.5,0.46 -0.83,0.56l1.19 1.73zm-1.99 -1.94c0.41,0.02 0.83,-0.1 1.16,-0.36 0.29,-0.24 0.45,-0.6 0.43,-0.98 0.01,-0.21 -0.03,-0.41 -0.12,-0.6 -0.07,-0.16 -0.18,-0.3 -0.32,-0.41 -0.14,-0.12 -0.31,-0.2 -0.49,-0.25 -0.19,-0.05 -0.4,-0.08 -0.6,-0.08l-1.21 0 0 2.68 1.15 0z"/>
   <path fill="#FEFEFE" fill-rule="nonzero" d="M81.01 6.52c0.02,0.06 0,0.09 -0.06,0.09l-0.2 0c-0.04,0 -0.08,-0.03 -0.09,-0.07l-0.49 -1.14 -2.79 0 -0.48 1.14c-0.01,0.04 -0.05,0.07 -0.1,0.07l-0.18 0c-0.07,0 -0.09,-0.03 -0.07,-0.09l2.07 -4.87c0.01,-0.04 0.05,-0.06 0.09,-0.06l0.16 0c0.04,-0.01 0.08,0.02 0.09,0.06l2.05 4.87zm-3.51 -1.43l2.55 0 -1.28 -3.04 -1.27 3.04z"/>
   <path fill="#FEFEFE" fill-rule="nonzero" d="M83.81 6.67c-0.58,0.02 -1.14,-0.15 -1.63,-0.46 -0.05,-0.03 -0.06,-0.06 -0.02,-0.11l0.1 -0.16c0.03,-0.05 0.06,-0.05 0.11,-0.02 0.2,0.14 0.42,0.25 0.65,0.32 0.25,0.08 0.51,0.12 0.77,0.12 0.18,0.01 0.36,-0.02 0.53,-0.07 0.16,-0.04 0.3,-0.11 0.42,-0.21 0.11,-0.08 0.2,-0.2 0.26,-0.32 0.07,-0.14 0.1,-0.28 0.1,-0.43 0.01,-0.27 -0.1,-0.54 -0.3,-0.72 -0.29,-0.23 -0.64,-0.39 -1.01,-0.46 -0.4,-0.09 -0.79,-0.27 -1.12,-0.52 -0.24,-0.21 -0.38,-0.52 -0.36,-0.85 0,-0.18 0.04,-0.35 0.12,-0.51 0.07,-0.16 0.17,-0.3 0.31,-0.4 0.15,-0.12 0.31,-0.21 0.49,-0.26 0.2,-0.07 0.42,-0.1 0.63,-0.09 0.27,-0.01 0.53,0.03 0.79,0.1 0.21,0.06 0.41,0.15 0.59,0.28 0.04,0.04 0.04,0.07 0.01,0.11l-0.08 0.13c-0.02,0.04 -0.06,0.05 -0.09,0.04l-0.02 -0.01c-0.17,-0.12 -0.35,-0.21 -0.54,-0.26 -0.22,-0.06 -0.44,-0.09 -0.66,-0.09 -0.31,-0.01 -0.62,0.08 -0.88,0.26 -0.22,0.16 -0.34,0.41 -0.33,0.68 -0.02,0.25 0.09,0.49 0.29,0.64 0.29,0.19 0.6,0.32 0.94,0.41 0.24,0.06 0.48,0.15 0.71,0.25 0.17,0.08 0.34,0.18 0.48,0.31 0.12,0.11 0.21,0.25 0.27,0.4 0.06,0.17 0.09,0.34 0.09,0.52 0,0.2 -0.04,0.39 -0.12,0.58 -0.08,0.16 -0.2,0.31 -0.34,0.43 -0.15,0.12 -0.33,0.21 -0.52,0.27 -0.21,0.07 -0.42,0.1 -0.64,0.1z"/>
   <path fill="#FEFEFE" fill-rule="nonzero" d="M87.34 6.61c-0.06,0 -0.08,-0.03 -0.08,-0.08l0 -4.86c-0.01,-0.03 0.02,-0.07 0.06,-0.07l0.02 0 0.18 0c0.04,-0.01 0.08,0.02 0.08,0.06l0 0.01 0 4.86c0.01,0.04 -0.02,0.08 -0.05,0.08l-0.03 0 -0.18 0z"/>
   <path fill="#FEFEFE" fill-rule="nonzero" d="M92.93 6.3c0.05,0 0.08,0.02 0.08,0.07l0 0.16c0,0.04 -0.02,0.08 -0.06,0.08l-0.02 0 -3.01 0c-0.05,0 -0.08,-0.02 -0.08,-0.08l0 -4.85c0,-0.04 0.02,-0.07 0.06,-0.08l0.02 0 0.19 0c0.04,0 0.07,0.02 0.08,0.06l0 0.02 0 4.62 2.74 0z"/>
   <path fill="#FEFEFE" fill-rule="nonzero" d="M6.26 0l-0.02 0c-3.44,0 -6.23,2.78 -6.24,6.22l0 0.02c0,3.05 2.2,5.65 5.21,6.16 0.01,0 0.03,0 0.04,0 0.14,0 0.26,-0.1 0.28,-0.24l0 -0.04 0 -2.18c0,-0.13 -0.09,-0.24 -0.21,-0.27l-0.02 0c-1.57,-0.44 -2.59,-1.87 -2.59,-3.42 0,-0.31 0.04,-0.63 0.13,-0.95 0.43,-1.57 1.86,-2.6 3.41,-2.6 0.31,0 0.63,0.04 0.95,0.13 1.57,0.44 2.6,1.86 2.6,3.42 0,0.31 -0.04,0.63 -0.13,0.95 -0.18,0.63 -0.52,1.2 -1.01,1.65 -0.28,0.28 -0.61,0.5 -0.99,0.65l-0.07 0.03 -0.12 0.05c-0.1,0.03 -0.19,0.06 -0.28,0.09 -0.13,0.03 -0.22,0.14 -0.22,0.27l0 2.19c0,0.16 0.13,0.28 0.28,0.28l0.05 0c2.95,-0.51 5.2,-3.07 5.2,-6.17 0,-0.75 -0.14,-1.53 -0.42,-2.32 -0.5,-1.36 -1.95,-2.88 -3.28,-3.42 -0.8,-0.32 -1.66,-0.49 -2.52,-0.5l-0.03 0z"/>
  </g>
 </g>
</svg>
