<?xml version="1.0" encoding="UTF-8"?>
<!DOCTYPE svg PUBLIC "-//W3C//DTD SVG 1.1//EN" "http://www.w3.org/Graphics/SVG/1.1/DTD/svg11.dtd">
<!-- Creator: CorelDRAW 2021 (64-Bit) -->
<svg xmlns="http://www.w3.org/2000/svg" xml:space="preserve" width="312px" height="309px" version="1.1" shape-rendering="geometricPrecision" text-rendering="geometricPrecision" image-rendering="optimizeQuality" fill-rule="evenodd" clip-rule="evenodd"
viewBox="0 0 836.16 828.6"
 xmlns:xlink="http://www.w3.org/1999/xlink"
 xmlns:xodm="http://www.corel.com/coreldraw/odm/2003">
 <g id="Camada_x0020_1">
  <metadata id="CorelCorpID_0Corel-Layer"/>
  <g id="_1552938275568">
   <path fill="#FEFEFE" d="M386.62 1.46c-190.2,15.96 -324.88,145 -370.58,302.44 -34.75,119.76 -10.92,241.35 51.1,339.81 15.19,24.12 22.12,29.3 36.17,47.4 45.93,59.18 135.58,110.54 207.63,128.99 72.23,18.51 58.91,8.11 58.91,-92.26 0,-107.15 7.8,-61.78 -63.86,-102.19 -39.12,-22.06 -64.23,-45.3 -87.69,-81.87 -106.09,-165.34 24.84,-368.12 207.07,-362.81l0 -180.95c-12.82,-0.11 -25.74,0.35 -38.75,1.44z"/>
   <path fill="#4F6CA9" d="M425.37 180.97c9.33,0.27 18.81,1.08 28.39,2.48 196.7,28.7 265.2,269.23 132.51,402.15 -11.97,12 -28.96,26.19 -47.14,36.42 -82.39,46.35 -73.15,-24.4 -71.99,180.21 0.19,34.38 21.67,27.49 48.26,21.29 22.34,-5.21 43.22,-12.15 63.23,-20.48 71.15,-29.62 121.42,-70.35 168.21,-126.66 93.83,-112.92 115.09,-291.69 57.36,-425.27 -64.42,-149.09 -212.09,-249.74 -378.83,-251.09l0 180.95z"/>
  </g>
 </g>
</svg>
