<?xml version="1.0" encoding="UTF-8"?>
<!DOCTYPE svg PUBLIC "-//W3C//DTD SVG 1.0//EN" "http://www.w3.org/TR/2001/REC-SVG-20010904/DTD/svg10.dtd">
<!-- Creator: CorelDRAW X7 -->
<svg xmlns="http://www.w3.org/2000/svg" xml:space="preserve" width="89.5359mm" height="11.9499mm" version="1.0" shape-rendering="geometricPrecision" text-rendering="geometricPrecision" image-rendering="optimizeQuality" fill-rule="evenodd" clip-rule="evenodd"
viewBox="0 0 8796775 1174061"
 xmlns:xlink="http://www.w3.org/1999/xlink">
 <g id="Camada_x0020_1">
  <metadata id="CorelCorpID_0Corel-Layer"/>
  <g id="_2896361771184">
   <path fill="#373435" fill-rule="nonzero" d="M1674922 1032327l-25073 -64264 -80839 0 -24709 64264 -23835 0 79797 -202647 19768 0 79247 202471 -24356 176zm-32471 -85270l-23491 -62486c-3007,-7948 -6190,-17655 -9363,-29121 -2388,9845 -5247,19552 -8636,29121l-23835 62486 65325 0z"/>
   <path fill="#373435" fill-rule="nonzero" d="M1761951 881054l0 98141c-796,9913 2250,19767 8469,27529 7143,6533 16643,9854 26321,9196 13116,1248 26114,-3567 35300,-13097 8361,-12428 12232,-27391 10916,-42345l0 -79424 22970 0 0 151273 -19060 0 -3183 -20278 -1248 0c-4726,7604 -11534,13715 -19581,17645 -8950,3979 -18628,5984 -28433,5807 -14953,1179 -29740,-3478 -41314,-13057 -10119,-11466 -15091,-26596 -13754,-41835l0 -99555 22597 0z"/>
   <path fill="#373435" fill-rule="nonzero" d="M2033618 1012029l-1248 0c-10562,15474 -28561,24218 -47287,22941 -17763,963 -34927,-6563 -46255,-20288 -11987,-16712 -17823,-37020 -16418,-57544 -1306,-20691 4569,-41216 16595,-58065 22548,-25397 61375,-27677 86733,-5158l6455 6740 1769 0 -1032 -10768 0 -10788 0 -61425 22931 0 0 214673 -17655 0 -4588 -20318zm-45705 3871c12752,1179 25289,-3556 34063,-12890 7948,-12153 11613,-26635 10394,-41107l0 -4765c1425,-16034 -2309,-32088 -10562,-45912 -8567,-9776 -21319,-14894 -34278,-13745 -12252,-491 -23904,5492 -30703,15681 -7958,13293 -11711,28708 -10788,44153 -1031,15336 2673,30604 10611,43759 7113,10061 18962,15691 31263,14826z"/>
   <path fill="#373435" fill-rule="nonzero" d="M2119065 840084c-383,-4205 1041,-8351 3871,-11465 2584,-2515 6111,-3861 9697,-3685 3556,0 6946,1307 9540,3685 2829,3114 4254,7290 3900,11465 354,4255 -1031,8479 -3900,11653 -2594,2387 -5984,3723 -9540,3723 -3586,138 -7113,-1198 -9697,-3723 -2830,-3174 -4254,-7398 -3871,-11653zm24876 192253l-22951 0 0 -151273 22951 0 0 151273z"/>
   <path fill="#373435" fill-rule="nonzero" d="M2257988 1016087c3940,69 7909,-246 11820,-904l8842 -1729 0 17655c-3498,1484 -7192,2456 -10955,3006 -4323,659 -8665,1003 -13057,1042 -29121,0 -43770,-15376 -43770,-46059l0 -90055 -21212 0 0 -11121 21733 -9531 9697 -32313 13234 0 0 35320 43603 0 0 17645 -44114 0 0 88267c-520,7565 1759,15032 6357,21035 4490,5079 11014,7948 17822,7742z"/>
   <path fill="#373435" fill-rule="nonzero" d="M2456411 956588c1169,20936 -5492,41490 -18736,57730 -13185,14129 -32019,21694 -51354,20662 -12409,108 -24641,-3183 -35311,-9540 -10611,-6455 -19109,-15926 -24356,-27185 -5905,-13097 -8773,-27333 -8459,-41667 -1592,-20721 4726,-41245 17655,-57545 28148,-27814 73471,-27814 101658,0 13234,16162 20003,36686 18903,57545zm-115285 0c-1041,15582 3075,31095 11643,44113 16997,18834 46009,20318 64844,3360l3311 -3360c8675,-12979 12752,-28492 11642,-44113 1042,-15475 -3075,-30841 -11642,-43760 -17646,-18864 -47258,-19866 -66122,-2211l-2200 2211c-8469,12959 -12478,28315 -11476,43760z"/>
   <path fill="#373435" fill-rule="nonzero" d="M2582435 878401c5914,-39 11819,472 17655,1582l-3174 21182c-5462,-1178 -11023,-1807 -16584,-1935 -12163,29 -23698,5423 -31430,14845 -8773,10297 -13371,23541 -12890,37040l0 81222 -22941 0 0 -151273 18893 0 2633 28040 1071 0c4873,-9088 11849,-16850 20308,-22764 7782,-5276 17037,-8076 26459,-7939z"/>
   <path fill="#373435" fill-rule="nonzero" d="M2643702 840084c-383,-4205 1032,-8351 3862,-11465 2633,-2486 6111,-3793 9707,-3685 3556,0 6946,1307 9539,3685 2830,3114 4245,7290 3901,11465 373,4255 -1032,8479 -3901,11653 -2593,2387 -5983,3723 -9539,3723 -3596,108 -7074,-1238 -9707,-3723 -2830,-3174 -4215,-7398 -3862,-11653zm24897 192253l-22932 0 0 -151273 22932 0 0 151273z"/>
   <path fill="#373435" fill-rule="nonzero" d="M2826926 1032327l-4421 -21516 -1238 0c-5875,8046 -13519,14639 -22391,19237 -8950,3557 -18480,5256 -28079,4942 -12792,717 -25398,-3350 -35311,-11466 -8842,-8646 -13470,-20701 -12713,-33031 0,-30506 24424,-46501 73274,-48014l25603 0 0 -9363c717,-9402 -2043,-18805 -7781,-26291 -6534,-6220 -15405,-9295 -24356,-8460 -14963,590 -29573,4549 -42728,11633l-7054 -17645c7673,-4186 15896,-7399 24355,-9540 8745,-2309 17764,-3488 26842,-3527 14374,-1101 28639,3183 40075,12025 9501,10434 14168,24395 12891,38445l0 103259 -16968 -688zm-51718 -16240c12340,697 24425,-3488 33719,-11643 8499,-8734 12930,-20651 12163,-32844l0 -13578 -22931 0c-13617,-383 -27087,2525 -39349,8459 -8017,4972 -12654,13922 -12025,23285 -482,7123 2240,14059 7418,18903 5845,5001 13312,7663 21005,7418z"/>
   <path fill="#373435" fill-rule="nonzero" d="M3062241 1034980c-19728,1100 -39004,-6288 -52965,-20318 -13569,-15611 -20475,-35949 -19228,-56650 -1179,-20829 5070,-41412 17646,-58075 11780,-14364 29641,-22341 48181,-21546 17075,-864 33621,6043 45017,18717 11604,13715 17548,31341 16585,49271l0 14473 -104114 0c-590,14639 4175,28973 13401,40409 9294,9363 22106,14374 35301,13784 16584,-68 33021,-3556 48190,-10257l0 20485c-7349,3282 -15061,5767 -22931,7418 -8253,1631 -16663,2397 -25083,2289zm-6189 -137528c-10984,-413 -21615,3939 -29121,12025 -7801,9118 -12301,20652 -12704,32648l79071 0c727,-11819 -2692,-23491 -9707,-32992 -6848,-7977 -17027,-12300 -27539,-11681z"/>
   <path fill="#373435" fill-rule="nonzero" d="M3356162 926592l69196 0 0 98151c-10679,3379 -21595,5934 -32648,7565 -12684,1935 -25505,2800 -38307,2692 -26330,1306 -52003,-8558 -70621,-27186 -18029,-21212 -27107,-48534 -25427,-76270 -481,-19178 3842,-38179 12547,-55285 8253,-15159 20936,-27489 36371,-35300 17243,-8636 36303,-12920 55589,-12547 20623,-167 41039,3842 60030,11849l-9009 20662c-16683,-7349 -34721,-11230 -52966,-11466 -21860,-1896 -43455,5836 -59136,21173 -14541,16820 -21968,38690 -20661,60914 -1582,22410 5560,44566 19973,61759 15642,15062 36932,22764 58586,21182 13824,69 27569,-1591 40970,-4951l0 -61936 -45185 0 698 -21006z"/>
   <path fill="#373435" fill-rule="nonzero" d="M3550517 1034980c-19728,933 -38936,-6425 -52966,-20318 -13597,-15611 -20514,-35949 -19227,-56650 -1110,-20721 5178,-41137 17646,-57731 11819,-14295 29641,-22273 48181,-21516 17075,-865 33581,5973 45017,18687 11574,13715 17547,31341 16585,49262l0 14481 -104115 0c-589,14649 4176,29013 13402,40410 9294,9402 22106,14413 35300,13784 16585,-29 32992,-3527 48191,-10257l0 20485c-7349,3281 -15061,5806 -22931,7428 -8292,1483 -16692,2141 -25083,1935zm-6189 -137528c-10985,-413 -21615,3939 -29121,12025 -7703,9187 -12193,20652 -12704,32648l79071 0c835,-11819 -2624,-23530 -9707,-32992 -6848,-7977 -17027,-12340 -27539,-11681z"/>
   <path fill="#373435" fill-rule="nonzero" d="M3759521 991014c619,13067 -5560,25505 -16407,32825 -13087,8498 -28600,12507 -44153,11505 -16123,825 -32226,-2457 -46766,-9531l0 -21182c7417,3734 15228,6632 23314,8636 7840,2034 15897,3115 24012,3183 9569,521 19099,-1464 27706,-5669 9383,-5737 12320,-17999 6553,-27431l-4627 -5217c-9255,-6179 -19277,-11190 -29809,-14815 -10493,-3459 -20553,-7978 -30025,-13618 -5423,-3311 -9942,-7938 -13253,-13401 -3076,-5354 -4608,-11465 -4392,-17655 -138,-11633 5453,-22617 14993,-29288 12330,-7713 26772,-11397 41313,-10581 16418,-30 32609,3320 47670,9854l-8115 17655c-13028,-5708 -26979,-8881 -41137,-9363 -8498,-491 -16977,1277 -24532,5148 -5247,2732 -8460,8224 -8322,14089 -108,3734 953,7359 3006,10434 2791,3351 6220,6111 10081,8125 8597,4205 17409,7909 26458,11122 13411,3891 25810,10631 36382,19787 6631,6740 10267,15936 10050,25388z"/>
   <path fill="#373435" fill-rule="nonzero" d="M3862614 1016087c3900,69 7801,-246 11632,-904l9019 -1729 0 17655c-3527,1444 -7191,2456 -10944,3006 -4323,659 -8676,1003 -13067,1042 -29288,0 -43760,-15376 -43760,-46059l0 -90055 -21733 0 0 -11121 21733 -9531 9530 -32313 13224 0 0 35320 43947 0 0 17645 -43947 0 0 88267c-442,7565 1867,15032 6534,21035 4489,5079 11023,7948 17832,7742z"/>
   <path fill="#373435" fill-rule="nonzero" d="M4023427 1032327l-4598 -21516 -1071 0c-5944,8046 -13676,14609 -22587,19237 -8912,3557 -18451,5256 -28050,4942 -12822,717 -25398,-3350 -35311,-11466 -8842,-8646 -13470,-20701 -12703,-33031 0,-30506 24424,-46501 73264,-48014l25593 0 0 -9363c796,-9402 -1925,-18766 -7594,-26291 -6603,-6220 -15514,-9295 -24533,-8460 -14953,590 -29534,4589 -42728,11633l-7045 -17645c7732,-4186 15995,-7399 24523,-9540 8705,-2309 17655,-3488 26635,-3527 14404,-1130 28709,3143 40076,12025 9569,10405 14295,24356 13096,38445l0 103259 -16967 -688zm-17655 -171414c-4038,0 -8017,-894 -11643,-2633 -3723,-1788 -7427,-3547 -11122,-5659 -3733,-2103 -7073,-3861 -10424,-5630 -2977,-1621 -6327,-2485 -9717,-2485 -3900,-344 -7761,1179 -10404,4047 -2761,3724 -4657,8008 -5492,12566l-13391 0c520,-9490 3900,-18618 9707,-26153 4971,-6180 12536,-9639 20484,-9363 4176,-69 8361,795 12164,2495 3861,1651 7663,3547 11288,5630l10434 5669c2869,1581 6082,2446 9363,2446 3803,314 7497,-1179 10051,-4048 2663,-3753 4490,-8007 5286,-12536l13784 0c-589,9500 -3969,18588 -9717,26124 -5000,6357 -12772,9903 -20818,9530l167 0zm-33189 155174c12262,658 24307,-3488 33533,-11643 8527,-8734 12919,-20651 12192,-32844l0 -13578 -22931 0c-13607,-383 -27117,2525 -39388,8459 -7938,5011 -12527,13922 -11986,23285 -541,7143 2250,14128 7575,18903 5836,5040 13322,7703 21005,7418z"/>
   <path fill="#373435" fill-rule="nonzero" d="M4234897 956588c1218,20907 -5384,41460 -18549,57730 -13293,14099 -32157,21654 -51532,20662 -12408,69 -24601,-3213 -35310,-9540 -10572,-6455 -18972,-15926 -24179,-27185 -6013,-13067 -8980,-27294 -8636,-41667 -1562,-20721 4726,-41245 17655,-57545 13460,-14413 32707,-22007 52435,-20652 18864,-314 36962,7664 49390,21890 12998,15828 19669,35890 18726,56307zm-115098 0c-973,15582 3036,31026 11466,44113 17095,18903 46216,20347 65079,3291l3252 -3291c8676,-12979 12753,-28492 11643,-44113 1041,-15475 -3075,-30841 -11643,-43760 -17655,-18864 -47257,-19866 -66121,-2211l-2210 2211c-8499,12919 -12537,28315 -11466,43760z"/>
   <path fill="#373435" fill-rule="nonzero" d="M4484517 1012029l0 0c-10748,15406 -28747,24110 -47493,22941 -17724,963 -34819,-6602 -46059,-20288 -12085,-16683 -17960,-37020 -16614,-57544 -1208,-20691 4628,-41176 16614,-58065 11200,-13824 28296,-21487 46059,-20662 18520,-1140 36372,7045 47493,21860l1759 0 -894 -10738 0 -10778 0 -61081 22764 0 0 214673 -18510 0 -5119 -20318zm-45911 3871c12752,1209 25328,-3527 34102,-12890 8076,-12085 11809,-26596 10562,-41107l0 -4765c1463,-16064 -2339,-32157 -10739,-45912 -8528,-9776 -21173,-14894 -34102,-13745 -12330,-521 -24042,5423 -30870,15681 -7820,13371 -11505,28708 -10611,44153 -1031,15336 2653,30604 10611,43759 7212,10238 19306,15897 31774,14826l-727 0z"/>
   <path fill="#373435" fill-rule="nonzero" d="M4636144 1034980c-19757,1100 -38994,-6288 -52956,-20318 -13715,-15543 -20691,-35919 -19414,-56650 -1179,-20829 5080,-41412 17656,-58075 11849,-14403 29779,-22341 48368,-21546 16987,-835 33463,6043 44830,18717 11613,13715 17518,31341 16585,49271l0 14473 -104154 0c-550,14639 4215,28973 13441,40409 9284,9363 22106,14335 35310,13784 16614,-68 32982,-3556 48181,-10257l0 20485c-7358,3282 -15061,5767 -22941,7418 -8213,1601 -16535,2358 -24906,2289zm-6179 -137528c-10955,-482 -21556,3910 -28954,12025 -7772,9157 -12321,20652 -12881,32648l79071 0c835,-11819 -2623,-23530 -9707,-32992 -6828,-7977 -17027,-12340 -27529,-11681z"/>
   <path fill="#373435" fill-rule="nonzero" d="M5002435 929589c2004,28236 -7840,55962 -27186,76624 -21320,18932 -49399,28472 -77832,26458l-55963 0 0 -202117 61769 0c49881,-4912 94270,31538 99212,81419 560,5836 560,11750 0,17616zm-24877 0c1670,-21615 -5453,-43004 -19787,-59313 -15995,-14472 -37246,-21752 -58763,-20102l-34102 0 0 161158 28610 0c22902,1729 45598,-5699 63037,-20652 14924,-16457 22538,-38248 21005,-60394l0 -697z"/>
   <path fill="#373435" fill-rule="nonzero" d="M5153905 1032327l-4598 -21516 -1081 0c-5934,8046 -13676,14609 -22588,19237 -8911,3557 -18480,5256 -28040,4942 -12792,717 -25397,-3350 -35320,-11466 -8842,-8646 -13470,-20701 -12704,-33031 0,-30506 24425,-46501 73264,-48014l25594 0 0 -9363c806,-9402 -1926,-18766 -7594,-26291 -6593,-6220 -15514,-9295 -24523,-8460 -14964,590 -29544,4589 -42729,11633l-7054 -17645c7732,-4186 15995,-7399 24533,-9540 8705,-2309 17655,-3488 26635,-3527 14403,-1130 28669,3143 40066,12025 9569,10405 14295,24356 13096,38445l0 103259 -16957 -688zm-51551 -16240c12271,658 24326,-3488 33551,-11643 8499,-8734 12910,-20651 12164,-32844l0 -13578 -22951 0c-13608,-383 -27117,2525 -39339,8459 -7988,5011 -12546,13922 -12026,23285 -520,7143 2280,14128 7605,18903 5797,5040 13303,7703 20996,7418z"/>
   <path fill="#373435" fill-rule="nonzero" d="M5337836 1012029l-1238 0c-10749,15406 -28738,24110 -47464,22941 -17547,786 -34417,-6740 -45568,-20288 -12055,-16683 -17930,-37020 -16614,-57544 -1179,-20691 4657,-41176 16614,-58065 11220,-13824 28296,-21487 46089,-20662 18176,-864 35654,7320 46599,21860l1759 0 -855 -10738 0 -10778 0 -61081 22754 0 0 214673 -18549 0 -3527 -20318zm-45902 3871c12753,1209 25348,-3527 34092,-12890 8086,-12085 11810,-26596 10572,-41107l0 -4765c1444,-16064 -2348,-32157 -10749,-45912 -8528,-9776 -21162,-14894 -34092,-13745 -12330,-521 -24041,5423 -30889,15681 -7801,13371 -11495,28708 -10601,44153 -1042,15336 2662,30604 10601,43759 7093,10032 18834,15622 31066,14826z"/>
   <path fill="#373435" fill-rule="nonzero" d="M5555486 956588c1169,20936 -5492,41490 -18687,57730 -13224,14129 -32059,21694 -51364,20662 -12439,108 -24671,-3183 -35311,-9540 -10640,-6455 -19099,-15926 -24356,-27185 -5904,-13097 -8803,-27333 -8488,-41667 -1494,-20692 4833,-41206 17645,-57545 13224,-14138 32029,-21693 51364,-20652 19247,-628 37757,7418 50510,21890 12851,15858 19551,35890 18687,56307zm-115275 0c-1002,15582 3114,31095 11642,44113 16997,18834 46040,20318 64844,3360l3311 -3360c8676,-12979 12753,-28492 11682,-44113 1002,-15475 -3075,-30841 -11682,-43760 -17645,-18864 -47257,-19866 -66121,-2211l-2211 2211c-8419,12959 -12467,28315 -11465,43760z"/>
   <path fill="#373435" fill-rule="nonzero" d="M5709952 991014c649,12821 -5256,25083 -15719,32481 -13097,8469 -28561,12468 -44114,11475 -16172,855 -32265,-2427 -46766,-9540l0 -21182c7417,3773 15228,6671 23275,8675 7840,2034 15926,3105 24012,3174 9559,491 19099,-1445 27696,-5630 9402,-5767 12369,-18068 6602,-27460l-4617 -5217c-9295,-6220 -19287,-11191 -29848,-14816 -10474,-3459 -20525,-8017 -30025,-13578 -5423,-3390 -9953,-7988 -13234,-13441 -3075,-5384 -4588,-11465 -4421,-17655 -138,-11642 5492,-22587 15032,-29327 12330,-7664 26772,-11397 41274,-10562 16407,-39 32648,3341 47680,9904l-8125 17655c-12989,-5767 -26940,-8911 -41147,-9403 -8528,-471 -17066,1288 -24690,5119 -5118,2869 -8253,8292 -8125,14128 -128,3704 934,7359 3007,10434 2800,3351 6179,6072 10050,8126 8607,4165 17449,7899 26498,11121 13372,3969 25771,10670 36342,19748 6465,6986 9845,16280 9363,25771z"/>
   <path fill="#373435" fill-rule="nonzero" d="M2339191 149525c27529,-354 54921,3929 81006,12713 22970,7555 44182,19551 62486,35301 17272,15434 30997,34406 40252,55618 9668,22863 14443,47533 14128,72370 413,23973 -4568,47710 -14472,69540 -9677,20485 -23805,38592 -41284,52956 -18932,15759 -40665,27746 -64087,35311 -27009,8626 -55167,12851 -83492,12536l-54548 0 0 113311c944,6592 -3625,12674 -10188,13607l-3429 0 -86488 0c-6563,835 -12576,-3802 -13450,-10365l39 -3242 0 -446265c-923,-6455 3527,-12438 9992,-13391l3419 0 160116 0zm-6701 245719c13460,305 26842,-1837 39516,-6356 10119,-3734 19453,-9295 27568,-16418 7182,-6317 12851,-14157 16585,-22941 3586,-8046 5452,-16781 5452,-25594 -29,-9225 -1906,-18343 -5452,-26841 -3596,-9118 -9265,-17302 -16585,-23835 -8115,-7556 -17586,-13568 -27912,-17655 -12507,-4726 -25810,-7015 -39172,-6701l-52956 0 0 145821 52956 520z"/>
   <path fill="#373435" fill-rule="nonzero" d="M2996926 524991c6563,-933 12644,3626 13578,10199l0 3202 0 72203c962,6563 -3596,12684 -10159,13608l-3419 0 -309975 0c-6602,825 -12575,-3793 -13430,-10365l0 -3243 0 -447679c-943,-6455 3547,-12438 10011,-13391l3419 0 306615 0c6572,-944 12654,3625 13587,10178l0 3213 0 72940c973,6553 -3596,12634 -10159,13568l-3428 0 -206715 0 0 85987 181121 0c6465,-943 12477,3517 13411,9982l0 3409 0 72940c923,6563 -3626,12644 -10198,13568l-3213 0 -181121 0 0 89858 210075 -177z"/>
   <path fill="#373435" fill-rule="nonzero" d="M3593933 149525c6563,-944 12635,3625 13578,10178l0 3213 0 453859c865,6602 -3773,12615 -10326,13441l-3252 0 -39171 0c-6711,167 -13136,-2555 -17656,-7428l-259848 -278191 0 265998c924,6563 -3625,12684 -10198,13608l-3419 0 -83659 0c-6563,933 -12644,-3586 -13577,-10189l0 -3419 0 -451707c-875,-6573 3802,-12616 10365,-13451l3212 0 39162 0c6711,-206 13175,2525 17656,7438l259170 276078 0 -266037c-875,-6563 3792,-12566 10355,-13431l3213 40 84395 0z"/>
   <path fill="#373435" fill-rule="nonzero" d="M4076737 373708c26222,5423 49537,20347 65492,41834 15062,21006 22941,46325 22420,72203 1661,38307 -14570,75239 -43976,99899 -29288,24356 -76751,36549 -142431,36549l-183774 0c-6572,864 -12575,-3792 -13450,-10365l39 -3213 0 -447670c-962,-6464 3528,-12477 9983,-13430l3428 0 174932 0c27333,-590 54577,2584 81045,9363 19797,5001 38474,13705 55069,25594 13469,10050 24287,23275 31429,38484 6740,15090 10159,31459 10061,48014 1926,46147 -26842,88021 -70611,102738l344 0zm-38484 -81733c648,-13961 -5365,-27392 -16241,-36165 -16064,-10306 -35025,-14963 -54027,-13274l-76241 0 0 98701 76241 0c18933,1621 37855,-2908 54027,-12890 10984,-8774 17066,-22312 16241,-36372zm-59313 239019c20102,1720 40203,-3045 57377,-13578 11495,-8498 18098,-22106 17646,-36371 1080,-15101 -5561,-29711 -17646,-38838 -17970,-10228 -38553,-14855 -59146,-13264l-84385 0 0 102051 86154 0z"/>
   <path fill="#373435" fill-rule="nonzero" d="M4732536 608670c2309,3458 2309,8007 0,11465 -2800,2908 -6740,4382 -10778,4078l-91273 0c-7005,304 -13371,-4078 -15503,-10778l-29681 -73618 -183047 0 -30369 73618c-2112,6740 -8469,11151 -15513,10778l-91096 0c-4078,304 -8076,-1209 -10955,-4078 -2171,-3527 -2171,-7948 0,-11465l200024 -449782c2486,-6632 9147,-10778 16231,-10091l47847 0c7044,-687 13715,3459 16240,10091l197873 449782zm-294431 -164164l111374 0 -55962 -133657 -55412 133657z"/>
   <path fill="#373435" fill-rule="nonzero" d="M5283465 149525c6573,-944 12645,3625 13578,10178l29 3213 0 453859c944,6465 -3517,12478 -9972,13441l-3635 0 -39899 0c-6671,167 -13086,-2555 -17655,-7428l-259121 -278191 0 265998c934,6563 -3665,12645 -10228,13568l-3212 40 -83836 0c-6563,825 -12576,-3793 -13440,-10365l29 -3243 0 -451707c-963,-6465 3527,-12478 9992,-13451l3419 0 38661 0c6661,-167 13087,2555 17646,7438l259160 276078 0 -266037c-865,-6563 3802,-12566 10365,-13431l3203 40 84916 0z"/>
   <path fill="#373435" fill-rule="nonzero" d="M5885945 607245c4077,4598 5315,8459 3694,11819 -1592,3351 -5276,5139 -11112,5139l-112072 0c-6661,177 -13126,-2555 -17645,-7418l-166129 -181642 0 175452c924,6573 -3635,12645 -10198,13578l-3213 30 -86508 0c-6553,933 -12635,-3616 -13568,-10149l0 -3459 0 -447640c-864,-6602 3763,-12595 10365,-13470l3203 40 86508 0c6465,-934 12468,3527 13411,9982l0 3448 0 185690 170157 -191732c4470,-4972 10955,-7703 17655,-7388l99221 0c5836,0 9530,1581 10778,4932 1248,4293 -39,8881 -3360,11848l-195770 217474 204583 223466z"/>
   <path fill="#373435" fill-rule="nonzero" d="M1997787 293026c-25054,-59175 -71132,-106982 -129403,-134158 -31686,-12861 -65532,-19630 -99742,-19945l-1022 0c-136497,2182 -245376,114558 -243205,251016 1857,117515 86194,217453 201714,239019 6082,894 11712,-3321 12596,-9402l108 -1720 0 -86685c-69,-5069 -3547,-9500 -8499,-10748 -74570,-20750 -118173,-98032 -97452,-172583 20730,-74581 98042,-118243 172622,-97483 74591,20760 118184,98003 97453,172584 -6946,24975 -20691,47533 -39692,65188 -11053,11230 -24346,20003 -38995,25780l-3007 1376 -4941 1798 -10955 3517c-4932,1277 -8391,5669 -8459,10748l0 86508c-69,6141 4863,11191 11013,11260l1700 -138c134964,-23354 225402,-151725 202048,-286689 -2937,-16870 -7594,-33346 -13882,-49243z"/>
   <path fill="#373435" fill-rule="nonzero" d="M6514559 381480c25250,6455 47778,20720 64461,40763 15690,19070 24149,43082 23806,67811 1856,37826 -13922,74414 -42739,99005 -34475,25535 -76859,38032 -119656,35301l-155361 0c-3547,521 -6868,-1926 -7418,-5492l0 -1896 0 -458969c-520,-3556 1965,-6907 5522,-7427l1896 0 137528 0c25005,-580 50029,2220 74316,8302 19305,5040 37334,14049 52956,26488 13018,10669 23245,24346 29848,39898 6739,16280 10109,33759 9874,51375 481,23697 -7320,46874 -22077,65463 -13745,17684 -32049,31292 -52956,39378zm42385 -102041c864,-27854 -11024,-54587 -32305,-72557 -21546,-18471 -55677,-27696 -102414,-27696l-112416 0 0 189060 141223 0c27499,1179 54518,-7320 76447,-24003 19414,-15798 30260,-39771 29268,-64804l197 0zm-117241 316360c34329,2004 68332,-8046 96038,-28423 23560,-19286 36677,-48506 35301,-78914 -69,-11288 -2417,-22449 -6877,-32854 -4726,-11357 -12095,-21408 -21556,-29288 -11190,-9019 -23904,-15887 -37580,-20318 -17410,-5767 -35694,-8498 -53997,-8115l-141223 0 0 197912 129894 0z"/>
   <path fill="#373435" fill-rule="nonzero" d="M7114750 616078l1582 6356 -6308 2280 -22460 0c-3704,245 -7250,-1513 -9372,-4559l-108536 -161187 -21212 2309c-7388,0 -14953,1042 -22587,1042l-108378 0 0 155527c560,3547 -1896,6907 -5492,7418l-2063 0 -17655 0c-5149,0 -7634,-2309 -7634,-7418l0 -458968c-482,-3557 1974,-6878 5531,-7438l1896 0 138727 0c23875,-98 47611,3007 70611,9196 20623,5424 39909,14993 56690,28090 16103,12772 28806,29327 37079,48181 9245,22361 13706,46442 13047,70611 1179,32786 -8665,64982 -28079,91450 -19797,25319 -46983,43838 -77833,52956l112446 164154zm-188893 -183784c39545,2220 78589,-9737 110166,-33709 27461,-22941 42522,-57446 40764,-93209 550,-19443 -3282,-38828 -11122,-56650 -7054,-15278 -17547,-28669 -30683,-39172 -13676,-10679 -29327,-18480 -46079,-22980 -18588,-5040 -37767,-7526 -57033,-7388l-114391 0 0 253108 108378 0z"/>
   <path fill="#373435" fill-rule="nonzero" d="M7661975 616775c2279,5315 0,7939 -6013,7939l-18854 0c-3841,285 -7260,-2240 -8164,-5974l-45863 -108054 -264799 0 -45185 108054c-1071,3871 -4804,6396 -8842,5974l-17656 0c-6317,0 -8292,-2624 -6012,-7939l195092 -460520c1474,-3626 4932,-6013 8842,-6180l14816 0c3999,-246 7663,2309 8813,6180l193825 460520zm-332228 -135033l241132 0 -120728 -287554 -120404 287554z"/>
   <path fill="#373435" fill-rule="nonzero" d="M7926774 630913c-54478,1493 -108132,-13843 -153582,-43937 -4952,-2141 -5639,-5669 -1945,-10090l9363 -14825c2279,-4589 5630,-5276 10228,-2132 18716,13440 39446,23795 61454,30741 23560,7497 48162,11230 72891,11122 16997,216 33964,-2034 50293,-6700 14374,-3861 27814,-10493 39565,-19621 10601,-8282 19099,-18903 24896,-31056 6013,-12674 9049,-26566 8813,-40586 973,-25673 -9255,-50510 -28050,-67988 -27981,-21802 -60698,-36726 -95517,-43593 -38376,-8499 -74482,-25123 -105912,-48712 -23108,-20180 -35763,-49851 -34230,-80495 -177,-16791 3586,-33326 10945,-48387 6809,-14826 16958,-27883 29641,-38111 13952,-10886 29711,-19139 46600,-24385 19178,-6121 39211,-9088 59312,-8813 25349,-275 50648,3114 75033,10051 19866,5501 38592,14413 55412,26291 3527,3723 4077,7084 1248,10257l-8125 12713c-1445,3213 -5178,4628 -8391,3213l-1660 -1100c-15681,-10709 -32854,-18894 -51021,-24356 -20347,-5640 -41392,-8361 -62496,-8125 -29671,-1405 -58968,7024 -83324,24012 -20554,15238 -32294,39594 -31430,65158 -1248,23452 9294,46039 28080,60177 27087,17656 56895,30674 88256,38484 22981,6013 45430,13922 67094,23668 16752,7310 32196,17331 45696,29632 11446,10464 20347,23393 26163,37796 5630,15612 8361,32128 8116,48702 343,18972 -3626,37728 -11672,54902 -7507,15886 -18491,29877 -32128,40969 -14413,11603 -30958,20308 -48711,25594 -19689,6219 -40243,9432 -60905,9530z"/>
   <path fill="#373435" fill-rule="nonzero" d="M8260584 624723c-5109,0 -7605,-2279 -7605,-7417l0 -458969c-540,-3566 1906,-6877 5502,-7437l2103 39 17655 0c3665,-520 7044,2044 7565,5699l30 1699 0 459519c560,3547 -1926,6907 -5492,7427l-2103 -39 -17655 -521z"/>
   <path fill="#373435" fill-rule="nonzero" d="M8789092 595789c4942,0 7605,2270 7605,6701l0 15376c550,3546 -1906,6897 -5492,7417l-2113 -29 -284026 0c-5119,0 -7605,-2279 -7605,-7388l0 -458969c-550,-3566 1936,-6916 5492,-7437l2113 0 17645 0c3566,-521 6917,1936 7437,5531l0 1906 0 436892 258944 0z"/>
   <path fill="#3A6FAE" fill-rule="nonzero" d="M591928 0l-1651 0c-325291,0 -589373,263198 -590277,588647l0 1699c0,288281 208238,534453 492717,582153l4106 314c12724,0 23914,-9255 25948,-22243l304 -4392 0 -206332c-167,-12094 -8390,-22597 -20101,-25604l-1248 0c-148532,-41215 -245847,-176071 -245847,-323031 0,-29671 3969,-59834 12291,-89819 41175,-148513 176051,-245857 323031,-245857 29681,0 59804,3979 89789,12300 148542,41216 245858,176072 245858,323032 0,29681 -3979,59794 -12262,89809 -16614,59873 -49537,113978 -95104,156264 -26636,26695 -58488,47661 -93543,61592l-7093 3174 -11810 4205c-8675,3222 -17655,6013 -26321,8498 -11780,2909 -20180,13451 -20278,25604l0 207413c-69,14609 11711,26537 26321,26635l4205 -344c279684,-47710 492628,-290560 492205,-583194 -98,-71024 -12772,-144985 -40134,-219811 -46432,-128166 -183578,-272571 -309601,-323042 -75966,-30801 -157080,-46972 -239019,-47670l-2486 0z"/>
  </g>
 </g>
</svg>
