<?xml version="1.0" encoding="UTF-8"?>
<!DOCTYPE svg PUBLIC "-//W3C//DTD SVG 1.0//EN" "http://www.w3.org/TR/2001/REC-SVG-20010904/DTD/svg10.dtd">
<!-- Creator: CorelDRAW X7 -->
<svg xmlns="http://www.w3.org/2000/svg" xml:space="preserve" width="23.4527mm" height="23.4527mm" version="1.0" shape-rendering="geometricPrecision" text-rendering="geometricPrecision" image-rendering="optimizeQuality" fill-rule="evenodd" clip-rule="evenodd"
viewBox="0 0 54598882 54598882"
 xmlns:xlink="http://www.w3.org/1999/xlink">
 <g id="Camada_x0020_1">
  <metadata id="CorelCorpID_0Corel-Layer"/>
  <g id="_2018244233216">
   <path fill="#A9ABAE" d="M26613250 54524850c351768,-95915 439535,73799 673969,73799 233502,-233 323830,-169481 674201,-73799 785947,61926 2046582,-445121 2624169,-769651 1450371,-815280 2513355,-2040063 3107704,-3658984 361312,-983831 413926,-1793291 413461,-2917270l0 -20203451c0,-2196508 77989,-4539217 -9545,-6717567 -69143,-1719957 -871619,-3621270 -2035641,-4667259 -4709630,-4231450 -11380635,-1022709 -11586667,4722434 -78455,2188360 -6751,4513609 -6751,6717101l0 20203218c-1397,2245863 542433,3753037 1689926,5023683 162730,180191 221629,297990 412063,461418 161566,138751 294963,236762 446984,373651 762434,687471 2551535,1516487 3596127,1432677z"/>
   <path fill="#A9ABAE" d="M47038098 74963c-1119788,-135259 -3391492,1082540 -4202116,2000952 -2340149,2652805 -1909926,4847451 -1909926,8518541l0 33362711c0,3815196 -491217,7028127 3017143,9485376 615301,431154 2165079,1159598 3127958,1082307 351767,-95915 439534,73799 673968,73799 233503,-233 323831,-169481 674201,-73799 1504614,118730 3779344,-1265058 4710096,-2556656 1821227,-2527789 1435238,-4590434 1435238,-7956318l0 -33362944c0,-3820085 439069,-5804741 -1886413,-8542054 -167852,-197650 -829016,-751492 -1127704,-945418 -578286,-375280 -2214434,-1188465 -3097926,-1086497 -321037,66582 -450476,-74730 -707259,-74963 -257249,0 -386455,141545 -707260,74963z"/>
   <path fill="#A9ABAE" d="M6155344 54524850c351768,-95915 439535,73799 673969,73799 233502,-233 323830,-169481 674201,-73799 1241545,107090 2918667,-872783 3594497,-1434307 458392,-380867 851598,-729841 1228508,-1283450 1489249,-2187195 1322328,-3527217 1322328,-6211683l0 -10047132c0,-1884784 37016,-2762223 -670243,-4353673 -872550,-1963471 -3170561,-3888296 -6149059,-3888529 -2984084,-233 -5278836,1919937 -6150455,3886667 -706328,1594011 -668847,2466794 -668847,4355535l0 10047132c0,1673630 -117799,3096530 441863,4581122 464444,1232466 1313016,2318731 2097799,2923091 693989,534518 2346667,1521608 3605439,1425227z"/>
  </g>
 </g>
</svg>
