<?xml version="1.0" encoding="UTF-8"?>
<!DOCTYPE svg PUBLIC "-//W3C//DTD SVG 1.1//EN" "http://www.w3.org/Graphics/SVG/1.1/DTD/svg11.dtd">
<!-- Creator: CorelDRAW 2021 (64-Bit) -->
<svg xmlns="http://www.w3.org/2000/svg" xml:space="preserve" width="35px" height="35px" version="1.1" shape-rendering="geometricPrecision" text-rendering="geometricPrecision" image-rendering="optimizeQuality" fill-rule="evenodd" clip-rule="evenodd"
viewBox="0 0 37.59 37.55"
 xmlns:xlink="http://www.w3.org/1999/xlink"
 xmlns:xodm="http://www.corel.com/coreldraw/odm/2003">
 <g id="Camada_x0020_1">
  <metadata id="CorelCorpID_0Corel-Layer"/>
  <g id="_1588967262864">
   <path fill="#A9ABAE" d="M18.32 37.5c0.24,-0.07 0.3,0.05 0.46,0.05 0.17,0 0.23,-0.12 0.47,-0.05 0.54,0.04 1.41,-0.31 1.81,-0.53 0.99,-0.56 1.73,-1.4 2.14,-2.52 0.24,-0.67 0.28,-1.23 0.28,-2l0 -13.9c0,-1.51 0.05,-3.12 -0.01,-4.62 -0.04,-1.18 -0.6,-2.49 -1.4,-3.21 -3.24,-2.91 -7.83,-0.7 -7.97,3.25 -0.06,1.51 -0.01,3.1 -0.01,4.62l0 13.9c0,1.54 0.37,2.58 1.16,3.45 0.12,0.12 0.16,0.21 0.29,0.32 0.11,0.09 0.2,0.16 0.31,0.25 0.52,0.48 1.75,1.05 2.47,0.99z"/>
   <path fill="#A9ABAE" d="M32.38 0.05c-0.77,-0.09 -2.33,0.75 -2.89,1.38 -1.61,1.82 -1.32,3.33 -1.32,5.86l0 22.94c0,2.63 -0.33,4.84 2.08,6.53 0.42,0.29 1.49,0.79 2.15,0.74 0.25,-0.07 0.31,0.05 0.47,0.05 0.16,0 0.22,-0.12 0.46,-0.05 1.04,0.08 2.6,-0.87 3.24,-1.76 1.26,-1.74 0.99,-3.15 0.99,-5.47l0 -22.95c0,-2.62 0.3,-3.99 -1.3,-5.87 -0.11,-0.14 -0.57,-0.52 -0.77,-0.65 -0.4,-0.26 -1.53,-0.82 -2.14,-0.75 -0.22,0.05 -0.3,-0.05 -0.48,-0.05 -0.18,0 -0.27,0.1 -0.49,0.05z"/>
   <path fill="#A9ABAE" d="M4.24 37.5c0.24,-0.07 0.3,0.05 0.46,0.05 0.16,0 0.22,-0.12 0.47,-0.05 0.85,0.07 2,-0.6 2.47,-0.99 0.32,-0.26 0.59,-0.5 0.85,-0.88 1.02,-1.5 0.91,-2.42 0.91,-4.27l0 -6.91c0,-1.3 0.02,-1.9 -0.47,-3 -0.6,-1.35 -2.18,-2.67 -4.23,-2.67 -2.05,0 -3.63,1.32 -4.23,2.67 -0.49,1.1 -0.46,1.7 -0.46,3l0 6.91c0,1.15 -0.08,2.13 0.3,3.15 0.32,0.85 0.91,1.59 1.45,2.01 0.47,0.37 1.61,1.05 2.48,0.98z"/>
  </g>
 </g>
</svg>
