<?xml version="1.0" encoding="UTF-8"?>
<!DOCTYPE svg PUBLIC "-//W3C//DTD SVG 1.1//EN" "http://www.w3.org/Graphics/SVG/1.1/DTD/svg11.dtd">
<!-- Creator: CorelDRAW 2021 (64-Bit) -->
<svg xmlns="http://www.w3.org/2000/svg" xml:space="preserve" width="104px" height="28px" version="1.1" shape-rendering="geometricPrecision" text-rendering="geometricPrecision" image-rendering="optimizeQuality" fill-rule="evenodd" clip-rule="evenodd"
viewBox="0 0 18.03 4.95"
 xmlns:xlink="http://www.w3.org/1999/xlink"
 xmlns:xodm="http://www.corel.com/coreldraw/odm/2003">
 <g id="Camada_x0020_1">
  <metadata id="CorelCorpID_0Corel-Layer"/>
  <g id="_1552984897792">
   <path fill="white" fill-rule="nonzero" d="M8.84 2.24c0.05,0.03 0.12,0.05 0.19,0.05 0.11,0 0.17,-0.05 0.17,-0.13 0,-0.07 -0.04,-0.11 -0.15,-0.15 -0.14,-0.04 -0.22,-0.11 -0.22,-0.21 0,-0.12 0.11,-0.21 0.25,-0.21 0,0 0.01,0 0.01,0 0.07,0 0.13,0.01 0.19,0.04l-0.03 0.08c-0.05,-0.02 -0.1,-0.04 -0.16,-0.04 -0.11,0 -0.16,0.06 -0.16,0.12 0,0.07 0.06,0.11 0.17,0.15 0.14,0.05 0.21,0.11 0.21,0.22 0,0.11 -0.09,0.22 -0.29,0.22 -0.07,0 -0.15,-0.02 -0.21,-0.05l0.03 -0.09z"/>
   <path fill="white" fill-rule="nonzero" d="M9.84 2.04l0 0c0.02,-0.08 -0.04,-0.15 -0.13,-0.16 0,0 -0.01,0 -0.01,0 -0.1,0 -0.17,0.07 -0.17,0.16l0.31 0zm-0.31 0.07c-0.01,0.09 0.06,0.18 0.17,0.18 0.01,0 0.02,0 0.03,0 0.06,0.01 0.11,0 0.17,-0.02l0.02 0.07c-0.07,0.02 -0.13,0.03 -0.2,0.03 -0.16,0.01 -0.29,-0.1 -0.3,-0.24 0,-0.01 0,-0.02 0,-0.03 -0.02,-0.15 0.1,-0.28 0.26,-0.29 0.01,0 0.02,-0.01 0.02,-0.01 0.15,0.01 0.26,0.12 0.25,0.25 0,0 0,0.01 0,0.01 0,0.02 0,0.03 0,0.05l-0.42 0z"/>
   <path fill="white" fill-rule="nonzero" d="M10.51 2.34c-0.05,0.02 -0.11,0.03 -0.17,0.03 -0.16,0.01 -0.29,-0.1 -0.3,-0.24 0,-0.01 0,-0.02 0,-0.04 -0.01,-0.15 0.12,-0.28 0.29,-0.29 0.01,0 0.02,0 0.03,0 0.06,0 0.11,0.01 0.15,0.03l-0.02 0.08c-0.04,-0.02 -0.08,-0.03 -0.13,-0.03 -0.11,0 -0.21,0.08 -0.21,0.18 0,0.01 0,0.02 0,0.03 -0.01,0.11 0.07,0.2 0.19,0.21 0,0 0.01,0 0.02,0 0.04,0 0.08,-0.01 0.12,-0.03l0.03 0.07z"/>
   <path fill="white" fill-rule="nonzero" d="M11.14 2.21l0 0.15 -0.09 0 0 -0.09c-0.04,0.06 -0.12,0.1 -0.2,0.1 -0.09,0 -0.21,-0.05 -0.21,-0.24l0 -0.31 0.11 0 0 0.3c0,0.1 0.04,0.17 0.13,0.17 0.06,0 0.12,-0.04 0.14,-0.09 0.01,-0.02 0.02,-0.03 0.01,-0.05l0 -0.33 0.11 0 0 0.39z"/>
   <path fill="white" fill-rule="nonzero" d="M11.32 1.99l0 -0.17 0.1 0 0 0.11c0.02,-0.07 0.09,-0.12 0.17,-0.12 0.01,0 0.02,0 0.03,0l0 0.09 -0.04 0c-0.08,0 -0.14,0.06 -0.15,0.12 0,0.02 0,0.04 0,0.05l0 0.29 -0.11 0 0 -0.37z"/>
   <path fill="white" fill-rule="nonzero" d="M11.84 2.36l-0.11 0 0 -0.54 0.11 0 0 0.54zm-0.06 -0.64c-0.03,0 -0.07,-0.03 -0.06,-0.07 0,-0.03 0.03,-0.06 0.07,-0.06 0.04,0 0.07,0.03 0.07,0.06 0,0.04 -0.03,0.07 -0.07,0.07l0 0 -0.01 0z"/>
   <path fill="white" fill-rule="nonzero" d="M12.15 1.69l0 0.13 0.16 0 0 0.07 -0.16 0 0 0.3c0,0.06 0.03,0.1 0.09,0.1 0.02,0 0.04,0 0.06,-0.01l0 0.08c-0.03,0.01 -0.07,0.01 -0.1,0.01 -0.04,0.01 -0.08,-0.01 -0.11,-0.04 -0.04,-0.04 -0.05,-0.09 -0.05,-0.14l0 -0.3 -0.09 0 0 -0.07 0.09 0 0 -0.1 0.11 -0.03z"/>
   <path fill="white" fill-rule="nonzero" d="M12.48 1.82l0.13 0.32c0.02,0.03 0.03,0.08 0.04,0.12 0.01,-0.04 0.02,-0.08 0.04,-0.12l0.12 -0.32 0.11 0 -0.16 0.39c-0.03,0.13 -0.1,0.24 -0.2,0.34 -0.04,0.03 -0.08,0.05 -0.13,0.06l-0.03 -0.08c0.04,-0.01 0.07,-0.02 0.1,-0.05 0.04,-0.03 0.07,-0.07 0.09,-0.11 0,-0.01 0.01,-0.01 0.01,-0.02 0,-0.01 -0.01,-0.02 -0.01,-0.02l-0.22 -0.51 0.11 0z"/>
   <path fill="white" fill-rule="nonzero" d="M8.84 3.36c0.05,0.04 0.12,0.05 0.19,0.05 0.11,0 0.17,-0.05 0.17,-0.13 0,-0.07 -0.04,-0.11 -0.15,-0.15 -0.14,-0.04 -0.22,-0.11 -0.22,-0.21 0,-0.12 0.11,-0.21 0.25,-0.21 0,0 0.01,0 0.01,0 0.07,0 0.13,0.02 0.19,0.04l-0.03 0.08c-0.05,-0.03 -0.1,-0.04 -0.16,-0.04 -0.11,0 -0.16,0.06 -0.16,0.12 0,0.07 0.06,0.1 0.17,0.14 0.14,0.05 0.21,0.12 0.21,0.22 0,0.11 -0.09,0.22 -0.29,0.22 -0.07,0 -0.15,-0.01 -0.21,-0.05l0.03 -0.08z"/>
   <path fill="white" fill-rule="nonzero" d="M9.58 2.81l0 0.13 0.16 0 0 0.08 -0.16 0 0 0.29c0,0.06 0.02,0.1 0.09,0.1 0.02,0 0.04,0 0.06,0l0 0.07c-0.03,0.01 -0.06,0.02 -0.1,0.02 -0.04,0 -0.08,-0.02 -0.12,-0.05 -0.03,-0.04 -0.04,-0.09 -0.04,-0.14l0 -0.29 -0.09 0 0 -0.08 0.09 0 0 -0.1 0.11 -0.03z"/>
   <path fill="white" fill-rule="nonzero" d="M10.18 3.21l0 0c-0.12,0 -0.26,0.01 -0.26,0.12 0,0.05 0.04,0.09 0.09,0.09 0,0 0.01,0 0.01,0 0.07,0 0.13,-0.03 0.15,-0.09 0,-0.01 0,-0.02 0,-0.03l0.01 -0.09zm0.1 0.14c0,0.05 0.01,0.09 0.01,0.14l-0.09 0 -0.01 -0.07c-0.05,0.05 -0.12,0.08 -0.19,0.08 -0.09,0.01 -0.17,-0.06 -0.18,-0.14 0,-0.01 0,-0.01 0,-0.02 0,-0.13 0.13,-0.2 0.36,-0.2l0 -0.01c0,-0.06 -0.05,-0.12 -0.12,-0.12 0,0 -0.01,0 -0.02,0 -0.05,0 -0.11,0.01 -0.15,0.04l-0.03 -0.07c0.06,-0.03 0.13,-0.05 0.2,-0.05 0.18,0 0.23,0.12 0.23,0.22l-0.01 0.2z"/>
   <path fill="white" fill-rule="nonzero" d="M10.46 3.09c0,-0.05 0,-0.1 0,-0.15l0.1 0 0 0.09c0.04,-0.07 0.11,-0.1 0.19,-0.1 0.09,0 0.22,0.04 0.22,0.23l0 0.33 -0.11 0 0 -0.32c0,-0.09 -0.04,-0.16 -0.14,-0.16 -0.09,0 -0.16,0.07 -0.16,0.14l0 0.34 -0.1 0 0 -0.4z"/>
   <path fill="white" fill-rule="nonzero" d="M11.56 3.16l0 0c0,-0.01 0,-0.03 0,-0.04 -0.01,-0.07 -0.08,-0.12 -0.16,-0.12 -0.11,0 -0.18,0.09 -0.18,0.21 0,0.12 0.07,0.2 0.18,0.2 0.08,0 0.14,-0.05 0.16,-0.11 0,-0.02 0,-0.03 0,-0.04l0 -0.1zm0.11 -0.47l0 0.65 0 0.14 -0.1 0 0 -0.09c-0.04,0.07 -0.12,0.11 -0.2,0.1 -0.15,0 -0.27,-0.12 -0.26,-0.26 0,0 0,-0.01 0,-0.01 -0.02,-0.14 0.09,-0.27 0.25,-0.29 0.01,0 0.01,0 0.02,0 0.07,-0.01 0.14,0.02 0.18,0.08l0 -0.32 0.11 0z"/>
   <path fill="white" fill-rule="nonzero" d="M12.16 3.21l0 0c-0.12,0 -0.25,0.01 -0.25,0.12 -0.01,0.05 0.03,0.09 0.08,0.09 0.01,0 0.01,0 0.02,0 0.06,0 0.12,-0.03 0.14,-0.09 0.01,-0.01 0.01,-0.02 0,-0.03l0.01 -0.09zm0.11 0.14c0,0.05 0,0.09 0.01,0.14l-0.1 0 -0.01 -0.07c-0.04,0.05 -0.11,0.08 -0.18,0.08 -0.1,0.01 -0.18,-0.06 -0.19,-0.14 0,-0.01 0,-0.01 0,-0.02 0,-0.13 0.13,-0.2 0.36,-0.2l0 -0.01c0.01,-0.06 -0.04,-0.12 -0.12,-0.12 0,0 -0.01,0 -0.02,0 -0.05,0 -0.11,0.01 -0.15,0.04l-0.03 -0.07c0.06,-0.03 0.13,-0.05 0.2,-0.05 0.19,0 0.23,0.12 0.23,0.22l0 0.2z"/>
   <path fill="white" fill-rule="nonzero" d="M12.44 3.11l0 -0.17 0.1 0 0 0.11c0.02,-0.07 0.09,-0.12 0.17,-0.12 0.01,0 0.02,0 0.03,0l0 0.09 -0.04 0c-0.08,0.01 -0.14,0.06 -0.15,0.13 0,0.01 0,0.03 0,0.05l0 0.29 -0.11 0 0 -0.38z"/>
   <path fill="white" fill-rule="nonzero" d="M13.25 3.16l0 0c0,-0.01 0,-0.03 0,-0.04 -0.02,-0.07 -0.08,-0.12 -0.16,-0.12 -0.11,0 -0.18,0.09 -0.18,0.21 0,0.12 0.06,0.2 0.18,0.2 0.08,0 0.14,-0.05 0.16,-0.11 0,-0.02 0,-0.03 0,-0.05l0 -0.09zm0.11 -0.47l0 0.65 0 0.14 -0.1 0 0 -0.09c-0.04,0.07 -0.12,0.11 -0.2,0.1 -0.15,0 -0.27,-0.12 -0.26,-0.26 0,0 0,-0.01 0,-0.01 -0.02,-0.14 0.09,-0.27 0.25,-0.29 0.01,0 0.01,0 0.02,0 0.07,-0.01 0.14,0.02 0.18,0.08l0 -0.32 0.11 0z"/>
   <path fill="white" fill-rule="nonzero" d="M13.53 3.38c0.04,0.03 0.09,0.04 0.14,0.04 0.08,0 0.11,-0.03 0.11,-0.08 0,-0.05 -0.03,-0.07 -0.11,-0.1 -0.1,-0.04 -0.16,-0.09 -0.16,-0.15 0.01,-0.1 0.1,-0.17 0.2,-0.16 0,0 0.01,0 0.01,0 0.05,0 0.1,0.01 0.15,0.03l-0.03 0.07c-0.04,-0.02 -0.08,-0.03 -0.13,-0.03 -0.06,0 -0.09,0.03 -0.09,0.07 0,0.05 0.03,0.07 0.11,0.1 0.1,0.03 0.15,0.08 0.15,0.16 0,0.08 -0.08,0.16 -0.22,0.16 -0.06,0 -0.11,-0.01 -0.17,-0.03l0.04 -0.08z"/>
   <path fill="white" fill-rule="nonzero" d="M14.88 3.46c-0.07,0.02 -0.15,0.04 -0.22,0.03 -0.21,0.02 -0.4,-0.13 -0.41,-0.32 -0.01,-0.02 -0.01,-0.04 0,-0.06 -0.02,-0.21 0.16,-0.38 0.39,-0.4 0.01,0 0.03,0 0.04,0 0.07,0 0.14,0.01 0.2,0.04l-0.03 0.08c-0.05,-0.02 -0.11,-0.03 -0.16,-0.03 -0.17,-0.01 -0.32,0.11 -0.33,0.26 0,0.02 0,0.03 0,0.05 -0.02,0.15 0.1,0.28 0.27,0.3 0.01,0 0.03,0 0.05,0 0.06,0 0.12,-0.01 0.18,-0.03l0.02 0.08z"/>
   <path fill="white" fill-rule="nonzero" d="M15.24 3.42l0 0c0.11,0 0.19,-0.09 0.19,-0.21 0,-0.09 -0.05,-0.21 -0.18,-0.21 -0.13,0 -0.19,0.11 -0.19,0.21 0,0.1 0.08,0.21 0.18,0.21l0 0zm0 0.07c-0.15,0.01 -0.28,-0.11 -0.28,-0.25 0,-0.01 0,-0.02 0,-0.02 -0.02,-0.15 0.1,-0.28 0.26,-0.29 0.01,0 0.02,0 0.03,0 0.16,-0.01 0.29,0.1 0.29,0.25 0,0.01 0,0.02 0,0.03 0.02,0.14 -0.1,0.27 -0.26,0.28 -0.01,0 -0.02,0 -0.03,0l-0.01 0z"/>
   <path fill="white" fill-rule="nonzero" d="M16.18 3.33l0 0.15 -0.1 0 0 -0.09c-0.04,0.07 -0.12,0.11 -0.2,0.1 -0.09,0 -0.2,-0.04 -0.2,-0.23l0 -0.32 0.1 0 0 0.3c0,0.1 0.04,0.17 0.13,0.17 0.07,0 0.12,-0.03 0.15,-0.09 0,-0.01 0.01,-0.03 0.01,-0.05l0 -0.33 0.11 0 0 0.39z"/>
   <path fill="white" fill-rule="nonzero" d="M16.36 3.09l0 -0.15 0.09 0 0 0.09c0.05,-0.07 0.12,-0.1 0.2,-0.1 0.09,0 0.21,0.04 0.21,0.23l0 0.33 -0.1 0 0 -0.32c0,-0.09 -0.04,-0.16 -0.14,-0.16 -0.07,0 -0.13,0.04 -0.15,0.1 0,0.01 -0.01,0.03 -0.01,0.04l0 0.34 -0.11 0 0.01 -0.4z"/>
   <path fill="white" fill-rule="nonzero" d="M17.47 3.46c-0.05,0.03 -0.11,0.04 -0.17,0.04 -0.16,0 -0.29,-0.11 -0.3,-0.25 0,-0.01 0,-0.02 0,-0.03 -0.01,-0.16 0.12,-0.29 0.29,-0.29 0.01,0 0.02,0 0.03,0 0.05,0 0.11,0.01 0.15,0.03l-0.02 0.07c-0.04,-0.02 -0.09,-0.03 -0.13,-0.02 -0.11,-0.01 -0.21,0.08 -0.21,0.18 0,0.01 0,0.02 0,0.02 -0.01,0.11 0.07,0.2 0.18,0.2 0.01,0 0.02,0.01 0.03,0.01 0.04,-0.01 0.08,-0.01 0.12,-0.03l0.03 0.07z"/>
   <path fill="white" fill-rule="nonzero" d="M17.71 3.49l-0.11 0 0 -0.55 0.11 0 0 0.55zm-0.06 -0.64c-0.04,-0.01 -0.06,-0.04 -0.06,-0.08 0.01,-0.03 0.03,-0.05 0.06,-0.05 0.04,0 0.07,0.02 0.07,0.06 0,0 0,0 0,0 0,0.04 -0.03,0.06 -0.06,0.07l-0.01 0 0 0z"/>
   <polygon fill="white" fill-rule="nonzero" points="17.89,3.48 18,3.48 18,2.69 17.89,2.69 "/>
   <path fill="white" fill-rule="nonzero" d="M6.73 0l-6.73 0.34 1.87 4.61 6.41 -1.83 -1.55 -3.12zm-3.38 2.51c-0.06,0.09 -0.14,0.16 -0.24,0.22 -0.12,0.06 -0.24,0.11 -0.38,0.13 -0.16,0.03 -0.32,0.05 -0.48,0.05l-0.13 0 0 0.59 -0.84 0 0 -1.98 0.98 0c0.3,-0.01 0.6,0.05 0.86,0.17 0.2,0.1 0.33,0.3 0.31,0.51 0.01,0.11 -0.02,0.21 -0.08,0.31zm2.15 0.99c-0.15,0.02 -0.29,0.03 -0.44,0.03 -0.21,0 -0.42,-0.02 -0.62,-0.07 -0.16,-0.04 -0.32,-0.11 -0.46,-0.2 -0.12,-0.09 -0.22,-0.2 -0.28,-0.33 -0.07,-0.13 -0.1,-0.27 -0.1,-0.42 -0.01,-0.14 0.03,-0.28 0.1,-0.41 0.07,-0.13 0.17,-0.24 0.3,-0.33 0.13,-0.09 0.29,-0.16 0.45,-0.21 0.19,-0.05 0.38,-0.07 0.58,-0.07 0.15,0 0.3,0.01 0.44,0.03 0.08,0.01 0.17,0.04 0.24,0.06l0 0.54c-0.09,-0.05 -0.18,-0.08 -0.27,-0.11 -0.11,-0.03 -0.22,-0.04 -0.33,-0.04 -0.17,-0.01 -0.33,0.04 -0.46,0.14 -0.13,0.1 -0.19,0.25 -0.18,0.4 0,0.08 0.02,0.16 0.05,0.23 0.04,0.07 0.09,0.13 0.15,0.17 0.07,0.05 0.14,0.09 0.22,0.11 0.09,0.03 0.18,0.04 0.28,0.04 0.1,0 0.19,-0.02 0.29,-0.04 0.1,-0.02 0.2,-0.05 0.3,-0.08l0 0.5c-0.08,0.02 -0.17,0.04 -0.26,0.06zm0.61 -1.98l0.83 0 0 1.98 -0.83 0 0 -1.98z"/>
   <path fill="white" fill-rule="nonzero" d="M2.21 1.95l-0.1 0 0 0.53 0.1 0c0.11,0 0.22,-0.02 0.31,-0.07 0.08,-0.04 0.12,-0.12 0.11,-0.2 0,-0.18 -0.14,-0.26 -0.42,-0.26z"/>
   <path fill="white" fill-rule="nonzero" d="M7.03 0.9c0.01,0.12 -0.04,0.24 -0.14,0.32 -0.21,0.15 -0.51,0.15 -0.73,0 -0.09,-0.08 -0.15,-0.2 -0.14,-0.32 -0.01,-0.12 0.04,-0.24 0.15,-0.32 0.21,-0.15 0.51,-0.15 0.72,0 0.1,0.08 0.15,0.2 0.15,0.32l-0.01 0z"/>
   <polygon fill="white" fill-rule="nonzero" points="17.42,1.67 17.32,1.67 17.32,1.61 17.6,1.61 17.6,1.67 17.5,1.67 17.5,1.93 17.42,1.93 "/>
   <path fill="white" fill-rule="nonzero" d="M17.94 1.81l0 -0.13c-0.01,0.04 -0.02,0.08 -0.04,0.12l-0.04 0.13 -0.07 0 -0.04 -0.13c-0.01,-0.03 -0.02,-0.08 -0.03,-0.12 0,0.04 0,0.09 -0.01,0.13l0 0.12 -0.08 0 0.03 -0.32 0.1 0 0.04 0.11c0.01,0.04 0.02,0.08 0.03,0.11 0.01,-0.03 0.02,-0.08 0.03,-0.11l0.04 -0.11 0.11 0 0.02 0.33 -0.08 0 -0.01 -0.13z"/>
  </g>
 </g>
</svg>
