<?xml version="1.0" encoding="UTF-8"?>
<!DOCTYPE svg PUBLIC "-//W3C//DTD SVG 1.1//EN" "http://www.w3.org/Graphics/SVG/1.1/DTD/svg11.dtd">
<!-- Creator: CorelDRAW 2021 (64-Bit) -->
<svg xmlns="http://www.w3.org/2000/svg" xml:space="preserve" width="35px" height="35px" version="1.1" shape-rendering="geometricPrecision" text-rendering="geometricPrecision" image-rendering="optimizeQuality" fill-rule="evenodd" clip-rule="evenodd"
viewBox="0 0 1.65 1.65"
 xmlns:xlink="http://www.w3.org/1999/xlink"
 xmlns:xodm="http://www.corel.com/coreldraw/odm/2003">
 <g id="Camada_x0020_1">
  <metadata id="CorelCorpID_0Corel-Layer"/>
  <g id="_1588498877680">
   <path fill="#A9ABAE" d="M0.8 1.65c0.01,-0.01 0.02,0 0.02,0 0.01,0 0.01,-0.01 0.02,0 0.03,0 0.07,-0.02 0.08,-0.03 0.05,-0.02 0.08,-0.06 0.1,-0.11 0.01,-0.03 0.01,-0.05 0.01,-0.09l0 -0.61c0,-0.06 0,-0.13 0,-0.2 0,-0.05 -0.03,-0.11 -0.06,-0.14 -0.14,-0.13 -0.35,-0.03 -0.35,0.14 0,0.07 0,0.14 0,0.21l0 0.61c0,0.06 0.01,0.11 0.05,0.15 0,0 0.01,0.01 0.01,0.01 0.01,0.01 0.01,0.01 0.02,0.01 0.02,0.02 0.07,0.05 0.1,0.05zm0.02 -1.08l0 0c0.04,0 0.08,0.03 0.08,0.07l0 0.78c0,0.03 -0.04,0.07 -0.08,0.07l0 0c-0.03,0 -0.07,-0.04 -0.07,-0.07l0 -0.78c0,-0.04 0.04,-0.07 0.07,-0.07z"/>
   <path fill="#A9ABAE" d="M1.37 1.45c0,-0.03 0,-0.16 0,-0.19l0 -1.04c0,-0.04 0.01,-0.05 0.03,-0.07 0.04,-0.03 0.11,-0.01 0.11,0.05 0,0.04 0,0.15 0,0.19l0 1.04c0,0.03 -0.01,0.05 -0.03,0.07 -0.01,0.01 -0.04,0.02 -0.07,0 -0.02,-0.01 -0.03,-0.03 -0.04,-0.05zm0.05 -1.45c-0.03,0 -0.1,0.03 -0.13,0.06 -0.07,0.08 -0.05,0.15 -0.05,0.26l0 1.01c0,0.11 -0.02,0.21 0.09,0.28 0.02,0.02 0.06,0.04 0.09,0.04 0.01,-0.01 0.02,0 0.02,0 0.01,0 0.01,-0.01 0.02,0 0.05,0 0.12,-0.04 0.15,-0.08 0.05,-0.08 0.04,-0.14 0.04,-0.24l0 -1.01c0,-0.11 0.01,-0.17 -0.06,-0.26 0,0 -0.02,-0.02 -0.03,-0.02 -0.02,-0.02 -0.07,-0.04 -0.1,-0.04 -0.01,0 -0.01,0 -0.02,0 -0.01,0 -0.01,0 -0.02,0z"/>
   <path fill="#A9ABAE" d="M0.19 1.65c0.01,-0.01 0.01,0 0.02,0 0,0 0.01,-0.01 0.02,0 0.03,0 0.08,-0.03 0.11,-0.05 0.01,-0.01 0.02,-0.02 0.03,-0.04 0.05,-0.06 0.04,-0.1 0.04,-0.18l0 -0.31c0,-0.05 0,-0.08 -0.02,-0.13 -0.02,-0.06 -0.09,-0.12 -0.18,-0.12 -0.09,0 -0.16,0.06 -0.19,0.12 -0.02,0.05 -0.02,0.08 -0.02,0.13l0 0.31c0,0.05 0,0.09 0.01,0.13 0.02,0.04 0.04,0.07 0.07,0.09 0.02,0.02 0.07,0.05 0.11,0.05z"/>
  </g>
 </g>
</svg>
