<?xml version="1.0" encoding="UTF-8"?>
<!DOCTYPE svg PUBLIC "-//W3C//DTD SVG 1.0//EN" "http://www.w3.org/TR/2001/REC-SVG-20010904/DTD/svg10.dtd">
<!-- Creator: CorelDRAW X7 -->
<svg xmlns="http://www.w3.org/2000/svg" xml:space="preserve" width="23.4517mm" height="28.0925mm" version="1.0" shape-rendering="geometricPrecision" text-rendering="geometricPrecision" image-rendering="optimizeQuality" fill-rule="evenodd" clip-rule="evenodd"
viewBox="0 0 1254384 1502611"
 xmlns:xlink="http://www.w3.org/1999/xlink">
 <g id="Camada_x0020_1">
  <metadata id="CorelCorpID_0Corel-Layer"/>
  <g id="_2018534473264">
   <path fill="#A9ABAE" d="M281454 4899c-31039,-4032 -79355,16951 -103323,27884 -80553,36730 -148820,119588 -169707,217434 -13479,63142 -6728,182255 -6728,252254 0,86031 0,172061 0,258091 0,180602 -23508,288172 105301,411959 106778,102617 264183,80039 435441,80039 149012,0 292258,16122 395458,-123044 38335,-51690 63554,-109623 65047,-192979 2936,-163721 -49,-349624 48,-516186 42,-69700 -13281,-146658 -63089,-195049 -43336,-42095 -154340,-161534 -198655,-188459 -20063,-12190 -67512,-35634 -95909,-31997 -15121,1407 -28440,-4637 -44112,-4846l-278902 43c-16715,684 -24920,7766 -40870,4856zm594882 371977c-83842,-5627 -159870,14742 -212411,-36928 -51878,-51017 -29065,-130093 -37147,-212149 -74745,0 -310584,-9243 -367078,7001 -48299,13886 -84233,47278 -105655,81987 -30408,49268 -27188,95139 -27188,159571 0,125135 0,250270 0,375405 0,77761 -10146,202185 16352,264295 4808,11264 11072,20956 17084,29707 9783,14244 9649,13597 21620,25385 36944,36383 76814,54836 131596,55922l375684 38c105783,-1733 187411,-81350 188379,-187620 556,-60896 1893,-127243 -289,-187727 -4423,-122669 -1123,-251565 -947,-374887z"/>
   <path fill="#A9ABAE" d="M1180533 440468c-36933,8387 -52434,30938 -52439,73723l53 375416c11,83099 6,166198 0,249291 -11,100365 -6627,135132 -62008,189305 -52354,51209 -113090,48979 -201019,48979 -36864,0 -472443,-2712 -496834,1038 -32526,4995 -59901,34708 -52236,74380 3011,15613 13420,29140 24390,37800 14993,11826 30446,12249 52376,12206 166219,-348 332476,-32 498706,-32 83018,0 143556,-4729 206388,-42962 49338,-30023 95867,-74648 122108,-130163 36490,-77194 33275,-124317 33286,-216947 10,-65806 3204,-600900 -1450,-624119 -5766,-28750 -37040,-55697 -71321,-47915z"/>
  </g>
 </g>
</svg>
