<?xml version="1.0" encoding="UTF-8"?>
<!DOCTYPE svg PUBLIC "-//W3C//DTD SVG 1.1//EN" "http://www.w3.org/Graphics/SVG/1.1/DTD/svg11.dtd">
<!-- Creator: CorelDRAW 2021 (64-Bit) -->
<svg xmlns="http://www.w3.org/2000/svg" xml:space="preserve" width="33px" height="39px" version="1.1" shape-rendering="geometricPrecision" text-rendering="geometricPrecision" image-rendering="optimizeQuality" fill-rule="evenodd" clip-rule="evenodd"
viewBox="0 0 1.41 1.69"
 xmlns:xlink="http://www.w3.org/1999/xlink"
 xmlns:xodm="http://www.corel.com/coreldraw/odm/2003">
 <g id="Camada_x0020_1">
  <metadata id="CorelCorpID_0Corel-Layer"/>
  <g id="_1588808243008">
   <path fill="#A9ABAE" d="M0.32 0.01c-0.04,-0.01 -0.09,0.01 -0.12,0.03 -0.09,0.04 -0.17,0.13 -0.19,0.24 -0.02,0.07 -0.01,0.21 -0.01,0.29 0,0.09 0,0.19 0,0.29 0,0.2 -0.02,0.32 0.12,0.46 0.12,0.12 0.3,0.09 0.49,0.09 0.17,0 0.33,0.02 0.45,-0.14 0.04,-0.06 0.07,-0.12 0.07,-0.22 0,-0.18 0,-0.39 0,-0.58 0,-0.08 -0.02,-0.16 -0.07,-0.22 -0.05,-0.04 -0.18,-0.18 -0.23,-0.21 -0.02,-0.01 -0.07,-0.04 -0.1,-0.03 -0.02,0 -0.04,-0.01 -0.05,-0.01l-0.32 0c-0.02,0 -0.03,0.01 -0.04,0.01zm0.67 0.41c-0.1,0 -0.18,0.02 -0.24,-0.04 -0.06,-0.05 -0.04,-0.14 -0.04,-0.24 -0.09,0 -0.35,-0.01 -0.42,0.01 -0.05,0.02 -0.09,0.05 -0.12,0.09 -0.03,0.06 -0.03,0.11 -0.03,0.18 0,0.14 0,0.29 0,0.43 0,0.08 -0.01,0.22 0.02,0.29 0.01,0.02 0.01,0.03 0.02,0.04 0.01,0.01 0.01,0.01 0.02,0.03 0.05,0.04 0.09,0.06 0.15,0.06l0.43 0c0.11,0 0.21,-0.09 0.21,-0.21 0,-0.07 0,-0.15 0,-0.21 -0.01,-0.14 0,-0.29 0,-0.43z"/>
   <path fill="#A9ABAE" d="M1.33 0.5c-0.04,0.01 -0.06,0.03 -0.06,0.08l0 0.42c0,0.09 0,0.19 0,0.28 0,0.11 -0.01,0.15 -0.07,0.21 -0.06,0.06 -0.13,0.06 -0.23,0.06 -0.04,0 -0.53,0 -0.56,0 -0.03,0.01 -0.06,0.04 -0.05,0.08 0,0.02 0.01,0.04 0.02,0.05 0.02,0.01 0.04,0.01 0.06,0.01 0.19,0 0.38,0 0.56,0 0.1,0 0.17,0 0.24,-0.05 0.05,-0.03 0.1,-0.08 0.13,-0.14 0.04,-0.09 0.04,-0.14 0.04,-0.25 0,-0.07 0,-0.67 0,-0.7 -0.01,-0.03 -0.04,-0.06 -0.08,-0.05z"/>
  </g>
 </g>
</svg>
