<?xml version="1.0" encoding="UTF-8"?>
<!DOCTYPE svg PUBLIC "-//W3C//DTD SVG 1.1//EN" "http://www.w3.org/Graphics/SVG/1.1/DTD/svg11.dtd">
<!-- Creator: CorelDRAW 2021 (64-Bit) -->
<svg xmlns="http://www.w3.org/2000/svg" xml:space="preserve" width="107px" height="96px" version="1.1" shape-rendering="geometricPrecision" text-rendering="geometricPrecision" image-rendering="optimizeQuality" fill-rule="evenodd" clip-rule="evenodd"
viewBox="0 0 19.63 17.46"
 xmlns:xlink="http://www.w3.org/1999/xlink"
 xmlns:xodm="http://www.corel.com/coreldraw/odm/2003">
 <g id="Camada_x0020_1">
  <metadata id="CorelCorpID_0Corel-Layer"/>
  <g id="_1589016379248">
   <path fill="#FEFEFE" stroke="#D2D3D5" stroke-width="0.16" stroke-miterlimit="22.9256" d="M4.54 0.08l13.3 0c1.1,0 1.86,0.9 1.68,2l-2.11 13.3c-0.18,1.1 -1.22,2 -2.32,2l-13.3 0c-1.1,0 -1.86,-0.9 -1.68,-2l2.11 -13.3c0.18,-1.1 1.22,-2 2.32,-2z"/>
   <path fill="#96989A" fill-rule="nonzero" d="M9.85 7.4c-0.5,-0.5 -0.62,-1.01 -0.64,-1.21 -0.01,-0.06 0.01,-0.11 0.05,-0.15l0.41 -0.41c0.06,-0.06 0.07,-0.15 0.02,-0.23l-0.65 -1c-0.05,-0.08 -0.15,-0.11 -0.23,-0.07l-1.04 0.49c-0.07,0.03 -0.11,0.11 -0.1,0.18 0.05,0.52 0.28,1.8 1.53,3.05 1.25,1.25 2.53,1.48 3.05,1.54 0.07,0 0.15,-0.04 0.18,-0.1l0.49 -1.05c0.04,-0.08 0.01,-0.18 -0.07,-0.23l-1 -0.65c-0.08,-0.05 -0.17,-0.04 -0.23,0.02l-0.41 0.41c-0.04,0.04 -0.09,0.06 -0.15,0.05 -0.2,-0.02 -0.7,-0.14 -1.21,-0.64z"/>
   <path fill="#96989A" fill-rule="nonzero" d="M11.85 7.13c-0.1,0 -0.18,-0.08 -0.18,-0.18 0,-0.76 -0.61,-1.37 -1.36,-1.37 -0.11,0 -0.19,-0.08 -0.19,-0.18 0,-0.1 0.08,-0.18 0.19,-0.18 0.95,0 1.72,0.77 1.73,1.73 0,0.1 -0.09,0.18 -0.19,0.18z"/>
   <path fill="#96989A" fill-rule="nonzero" d="M12.76 7.13c-0.1,0 -0.18,-0.08 -0.18,-0.18 0,-1.26 -1.02,-2.28 -2.27,-2.28 -0.11,0 -0.19,-0.08 -0.19,-0.18 0,-0.1 0.08,-0.18 0.19,-0.18 1.45,0 2.63,1.18 2.64,2.64 0,0.04 -0.02,0.09 -0.06,0.12 -0.03,0.04 -0.08,0.06 -0.13,0.06z"/>
   <text x="5.02" y="14.61"  fill="black" font-weight="300" font-size="2.22px" font-family="Open Sans Light">Telefone</text>
  </g>
 </g>
</svg>
