<?xml version="1.0" encoding="UTF-8"?>
<!DOCTYPE svg PUBLIC "-//W3C//DTD SVG 1.0//EN" "http://www.w3.org/TR/2001/REC-SVG-20010904/DTD/svg10.dtd">
<!-- Creator: CorelDRAW X7 -->
<svg xmlns="http://www.w3.org/2000/svg" xml:space="preserve" width="35.9172mm" height="31.9338mm" version="1.0" shape-rendering="geometricPrecision" text-rendering="geometricPrecision" image-rendering="optimizeQuality" fill-rule="evenodd" clip-rule="evenodd"
viewBox="0 0 3822923 3398941"
 xmlns:xlink="http://www.w3.org/1999/xlink">
 <g id="Camada_x0020_1">
  <metadata id="CorelCorpID_0Corel-Layer"/>
  <g id="_2018457107552">
   <path fill="#FEFEFE" stroke="#D2D3D5" stroke-width="8110.51" d="M877840 4055l2606091 0c215823,0 364302,176537 330019,392317l-414157 2606144c-34284,215823 -238888,392359 -454710,392359l-2606102 0c-215812,0 -364292,-176536 -330008,-392359l414157 -2606144c34283,-215780 238887,-392317 454710,-392317z"/>
   <path fill="#96989A" fill-rule="nonzero" d="M1918848 1438253c-98805,-98806 -121104,-197633 -126085,-237195 -1416,-10974 2277,-21958 10090,-29675l80009 -79892c11750,-11740 13815,-30122 5002,-44256l-127277 -197611c-9792,-15668 -29792,-21203 -46205,-13060l-204369 96325c-13380,6525 -21192,20649 -19681,35433 10772,101743 55113,351764 300792,597549 245773,245795 495816,290137 597559,300780 14773,1533 28919,-6301 35539,-19552l96198 -204370c8270,-16423 2608,-36412 -12932,-46204l-197622 -127289c-14124,-8802 -32389,-6737 -44246,5003l-79902 80009c-7706,7812 -18691,11516 -29664,10101 -39574,-4992 -138390,-27291 -237206,-126096z"/>
   <path fill="#96989A" fill-rule="nonzero" d="M2311186 1385013c-19680,0 -35657,-15976 -35657,-35657 -223,-147830 -120018,-267519 -267742,-267742 -19680,0 -35657,-15976 -35657,-35657 0,-19786 15977,-35762 35657,-35762 187191,212 338832,151960 339045,339161 0,19681 -15977,35657 -35646,35657z"/>
   <path fill="#96989A" fill-rule="nonzero" d="M2489638 1385013c-19669,0 -35645,-15976 -35645,-35657 -341,-246316 -199921,-445907 -446249,-446237 -19669,0 -35645,-15987 -35645,-35657 0,-19669 15976,-35645 35645,-35645 285795,212 517231,231756 517551,517539 0,9463 -3694,18488 -10431,25226 -6642,6631 -15763,10431 -25226,10431z"/>
   <polygon fill="black" fill-rule="nonzero" points="1096824,2851014 1074930,2851014 1074930,2560802 973985,2560802 973985,2540345 1197769,2540345 1197769,2560802 1096824,2560802 "/>
   <path id="1" fill="black" fill-rule="nonzero" d="M1301470 2855367c-33581,0 -59753,-10367 -78540,-31037 -18775,-20670 -28131,-49674 -28131,-86949 0,-36838 9058,-66353 27195,-88470 18126,-22192 42564,-33294 73314,-33294 27194,0 48652,9431 64394,28355 15731,18861 23565,44533 23565,77018l0 16892 -166425 0c288,31909 7685,56273 22267,73101 14497,16827 35316,25236 62361,25236 13199,0 24726,-937 34731,-2757 10015,-1809 22628,-5801 37934,-11889l0 19148c-13060,5652 -25098,9494 -36114,11527 -11027,2097 -23203,3119 -36551,3119zm-6162 -221474c-22267,0 -40106,7333 -53591,22053 -13422,14721 -21320,35965 -23566,63671l142786 0c0,-26907 -5801,-47865 -17403,-63021 -11612,-15157 -27705,-22703 -48226,-22703z"/>
   <polygon id="2" fill="black" fill-rule="nonzero" points="1467970,2851014 1446938,2851014 1446938,2520335 1467970,2520335 "/>
   <path id="3" fill="black" fill-rule="nonzero" d="M1638610 2855367c-33581,0 -59754,-10367 -78540,-31037 -18776,-20670 -28131,-49674 -28131,-86949 0,-36838 9057,-66353 27194,-88470 18126,-22192 42564,-33294 73314,-33294 27195,0 48653,9431 64395,28355 15731,18861 23565,44533 23565,77018l0 16892 -166425 0c287,31909 7684,56273 22266,73101 14497,16827 35316,25236 62362,25236 13198,0 24725,-937 34730,-2757 10016,-1809 22629,-5801 37934,-11889l0 19148c-13059,5652 -25097,9494 -36114,11527 -11027,2097 -23203,3119 -36550,3119zm-6163 -221474c-22267,0 -40105,7333 -53591,22053 -13422,14721 -21319,35965 -23565,63671l142785 0c0,-26907 -5801,-47865 -17402,-63021 -11613,-15157 -27706,-22703 -48227,-22703z"/>
   <path id="4" fill="black" fill-rule="nonzero" d="M1870015 2638246l-54464 0 0 212768 -21021 0 0 -212768 -42937 0 0 -12326 42937 -7833 0 -17839c0,-28281 5215,-49025 15656,-62287 10367,-13198 27419,-19798 51058,-19798 12762,0 25524,1884 38211,5578l-4853 17988c-11315,-3555 -22629,-5301 -33794,-5301 -16391,0 -28068,4864 -34954,14582 -6823,9792 -10303,25524 -10303,47428l0 21533 54464 0 0 18275z"/>
   <path id="5" fill="black" fill-rule="nonzero" d="M2105549 2735274c0,37711 -9132,67151 -27407,88332 -18275,21170 -43437,31761 -75634,31761 -20234,0 -38073,-4864 -53517,-14646 -15455,-9792 -27269,-23789 -35465,-42138 -8270,-18276 -12325,-39371 -12325,-63309 0,-37711 9132,-67077 27407,-88109 18276,-21032 43299,-31548 75198,-31548 31697,0 56646,10665 74698,31985 18051,21319 27045,50547 27045,87672zm-182305 0c0,31761 7035,56497 20957,74261 13922,17764 33645,26684 59179,26684 25524,0 45247,-8920 59169,-26684 13922,-17764 20957,-42500 20957,-74261 0,-31835 -7110,-56561 -21170,-74187 -14071,-17541 -33868,-26322 -59392,-26322 -25460,0 -45108,8781 -58955,26258 -13784,17467 -20745,42277 -20745,74251z"/>
   <path id="6" fill="black" fill-rule="nonzero" d="M2330643 2851014l0 -149747c0,-23203 -4928,-40105 -14721,-50696 -9717,-10516 -24874,-15806 -45470,-15806 -27620,0 -47854,6961 -60616,20958 -12836,13922 -19297,36550 -19297,67800l0 127491 -21032 0 0 -231043 17839 0 4066 31760 1309 0c15008,-24076 41692,-36114 80126,-36114 52357,0 78615,28142 78615,84341l0 151056 -20819 0z"/>
   <path id="7" fill="black" fill-rule="nonzero" d="M2519483 2855367c-33581,0 -59754,-10367 -78540,-31037 -18775,-20670 -28131,-49674 -28131,-86949 0,-36838 9058,-66353 27195,-88470 18126,-22192 42564,-33294 73314,-33294 27194,0 48652,9431 64394,28355 15731,18861 23565,44533 23565,77018l0 16892 -166425 0c288,31909 7685,56273 22267,73101 14497,16827 35316,25236 62361,25236 13198,0 24726,-937 34731,-2757 10015,-1809 22628,-5801 37934,-11889l0 19148c-13060,5652 -25098,9494 -36114,11527 -11027,2097 -23204,3119 -36551,3119zm-6162 -221474c-22267,0 -40106,7333 -53592,22053 -13421,14721 -21319,35965 -23565,63671l142786 0c0,-26907 -5801,-47865 -17403,-63021 -11612,-15157 -27705,-22703 -48226,-22703z"/>
  </g>
 </g>
</svg>
