<?xml version="1.0" encoding="UTF-8"?>
<!DOCTYPE svg PUBLIC "-//W3C//DTD SVG 1.1//EN" "http://www.w3.org/Graphics/SVG/1.1/DTD/svg11.dtd">
<!-- Creator: CorelDRAW 2021 (64-Bit) -->
<svg xmlns="http://www.w3.org/2000/svg" xml:space="preserve" width="107px" height="96px" version="1.1" shape-rendering="geometricPrecision" text-rendering="geometricPrecision" image-rendering="optimizeQuality" fill-rule="evenodd" clip-rule="evenodd"
viewBox="0 0 10.93 9.72"
 xmlns:xlink="http://www.w3.org/1999/xlink"
 xmlns:xodm="http://www.corel.com/coreldraw/odm/2003">
 <g id="Camada_x0020_1">
  <metadata id="CorelCorpID_0Corel-Layer"/>
  <g id="_1552967420912">
   <path fill="#FEFEFE" stroke="#D2D3D5" stroke-width="0.09" stroke-miterlimit="22.9256" d="M2.53 0.05l7.4 0c0.61,0 1.03,0.5 0.94,1.11l-1.18 7.4c-0.1,0.61 -0.68,1.12 -1.29,1.12l-7.4 0c-0.62,0 -1.04,-0.51 -0.94,-1.12l1.18 -7.4c0.09,-0.61 0.67,-1.11 1.29,-1.11z"/>
   <path fill="#96989A" fill-rule="nonzero" d="M6.63 4.2c-0.01,-0.02 -0.04,-0.03 -0.07,-0.05 -0.04,-0.01 -0.22,-0.1 -0.26,-0.11 -0.03,-0.02 -0.06,-0.02 -0.08,0.01 -0.02,0.04 -0.1,0.12 -0.12,0.15 -0.02,0.02 -0.04,0.03 -0.08,0.01 -0.03,-0.02 -0.15,-0.06 -0.3,-0.18 -0.11,-0.1 -0.18,-0.22 -0.2,-0.26 -0.02,-0.04 0,-0.06 0.02,-0.07 0.01,-0.02 0.03,-0.05 0.05,-0.07 0.02,-0.02 0.03,-0.03 0.04,-0.06 0.01,-0.02 0,-0.05 -0.01,-0.06 0,-0.02 -0.08,-0.2 -0.11,-0.28 -0.03,-0.07 -0.06,-0.06 -0.08,-0.06 -0.02,0 -0.05,0 -0.07,0 -0.03,0 -0.07,0.01 -0.1,0.05 -0.04,0.03 -0.13,0.12 -0.13,0.3 0,0.18 0.13,0.36 0.15,0.38 0.02,0.03 0.26,0.41 0.63,0.56 0.38,0.14 0.38,0.09 0.45,0.09 0.06,-0.01 0.21,-0.09 0.25,-0.18 0.03,-0.08 0.03,-0.16 0.02,-0.17zm-0.77 -1.61c-0.7,0 -1.26,0.57 -1.26,1.26 0,0.28 0.09,0.53 0.24,0.74l-0.16 0.47 0.49 -0.16c0.2,0.14 0.44,0.21 0.69,0.21 0.7,0 1.27,-0.56 1.27,-1.26 0,-0.69 -0.57,-1.26 -1.27,-1.26zm1.51 1.26c0,0.83 -0.67,1.5 -1.51,1.5 -0.26,0 -0.51,-0.07 -0.72,-0.19l-0.84 0.27 0.27 -0.8c-0.14,-0.23 -0.21,-0.49 -0.21,-0.78 0,-0.82 0.67,-1.5 1.5,-1.5 0.84,0.01 1.51,0.68 1.51,1.5z"/>
   <text x="1.97" y="8.13"  fill="black" font-weight="300" font-size="1.24px" font-family="Open Sans Light">Whatsapp</text>
  </g>
 </g>
</svg>
