<svg xmlns="http://www.w3.org/2000/svg" xmlns:xlink="http://www.w3.org/1999/xlink" xml:space="preserve" width="23.4451mm" height="23.4246mm" fill-rule="evenodd" clip-rule="evenodd" viewBox="0 0 871230 870468">
 <g id="Camada_x0020_1">
  <metadata id="CorelCorpID_0Corel-Layer"></metadata>
  <g id="_2018448670016">
   <path fill="#A9ABAE" d="M424643 869275c5626,-1509 7042,1193 10762,1193 3720,0 5180,-2702 10762,-1193 12530,974 32678,-7086 41887,-12267 23158,-12976 40118,-32504 49594,-58319 5756,-15719 6600,-28603 6600,-46536l0 -322099c0,-35028 1237,-72355 -179,-107071 -1107,-27454 -13905,-57743 -32456,-74436 -75145,-67438 -181595,-16294 -184917,75321 -1241,34849 -89,71957 -89,107070l0 322099c-45,35823 8636,59821 26967,80103 2612,2836 3541,4738 6555,7351 2612,2214 4738,3764 7127,5934 12178,10981 40739,24177 57387,22850zm10985 -569892l0 0c20590,0 37372,16782 37372,37372l0 411013c0,20590 -16782,37372 -37372,37372l0 0c-20591,0 -37376,-16782 -37376,-37372l0 -411013c0,-20590 16785,-37372 37376,-37372z"></path>
   <path fill="#A9ABAE" d="M725754 763487c-1152,-13817 -134,-79795 -134,-99233l-44 -548458c0,-18510 3630,-27235 13991,-35336 22496,-17581 56457,-4032 58408,26833 1238,18644 175,76161 175,99055l0 548417c45,18287 -4028,27321 -13902,35466 -9877,8149 -25685,10453 -38881,3720 -10226,-5225 -18331,-15009 -19613,-30464zm24842 -762290c-17893,-2171 -54113,17268 -67041,31883 -37376,42330 -30513,77312 -30513,135807l0 531899c0,60843 -7837,112072 48179,151261 9788,6864 34540,18465 49906,17228 5623,-1509 6994,1193 10758,1193 3720,0 5136,-2702 10762,-1193 23998,1903 60307,-20148 75142,-40739 29048,-40297 22894,-73199 22894,-126866l0 -531899c0,-60884 6998,-92544 -30111,-136159 -2657,-3189 -13195,-12003 -17978,-15102 -9208,-5980 -35336,-18952 -49416,-17313 -5139,1062 -7220,-1197 -11293,-1197 -4117,0 -6198,2259 -11289,1197z"></path>
   <path fill="#A9ABAE" d="M98208 869275c5626,-1509 6997,1193 10761,1193 3720,0 5180,-2702 10758,-1193 19795,1724 46584,-13905 57346,-22850 7306,-6068 13593,-11646 19617,-20457 23775,-34893 21077,-56238 21077,-99058l0 -160162c0,-30066 617,-44061 -10672,-69430 -13905,-31308 -50612,-61995 -98126,-61995 -47602,0 -84224,30643 -98126,61995 -11293,25414 -10672,39319 -10672,69430l0 160162c0,26703 -1903,49375 7042,73065 7395,19617 20943,36930 33474,46584 11070,8498 37417,24266 57521,22716z"></path>
  </g>
 </g>
</svg>