<?xml version="1.0" encoding="UTF-8"?>
<!DOCTYPE svg PUBLIC "-//W3C//DTD SVG 1.1//EN" "http://www.w3.org/Graphics/SVG/1.1/DTD/svg11.dtd">
<!-- Creator: CorelDRAW 2021 (64-Bit) -->
<svg xmlns="http://www.w3.org/2000/svg" xml:space="preserve" width="32px" height="23px" version="1.1" shape-rendering="geometricPrecision" text-rendering="geometricPrecision" image-rendering="optimizeQuality" fill-rule="evenodd" clip-rule="evenodd"
viewBox="0 0 1.17 0.83"
 xmlns:xlink="http://www.w3.org/1999/xlink"
 xmlns:xodm="http://www.corel.com/coreldraw/odm/2003">
 <g id="Camada_x0020_1">
  <metadata id="CorelCorpID_0Corel-Layer"/>
  <path fill="#E5E6E7" fill-rule="nonzero" d="M1.15 0.14c-0.01,-0.06 -0.05,-0.1 -0.1,-0.11 -0.31,-0.04 -0.62,-0.04 -0.93,0 -0.05,0.01 -0.1,0.05 -0.1,0.11 -0.03,0.18 -0.03,0.36 0,0.55 0,0.05 0.05,0.1 0.1,0.11 0.31,0.04 0.62,0.04 0.93,0 0.05,-0.01 0.09,-0.06 0.1,-0.11 0.02,-0.19 0.02,-0.37 0,-0.55zm-0.66 0.47l0 -0.39 0.29 0.19 -0.29 0.2z"/>
 </g>
</svg>
